<svg width="113" height="76" viewBox="0 0 113 76" fill="none" xmlns="http://www.w3.org/2000/svg">
<path d="M101.543 23.2675C101.543 23.2675 102.547 15.9462 102.968 15.5493C103.39 15.1525 112.371 7.65296 112.768 5.48248C113.165 3.31199 111.61 2.33203 111.61 2.33203C111.61 2.33203 87.2324 10.9573 86.5764 11.7024C85.9204 12.4475 89.1437 23.0569 89.1437 23.0569L101.543 23.2756V23.2675Z" fill="#FEBDC6"/>
<path d="M112.283 3.00467L86.6501 13.4765L85.4028 9.92917L111.262 0L112.283 3.00467Z" fill="#50325A"/>
<path d="M109.35 9.76763L106.467 12.4726L102.329 7.07882L105.228 5.07031L109.35 9.76763Z" fill="#50325A"/>
<path d="M76.2744 26.2421C76.2744 26.2421 75.9342 18.8559 76.2744 18.3862C76.6145 17.9165 84.0898 8.91057 84.0898 6.70769C84.0898 4.50481 82.3728 3.81641 82.3728 3.81641C82.3728 3.81641 59.9714 16.7259 59.4612 17.5763C58.951 18.4267 64.0452 28.2749 64.0452 28.2749L76.2744 26.234V26.2421Z" fill="#FEBDC6"/>
<path d="M49.4848 44.5438C49.4848 44.5438 52.9511 40.8022 67.5613 40.4944C82.1716 40.1866 86.1887 41.3691 86.1887 41.3691L85.6217 19.7371L104.014 17.3398C104.014 17.3398 112.486 39.563 112.299 50.0024C112.113 60.4418 103.536 64.1754 100.799 64.799C98.0615 65.4226 48.2861 65.0743 48.2861 65.0743L49.4929 44.5438H49.4848Z" fill="#7B78CB"/>
<path d="M2.0814 69.0651H107.261C108.411 69.0651 109.342 68.1338 109.342 66.9837C109.342 65.8337 108.411 64.9023 107.261 64.9023H2.0814C0.931366 64.9023 0 65.8337 0 66.9837C0 68.1338 0.931366 69.0651 2.0814 69.0651Z" fill="#7DBE91"/>
<path d="M86.9166 43.0718L78.591 20.7109L60.231 22.193L65.7301 41.1929L86.9166 43.0718Z" fill="#7B78CB"/>
<path d="M65.5842 51.11L51.5165 64.7889C51.5165 64.7889 46.7706 66.1738 40.5993 66.3439C34.428 66.5058 29.6254 66.3439 29.6254 66.3439L26.4993 62.5455L22.0935 66.4167L7.00537 53.2966C7.00537 53.2966 14.675 46.8743 24.3531 42.5009C34.0312 38.1275 48.2365 37.9008 65.5842 51.1181V51.11Z" fill="#9DE5B4"/>
<path d="M23.5352 63.2937C23.3976 63.2937 23.2842 63.1803 23.2842 63.0426V49.4933C23.2842 49.3556 23.3895 49.2422 23.5271 49.2422C23.6648 49.2422 23.7782 49.3556 23.7782 49.4933V63.0426C23.7782 63.1803 23.6729 63.2937 23.5352 63.2937Z" fill="#50325A"/>
<path d="M52.4 61.5912C52.4 61.5912 52.3433 61.5912 52.3109 61.575C52.1165 61.5021 47.4597 59.7285 46.8766 57.9063C46.7551 57.5256 46.8037 57.1693 47.0224 56.8372C47.233 56.5214 47.5245 56.3594 47.8809 56.3594C49.5816 56.3837 52.319 60.7165 52.6187 61.2025C52.6754 61.2916 52.6673 61.413 52.6025 61.494C52.5539 61.5507 52.481 61.5831 52.4081 61.5831L52.4 61.5912ZM47.8566 56.8696C47.7432 56.8696 47.5812 56.902 47.4354 57.1207C47.3058 57.3231 47.2734 57.5256 47.3544 57.7605C47.7189 58.8781 50.2133 60.1496 51.7602 60.8137C50.7478 59.3154 48.9013 56.8858 47.8728 56.8696H47.8647H47.8566Z" fill="#50325A"/>
<path d="M16.2054 60.7275L8.28474 54.4023C8.28474 54.4023 5.7984 57.5123 6.37342 64.2829C7.04562 72.2036 18.1815 74.3822 18.1815 74.3822L19.9876 67.7978L16.2054 60.7275Z" fill="#FEBDC6"/>
<path d="M41.4823 62.4555C41.4823 62.4555 41.952 58.9973 39.903 59.5723C37.854 60.1473 38.8178 63.1763 38.8178 63.1763L41.4742 62.4555H41.4823Z" fill="#FEBDC6"/>
<path d="M39.8136 37.2109L41.0122 41.803C41.0122 41.803 39.6597 43.8601 36.3635 44.2083C33.0106 44.5647 33.6342 42.8639 33.6342 42.8639L33.375 40.4991L38.8903 37.6888L39.8136 37.219V37.2109Z" fill="#FEBDC6"/>
<path d="M38.8988 37.7112C38.9312 37.8651 38.9231 38.0595 38.8907 38.2862C38.4372 41.3881 35.3273 42.8621 33.6427 42.8621L33.4321 40.6349L38.8988 37.7031V37.7112Z" fill="#50325A"/>
<path d="M28.6454 28.4023C28.6454 28.4023 27.706 36.1367 29.9332 39.6597C32.1603 43.1827 35.4809 41.5305 37.3517 40.1537C39.2225 38.785 39.8137 37.2057 39.8137 37.2057C39.8137 37.2057 41.968 37.2867 42.7374 35.0676C43.4987 32.8566 42.0733 31.0101 40.8099 30.8643C39.5465 30.7186 38.4612 31.9253 38.4612 31.9253L38.9067 29.6252C38.9067 29.6252 31.4962 20.8299 28.6454 28.3942V28.4023Z" fill="#FEBDC6"/>
<path d="M31.496 37.033C31.415 37.033 31.334 36.9925 31.2854 36.9197C30.3783 35.5914 30.9534 33.7773 30.9858 33.7044C31.0262 33.5748 31.172 33.5019 31.3016 33.5424C31.4312 33.5829 31.5041 33.7287 31.4636 33.8583C31.4636 33.8745 30.9372 35.5105 31.7065 36.6362C31.7875 36.7496 31.7551 36.9116 31.6418 36.9844C31.6013 37.0168 31.5527 37.0249 31.5041 37.0249L31.496 37.033Z" fill="#50325A"/>
<path d="M39.6679 35.0789C39.6679 35.0789 39.595 35.0708 39.5546 35.0546C39.4331 34.9898 39.3764 34.8441 39.4412 34.7145L40.6965 32.1796C40.7613 32.0581 40.9071 32.0014 41.0366 32.0662C41.1581 32.131 41.2148 32.2767 41.15 32.4063L39.8947 34.9413C39.8542 35.0303 39.7651 35.0789 39.6679 35.0789Z" fill="#50325A"/>
<path d="M40.1216 34.1518C40.0001 34.1518 39.8948 34.0627 39.8705 33.9331C39.8544 33.7955 39.9434 33.6659 40.0811 33.6497L41.4255 33.4472C41.5713 33.431 41.6928 33.5201 41.709 33.6578C41.7252 33.7955 41.6361 33.925 41.4984 33.9412L40.154 34.1437C40.154 34.1437 40.1297 34.1437 40.1135 34.1437L40.1216 34.1518Z" fill="#50325A"/>
<path d="M38.4607 31.9348C38.4607 31.9348 37.9018 32.6151 37.1406 31.9672C36.3793 31.3193 36.7761 28.6143 36.7761 28.6143C36.7761 28.6143 34.8081 29.74 33.2855 29.4404C31.7629 29.1407 30.5319 27.4157 30.5319 27.4157C30.5319 27.4157 30.1837 29.7157 27.0251 29.7157C23.8666 29.7157 22.1172 25.9579 24.9518 24.2166C27.7864 22.4673 29.884 23.3176 29.884 23.3176C29.884 23.3176 29.3981 20.3454 33.6419 20.5883C37.505 20.807 39.4244 24.9779 39.4244 24.9779C39.4244 24.9779 41.5382 24.4353 42.6316 26.5815C43.7249 28.7277 41.5787 31.1816 41.5787 31.1816C41.5787 31.1816 39.8051 30.7605 38.4526 31.9429L38.4607 31.9348Z" fill="#50325A"/>
<path d="M33.8124 33.5411C33.6909 33.5411 33.5856 33.452 33.5613 33.3305L33.3346 32.0104C33.3103 31.8727 33.3993 31.7431 33.537 31.7188C33.6747 31.6945 33.8043 31.7836 33.8286 31.9213L34.0554 33.2414C34.0796 33.3791 33.9906 33.5087 33.8529 33.533C33.8367 33.533 33.8205 33.533 33.8124 33.533V33.5411Z" fill="#50325A"/>
<path d="M29.9412 34.3924C29.8197 34.3924 29.7144 34.3033 29.6901 34.1818L29.4876 32.8536C29.4633 32.7159 29.5605 32.5863 29.6982 32.5701C29.8359 32.5458 29.9654 32.643 29.9816 32.7807L30.1841 34.1089C30.2084 34.2466 30.1112 34.3762 29.9735 34.3924C29.9573 34.3924 29.9492 34.3924 29.9331 34.3924H29.9412Z" fill="#50325A"/>
<path d="M34.1608 31.0338C34.0637 31.0338 33.9665 30.9772 33.926 30.88C33.6668 30.2402 32.8083 30.3292 32.7678 30.3373C32.6302 30.3535 32.5087 30.2564 32.4925 30.1187C32.4763 29.981 32.5735 29.8595 32.7112 29.8433C32.7597 29.8433 33.9908 29.6975 34.3957 30.7018C34.4443 30.8314 34.3876 30.9772 34.258 31.0257C34.2256 31.0419 34.1932 31.0419 34.1608 31.0419V31.0338Z" fill="#50325A"/>
<path d="M29.0348 31.7793C28.889 31.7793 28.7837 31.6578 28.7837 31.5202C28.7918 31.18 29.0752 30.5321 30.0957 30.5078C30.2415 30.5078 30.3468 30.6131 30.3549 30.7508C30.3549 30.8885 30.2496 31.0018 30.1119 31.0099C29.3425 31.0261 29.2939 31.4797 29.2939 31.5283C29.2939 31.6578 29.1724 31.7631 29.0429 31.7631L29.0348 31.7793Z" fill="#50325A"/>
<path d="M33.1972 38.9013C33.1081 38.9013 33.019 38.8527 32.9785 38.7717C32.9137 38.6502 32.9623 38.4964 33.0838 38.4316C33.1081 38.4154 33.756 38.059 33.6912 37.4516C33.675 37.3139 33.7803 37.1924 33.918 37.1763C34.0718 37.1682 34.1771 37.2653 34.1933 37.403C34.2905 38.3587 33.3591 38.8608 33.3268 38.8851C33.2863 38.9013 33.2458 38.9175 33.2134 38.9175L33.1972 38.9013Z" fill="#50325A"/>
<path d="M83.1583 4.36746L59.8498 19.3179L57.979 16.0541L81.6114 1.59766L83.1583 4.36746Z" fill="#50325A"/>
<path d="M81.4977 11.5428L79.1572 14.7338L74.1035 10.1741L76.598 7.67969L81.4977 11.5428Z" fill="#50325A"/>
<path d="M88.3179 47.4733C88.1802 47.4733 88.0668 47.4329 87.9697 47.3924C86.8277 46.8335 86.358 43.1729 86.2527 42.2253C84.8111 41.8771 74.4608 39.4879 65.876 40.6379C65.7384 40.6541 65.6088 40.5569 65.5926 40.4193C65.5764 40.2816 65.6736 40.152 65.8113 40.1358C75.0196 38.8886 86.2284 41.6908 86.5362 41.7718C86.5686 41.7718 86.5929 41.7961 86.6252 41.8123C86.6333 41.8204 86.6495 41.8285 86.6576 41.8366C86.9654 42.1686 89.4922 44.9627 89.2817 46.5177C89.2412 46.8578 89.0711 47.1251 88.7876 47.3033C88.6095 47.4167 88.4475 47.4571 88.3098 47.4571L88.3179 47.4733ZM86.8358 42.8084C87.0707 44.493 87.5566 46.6311 88.1964 46.9388C88.2693 46.9712 88.3665 46.9955 88.5285 46.8983C88.6823 46.8011 88.7714 46.6635 88.7957 46.4691C88.9172 45.5539 87.7024 43.8532 86.8358 42.8084Z" fill="#50325A"/>
<path d="M63.519 53.1211C63.519 53.1211 71.8851 64.4028 63.2355 70.6713C54.5941 76.9398 41.8546 75.9436 41.8546 75.9436L39.8623 66.4275L54.7722 59.8755L63.519 53.1292V53.1211Z" fill="#FEBDC6"/>
<path d="M39.6689 71.4547C39.6689 71.4547 38.0573 75.9091 41.8637 75.9334C45.6621 75.9496 45.2571 71.4547 45.2571 71.4547L41.4669 70.3047L39.6689 71.4547Z" fill="#FEBDC6"/>
<path d="M19.2266 71.2624C19.2266 71.2624 21.7696 75.1417 17.9632 75.1579C14.1567 75.1741 13.1768 69.918 13.1768 69.918L17.4205 70.1123L19.2185 71.2624H19.2266Z" fill="#FEBDC6"/>
<path d="M35.8382 44.4766C33.2304 44.4766 32.947 43.2456 32.9389 43.1889C32.9146 43.0513 32.9955 42.9217 33.1332 42.8893C33.2709 42.8569 33.4005 42.946 33.4329 43.0836C33.4329 43.0836 33.7244 44.1122 36.3566 43.9502C39.6771 43.7558 41.3049 41.1399 41.3211 41.1156C41.394 40.9941 41.5479 40.9618 41.6694 41.0346C41.7909 41.1075 41.8233 41.2614 41.7504 41.3829C41.6775 41.4963 39.9767 44.2499 36.389 44.4604C36.1946 44.4685 36.0164 44.4766 35.8463 44.4766H35.8382Z" fill="#50325A"/>
<path d="M19.6075 74.3828H38.6155C39.2909 74.3828 39.8384 73.8353 39.8384 73.1599V60.2342C39.8384 59.5588 39.2909 59.0112 38.6155 59.0112H19.6075C18.9321 59.0112 18.3846 59.5588 18.3846 60.2342V73.1599C18.3846 73.8353 18.9321 74.3828 19.6075 74.3828Z" fill="#FDF6ED"/>
<path d="M18.1747 74.3828H37.2717C37.9471 74.3828 38.4946 73.8353 38.4946 73.1599V60.2342C38.4946 59.5588 37.9471 59.0112 37.2717 59.0112H18.1747C17.4993 59.0112 16.9517 59.5588 16.9517 60.2342V73.1599C16.9517 73.8353 17.4993 74.3828 18.1747 74.3828Z" fill="#50325A"/>
<path d="M19.8824 65.482C19.6475 65.0285 19.2831 64.664 18.862 64.3806C17.4447 63.4006 12.9984 61.3597 11.6783 62.6069C10.4149 63.8055 12.8526 65.0204 12.8526 65.0204C12.8526 65.0204 10.6983 64.4373 10.7955 66.0408C10.8846 67.3852 12.2614 67.8226 12.2614 67.8226C12.2614 67.8226 9.96135 67.4257 10.7955 69.3532C11.6297 71.2727 16.3918 72.9896 18.1493 72.9329C19.8986 72.8762 18.6595 70.5843 18.6595 70.5843C18.6595 70.5843 20.5384 70.2765 20.5384 69.2318C20.5384 68.1303 19.0563 67.7092 19.0563 67.7092C19.0563 67.7092 20.7328 67.1018 19.8824 65.482Z" fill="#FEBDC6"/>
<path d="M18.5055 67.8176C18.5055 67.8176 18.4326 67.8176 18.4002 67.7933L12.7472 65.2422C12.6176 65.1855 12.561 65.0397 12.6176 64.9101C12.6743 64.7805 12.8201 64.7238 12.9497 64.7886L18.6027 67.3398C18.7323 67.3965 18.789 67.5422 18.7323 67.6718C18.6918 67.7609 18.6027 67.8176 18.5055 67.8176Z" fill="#50325A"/>
<path d="M17.9638 70.5648C17.9638 70.5648 17.899 70.5648 17.8666 70.5405L12.1569 68.0461C12.0273 67.9894 11.9706 67.8436 12.0273 67.714C12.084 67.5844 12.2298 67.5277 12.3594 67.5844L18.069 70.0789C18.1986 70.1356 18.2553 70.2814 18.1986 70.4109C18.1581 70.5081 18.069 70.5648 17.9719 70.5648H17.9638Z" fill="#50325A"/>
<path d="M35.9834 65.482C36.2183 65.0285 36.5828 64.664 37.0039 64.3806C38.4212 63.4006 42.8674 61.3597 44.1876 62.6069C45.451 63.8055 43.0132 65.0204 43.0132 65.0204C43.0132 65.0204 45.1675 64.4373 45.0622 66.0408C44.9731 67.3852 43.5963 67.8226 43.5963 67.8226C43.5963 67.8226 45.8964 67.4257 45.0622 69.3532C44.228 71.2727 39.4659 72.9896 37.7085 72.9329C35.9591 72.8762 37.1983 70.5843 37.1983 70.5843C37.1983 70.5843 35.3193 70.2765 35.3193 69.2318C35.3193 68.1303 36.8014 67.7092 36.8014 67.7092C36.8014 67.7092 35.125 67.1018 35.9753 65.482H35.9834Z" fill="#FEBDC6"/>
<path d="M37.36 67.8206C37.2629 67.8206 37.1738 67.7639 37.1333 67.6748C37.0766 67.5452 37.1333 67.3994 37.2628 67.3428L42.9158 64.7916C43.0454 64.7349 43.1912 64.7916 43.2479 64.9131C43.3046 65.0427 43.2479 65.1885 43.1183 65.2452L37.4653 67.7963C37.4653 67.7963 37.4005 67.8206 37.36 67.8206Z" fill="#50325A"/>
<path d="M37.9025 70.5648C37.8053 70.5648 37.7162 70.5081 37.6757 70.4109C37.6191 70.2814 37.6757 70.1356 37.8053 70.0789L43.515 67.5844C43.6365 67.5277 43.7904 67.5844 43.8471 67.714C43.9037 67.8436 43.8471 67.9894 43.7175 68.0461L38.0078 70.5405C38.0078 70.5405 37.943 70.5648 37.9106 70.5648H37.9025Z" fill="#50325A"/>
</svg>
