<svg width="32" height="32" viewBox="0 0 32 32" fill="none" xmlns="http://www.w3.org/2000/svg">
<path d="M0 16C0 7.16344 7.16344 0 16 0C24.8366 0 32 7.16344 32 16C32 24.8366 24.8366 32 16 32C7.16344 32 0 24.8366 0 16Z" fill="#7DBE91"/>
<path d="M11.5482 11.7762L15.3905 15.6802C15.4747 15.7654 15.522 15.8804 15.522 16.0002C15.522 16.12 15.4747 16.235 15.3905 16.3202L11.549 20.2242C11.4648 20.3099 11.4176 20.4252 11.4176 20.5454C11.4176 20.6656 11.4648 20.7809 11.549 20.8666C11.5901 20.9089 11.6393 20.9424 11.6936 20.9653C11.7479 20.9882 11.8063 21 11.8652 21C11.9242 21 11.9825 20.9882 12.0368 20.9653C12.0911 20.9424 12.1403 20.9089 12.1815 20.8666L16.0229 16.9635C16.2754 16.7064 16.4168 16.3605 16.4168 16.0002C16.4168 15.6399 16.2754 15.294 16.0229 15.0369L12.1815 11.1338C12.1403 11.0914 12.0911 11.0578 12.0367 11.0348C11.9823 11.0118 11.9238 11 11.8648 11C11.8058 11 11.7473 11.0118 11.6929 11.0348C11.6385 11.0578 11.5893 11.0914 11.5482 11.1338C11.4639 11.2195 11.4167 11.3348 11.4167 11.455C11.4167 11.5752 11.4639 11.6905 11.5482 11.7762Z" fill="white"/>
<path d="M15.7146 11.7762L19.5569 15.6802C19.6412 15.7654 19.6885 15.8804 19.6885 16.0002C19.6885 16.12 19.6412 16.235 19.5569 16.3202L15.7155 20.2242C15.6312 20.3099 15.584 20.4252 15.584 20.5454C15.584 20.6656 15.6312 20.7809 15.7155 20.8666C15.7566 20.9089 15.8058 20.9424 15.8601 20.9653C15.9144 20.9882 15.9728 21 16.0317 21C16.0906 21 16.149 20.9882 16.2033 20.9653C16.2576 20.9424 16.3068 20.9089 16.3479 20.8666L20.1894 16.9635C20.4418 16.7064 20.5833 16.3605 20.5833 16.0002C20.5833 15.6399 20.4418 15.294 20.1894 15.0369L16.3479 11.1338C16.3068 11.0914 16.2575 11.0578 16.2032 11.0348C16.1488 11.0118 16.0903 11 16.0313 11C15.9722 11 15.9138 11.0118 15.8594 11.0348C15.805 11.0578 15.7558 11.0914 15.7146 11.1338C15.6304 11.2195 15.5832 11.3348 15.5832 11.455C15.5832 11.5752 15.6304 11.6905 15.7146 11.7762Z" fill="white"/>
</svg>
