<svg width="192" height="174" viewBox="0 0 192 174" fill="none" xmlns="http://www.w3.org/2000/svg">
<g clip-path="url(#clip0_2689_8636)">
<path d="M124.104 57.8522C123.39 69.9864 115.709 72.478 121.438 91.3058C127.177 110.13 117.857 117.225 117.857 117.225C117.857 117.225 116.248 113.991 113.356 111.152C111.36 109.188 108.749 107.407 105.63 107.004C98.0125 106.033 91.693 93.5655 84.4533 90.2517C77.2007 86.9319 67.4543 91.2013 58.4774 99.0866C49.5039 106.981 37.7639 101.002 27.8089 96.7859C26.5374 96.2502 25.2833 95.8786 24.056 95.6675C15.6537 94.1527 8.60861 99.1694 8.60861 99.1694C12.6882 87.0385 17.4789 72.4859 37.0177 66.4006C56.5564 60.3154 59.5991 39.5021 73.6317 30.9701C87.6642 22.438 97.9393 32.766 97.9393 32.766C98.1188 34.4786 98.7167 35.676 99.5565 36.4868C100.409 37.3036 101.532 37.7233 102.742 37.8875C106.852 38.4387 112.068 36.0188 112.068 36.0188C112.068 36.0188 124.817 45.718 124.104 57.8522Z" fill="#FFA08B"/>
<path d="M116.851 62.7383C115.742 68.2025 110.598 81.0634 113.687 92.4132C115.705 99.8207 114.466 107.025 113.364 111.145C111.368 109.181 108.757 107.4 105.638 106.997C98.0206 106.026 91.7012 93.5584 84.4614 90.2446C77.2088 86.9248 67.4624 91.1943 58.4855 99.0795C49.512 106.974 37.772 100.994 27.817 96.7788C26.5455 96.2432 25.2914 95.8715 24.0641 95.6604C25.4949 92.2084 30.3925 82.3127 40.3749 79.4157C52.544 75.8889 78.1707 28.1549 98.9789 36.2469C99.1772 36.3233 99.3628 36.3939 99.5518 36.4738C100.675 36.9252 101.743 37.3972 102.737 37.8744C119.547 45.9814 117.886 57.6211 116.839 62.7323L116.851 62.7383Z" fill="#EB7055"/>
<path d="M151.395 25.5781C151.395 25.5781 158.675 25.9281 158.245 28.1981C157.815 30.4681 154.435 29.9581 154.435 29.9581C154.435 29.9581 154.155 35.3881 150.665 35.4381L151.395 25.5881V25.5781Z" fill="#FEBDC6"/>
<path d="M159.805 37.8197C159.805 37.8197 158.085 36.5097 158.975 35.3697C159.875 34.2297 164.505 32.9297 164.505 32.9297L159.805 37.8197Z" fill="#FEBDC6"/>
<path d="M124.564 147.719L125.964 159.349L143.774 160.889L140.684 144.309L124.564 147.719Z" fill="#FEBDC6"/>
<path d="M58.2044 99.5995L46.6344 97.7695L40.2744 114.48L57.0744 116.04L58.2044 99.5995Z" fill="#FEBDC6"/>
<path d="M89.6049 78.9197C89.3049 78.9197 88.9949 78.8997 88.6749 78.8597C88.5349 78.8397 88.4449 78.7197 88.4549 78.5897C88.4749 78.4497 88.5949 78.3597 88.7249 78.3697C94.1749 79.0097 95.3349 73.6797 95.3849 73.4497C95.4149 73.3197 95.5449 73.2297 95.6749 73.2597C95.8049 73.2897 95.8949 73.4197 95.8649 73.5497C95.8549 73.6097 94.7049 78.9097 89.5949 78.9097L89.6049 78.9197Z" fill="#50325A"/>
<path d="M113.125 114.06C110.675 114.06 107.275 113.03 107.085 112.97C106.985 112.94 106.915 112.85 106.915 112.74C106.915 112.63 106.975 112.54 107.075 112.5C107.325 112.41 113.245 110.3 115.065 111.51C115.425 111.75 115.615 112.09 115.635 112.53C115.655 112.96 115.495 113.32 115.165 113.58C114.725 113.92 113.985 114.05 113.115 114.05L113.125 114.06ZM107.985 112.71C110.045 113.26 113.785 114.04 114.875 113.19C115.075 113.03 115.165 112.83 115.155 112.56C115.145 112.28 115.025 112.08 114.805 111.92C113.625 111.14 109.995 112.06 107.995 112.71H107.985Z" fill="#50325A"/>
<path d="M73.0351 14.4885C74.5751 23.0385 82.0751 30.8485 90.4151 33.3185C93.4651 34.2185 97.8652 36.6985 101.995 36.3185C116.475 34.9685 105.305 10.4385 105.305 10.4385C105.305 10.4385 103.435 13.0185 100.245 12.0285C96.0952 10.7485 90.9851 -3.85153 79.1951 0.968466C73.9451 3.11847 72.2252 9.97847 73.0452 14.4885H73.0351Z" fill="#50325A"/>
<path d="M88.5681 54.6829C87.8584 61.0538 87.1649 67.614 87.2417 68.272L87.2053 68.268H87.1953C87.1953 68.268 84.0353 80.918 84.0553 86.368C84.0593 87.4735 84.857 89.0668 86.1619 90.9428C85.7568 91.1096 85.3833 91.2598 85.0552 91.3869C82.0352 92.5569 50.625 98.8539 50.625 98.8539V115.456C50.625 115.456 97.7752 124.847 106.165 116.867C106.891 116.177 107.577 115.347 108.228 114.404C112.697 120.979 125.109 151.345 125.109 151.345L141.585 148.247C141.585 148.247 142.785 109.598 135.495 97.058C129.963 87.5342 122.679 80.1262 118.446 76.2519C118.546 75.3301 118.601 74.7305 118.619 74.5359C118.894 74.3445 119.547 68.6103 120.225 61.8858C124.957 64.4152 130.922 66.2874 137.666 65.5083C152.536 63.7883 154.226 41.0884 154.226 41.0884L147.965 34.3594C147.965 34.3594 140.326 39.3083 135.506 41.0883C130.945 42.7759 117.306 36.104 115.903 35.4068C115.862 35.3852 115.821 35.3637 115.779 35.3421L115.776 35.3383L115.775 35.3398C112.049 33.3902 106.865 31.166 100.955 30.0068C89.0252 27.6668 56.4064 47.232 56.4064 47.232L60.7668 54.6829H88.5681Z" fill="#A6A2FD"/>
<path d="M104.024 26.6211L103.064 33.2511C103.064 33.2511 103.984 35.3311 107.814 36.2111C110.664 36.8611 111.774 36.3611 111.774 36.3611L111.864 32.9511L111.944 29.6211L105.164 27.0611L104.024 26.6311V26.6211Z" fill="#FEBDC6"/>
<path d="M104.075 26.3008C104.075 26.4808 104.105 26.7108 104.175 26.9708C105.175 30.5008 110.205 32.5408 111.855 32.9408L111.935 29.6108L104.075 26.3108V26.3008Z" fill="#50325A"/>
<path d="M115.605 14.7097C115.605 14.7097 117.875 23.5197 115.835 27.9397C113.795 32.3597 109.695 30.9497 107.315 29.6497C104.935 28.3497 104.015 26.6097 104.015 26.6097C104.015 26.6097 101.535 27.0297 100.305 24.5797C99.0748 22.1297 100.455 19.7797 101.895 19.4197C103.335 19.0597 104.775 20.2897 104.775 20.2897L103.905 17.6897C103.905 17.6897 111.135 6.37968 115.595 14.6997L115.605 14.7097Z" fill="#FEBDC6"/>
<path d="M113.775 24.6715C113.775 24.6715 113.725 24.6715 113.705 24.6715C113.575 24.6315 113.495 24.5015 113.535 24.3615C114.265 21.8415 113.435 20.3515 113.425 20.3315C113.355 20.2115 113.395 20.0615 113.515 19.9915C113.635 19.9215 113.785 19.9615 113.855 20.0815C113.895 20.1515 114.805 21.7515 114.015 24.4915C113.985 24.6015 113.885 24.6715 113.775 24.6715Z" fill="#50325A"/>
<path d="M111.297 16.2498C112.617 16.6122 113.461 17.1371 113.88 17.4499L113.88 17.4499C114.265 17.7371 114.774 17.8016 115.219 17.6169L111.297 16.2498ZM111.297 16.2498L111.284 16.2466C111.27 16.2434 111.248 16.2386 111.219 16.2327C111.16 16.2209 111.072 16.2052 110.962 16.1911C110.74 16.1627 110.436 16.1417 110.103 16.1689C109.433 16.2238 108.714 16.4655 108.255 17.1625C107.76 17.9152 107.622 18.8553 107.789 19.6982C107.958 20.5468 108.417 21.2253 109.033 21.5299C109.687 21.8535 110.301 21.9696 110.935 21.903C111.578 21.8354 112.276 21.5763 113.086 21.094L113.342 21.5236L113.086 21.094C113.551 20.8171 114.163 20.8469 114.548 21.2433L111.297 16.2498ZM115.333 22.0834C115.596 22.3266 115.863 22.4968 116.183 22.5594C117.155 22.7497 118.009 22.0729 118.451 21.3348C118.658 20.9893 118.94 20.2658 119.005 19.498C119.071 18.7289 118.914 18.0274 118.395 17.5719C117.926 17.1605 117.423 17.0595 116.893 17.1116C116.338 17.1662 115.775 17.3862 115.219 17.6169L115.333 22.0834ZM115.333 22.0834C115.201 21.961 115.076 21.8256 114.946 21.6805M115.333 22.0834L114.946 21.6805M114.946 21.6805C114.919 21.6507 114.892 21.6201 114.865 21.5889M114.946 21.6805L114.865 21.5889M114.865 21.5889C114.763 21.4743 114.655 21.3529 114.548 21.2433L114.865 21.5889Z" fill="#A6A2FD" stroke="#6966B1"/>
<path d="M116.265 18.2389C116.265 18.2389 116.215 18.2389 116.185 18.2289L114.625 17.6989C114.495 17.6589 114.425 17.5189 114.475 17.3889C114.515 17.2589 114.655 17.1889 114.785 17.2389L116.345 17.7689C116.475 17.8089 116.545 17.9489 116.495 18.0789C116.455 18.1789 116.365 18.2489 116.265 18.2489V18.2389Z" fill="#50325A"/>
<path d="M110.145 17.8086C110.035 17.8086 109.925 17.7286 109.905 17.6186C109.875 17.4886 109.955 17.3586 110.095 17.3286L112.105 16.8886C112.235 16.8586 112.365 16.9486 112.395 17.0786C112.425 17.2086 112.345 17.3386 112.205 17.3686L110.195 17.8086C110.195 17.8086 110.155 17.8086 110.145 17.8086Z" fill="#50325A"/>
<path d="M104.235 23.6185C104.175 23.6185 104.115 23.5985 104.065 23.5485L101.525 21.1685C101.425 21.0785 101.425 20.9185 101.515 20.8185C101.605 20.7185 101.765 20.7185 101.865 20.8085L104.405 23.1885C104.505 23.2785 104.505 23.4385 104.415 23.5385C104.365 23.5885 104.305 23.6185 104.235 23.6185Z" fill="#50325A"/>
<path d="M101.075 23.4009C100.975 23.4009 100.885 23.3409 100.845 23.2509C100.795 23.1209 100.845 22.9809 100.985 22.9309L103.015 22.1009C103.135 22.0509 103.285 22.1009 103.335 22.2409C103.385 22.3709 103.335 22.5109 103.195 22.5609L101.165 23.3909C101.165 23.3909 101.105 23.4109 101.075 23.4109V23.4009Z" fill="#50325A"/>
<path d="M110.745 14.3103C110.745 14.3103 112.685 14.3703 114.425 15.9203C116.175 17.4703 116.365 18.7003 116.365 18.7003C116.365 18.7003 118.145 15.8603 115.975 12.6603C113.805 9.46029 108.835 7.78029 105.305 10.4403C101.775 13.1003 101.435 15.9603 101.435 15.9603L104.795 20.3003C104.795 20.3003 111.215 20.2503 110.755 14.3203L110.745 14.3103Z" fill="#50325A"/>
<path d="M137.194 46.5808C137.134 46.5808 137.074 46.5808 136.994 46.5608C134.744 46.2208 134.014 41.5708 133.984 41.3708C133.964 41.2608 134.024 41.1608 134.124 41.1108C134.224 41.0608 134.334 41.0908 134.414 41.1608C135.574 42.4108 138.204 45.4108 137.744 46.2908C137.674 46.4208 137.524 46.5708 137.204 46.5708L137.194 46.5808ZM134.644 42.1608C134.994 43.6508 135.784 45.8808 137.064 46.0708C137.254 46.1008 137.294 46.0708 137.294 46.0708C137.474 45.7608 136.274 44.0208 134.634 42.1608H134.644Z" fill="#50325A"/>
<path d="M120.655 62.3499C120.655 62.3499 120.585 62.3499 120.555 62.3299C120.435 62.2699 120.375 62.1299 120.435 61.9999C124.645 52.5999 120.385 48.0199 120.345 47.9799C120.255 47.8799 120.255 47.7299 120.345 47.6299C120.445 47.5299 120.595 47.5399 120.695 47.6299C120.885 47.8199 125.235 52.4699 120.885 62.1999C120.845 62.2899 120.755 62.3499 120.655 62.3499Z" fill="#50325A"/>
<path d="M111.375 21.2384C111.245 21.2384 111.145 21.1384 111.125 21.0084L111.005 19.4484C111.005 19.3684 111.035 19.2884 111.095 19.2384L111.775 18.6584C111.875 18.5684 112.035 18.5784 112.125 18.6884C112.215 18.7884 112.205 18.9484 112.095 19.0384L111.515 19.5284L111.625 20.9684C111.635 21.1084 111.535 21.2184 111.395 21.2384C111.395 21.2384 111.385 21.2384 111.375 21.2384Z" fill="#50325A"/>
<path d="M115.775 21.3912C115.645 21.3912 115.545 21.2912 115.525 21.1612L115.385 19.4513C115.385 19.3613 115.425 19.2712 115.495 19.2212L116.255 18.7212C116.365 18.6512 116.525 18.6813 116.595 18.7913C116.665 18.9013 116.635 19.0612 116.525 19.1312L115.885 19.5512L116.005 21.1113C116.015 21.2513 115.915 21.3612 115.775 21.3812C115.775 21.3812 115.765 21.3812 115.755 21.3812L115.775 21.3912Z" fill="#50325A"/>
<path d="M107.155 112.979C107.085 112.979 107.015 112.949 106.965 112.899C99.1348 103.939 86.7548 92.1387 86.6248 92.0187C86.5248 91.9287 86.5248 91.7688 86.6248 91.6688C86.7148 91.5688 86.8748 91.5688 86.9748 91.6688C87.0948 91.7887 99.4948 103.609 107.345 112.579C107.435 112.679 107.425 112.839 107.325 112.929C107.275 112.969 107.225 112.989 107.165 112.989L107.155 112.979Z" fill="#50325A"/>
<path d="M109.915 36.7109C104.995 36.7109 102.685 33.2809 102.655 33.2409C102.585 33.1309 102.615 32.9709 102.725 32.9009C102.835 32.8309 102.995 32.8609 103.065 32.9709C103.185 33.1409 105.965 37.2409 112.135 35.9909C112.265 35.9609 112.395 36.0509 112.425 36.1809C112.455 36.3109 112.365 36.4409 112.235 36.4709C111.405 36.6409 110.635 36.7109 109.915 36.7109Z" fill="#50325A"/>
<path d="M113.5 27.0017C112.638 27.0017 110.832 26.0151 110.5 25.0017M109.773 25.3125C109.773 25.3125 110.212 25.1478 110.415 24.9419C110.614 24.7406 110.773 24.3125 110.773 24.3125" stroke="#50325A" stroke-width="0.6" stroke-linecap="round"/>
<path d="M128.344 173.559C127.134 173.559 126.134 172.549 126.074 171.249C125.824 166.149 116.785 134.925 117.715 134.875C118.905 134.815 138.863 132.334 142.683 133.124C146.503 133.914 152.224 156.339 154.154 158.289C154.764 158.909 155.524 159.319 156.354 159.489C159.914 160.199 169.724 162.609 170.114 167.789C170.594 174.119 168.014 173.519 166.824 173.579C165.804 173.629 136.604 173.579 128.354 173.559H128.344Z" fill="#6966B1"/>
<path d="M29.5044 96.9795C29.7444 95.7895 30.9244 95.0095 32.2044 95.1995C37.2544 95.9395 71.6595 94.2803 71.5195 95.2003C71.3495 96.3803 72.7416 118.696 72.7416 118.696C57.7664 118.696 41.7544 123.729 39.4744 125.239C38.7444 125.719 38.1944 126.389 37.8744 127.159C36.4944 130.509 32.2244 139.669 27.0644 139.049C20.7544 138.289 21.8444 135.879 22.0244 134.699C22.1744 133.689 27.8844 105.049 29.5044 96.9595V96.9795Z" fill="#6966B1"/>
<path d="M87.2544 67.4451C87.2544 67.4451 97.5344 66.6199 103.935 67.4439C110.021 68.2272 119.166 71.439 119.166 71.439L118.489 76.3919L86.1874 72.5594L87.2544 67.4451Z" fill="#6966B1"/>
<path d="M72.4712 38.9883C72.4712 38.9883 54.665 45.4394 52.025 44.9994C45.975 43.9994 38.705 44.9594 37.625 47.2794C37.185 48.2194 40.655 48.6094 40.655 48.6094C40.655 48.6094 34.565 49.7394 34.815 50.9794C35.065 52.2194 38.525 52.4694 38.525 52.4694C38.525 52.4694 34.335 53.2894 34.825 54.8794C35.315 56.4694 50.705 56.4394 51.025 57.2394C51.345 58.0394 48.325 61.0694 49.455 62.4594C50.585 63.8494 55.8476 54.8794 77.3941 54.8794C83.8909 54.8794 72.4712 38.9883 72.4712 38.9883Z" fill="#6966B1"/>
<path d="M148.235 32.6697C148.235 32.6697 149.285 27.2497 150.045 26.0397C150.805 24.8297 153.805 23.8797 153.805 23.8797C153.805 23.8797 158.835 21.2997 160.125 21.9097C161.415 22.5197 161.405 25.0497 161.405 25.0497C161.405 25.0497 165.865 29.9397 165.625 33.7297C165.513 35.4945 159.786 38.2025 156.465 42.1949C152.654 46.7765 153.075 49.7702 152.016 52.2948C149.205 58.9999 136.96 40.5697 136.96 40.5697L148.235 32.6697Z" fill="#6966B1"/>
<path d="M18.0696 53.1929C19.646 47.7463 19.646 47.679 17.6138 42.3893C23.0604 43.9658 23.1276 43.9658 28.4173 41.9336C26.8409 47.3802 26.8409 47.4474 28.8731 52.7371C23.4265 51.1607 23.3593 51.1607 18.0696 53.1929Z" fill="#EB7055"/>
<path d="M17.8454 32.7996C18.6374 30.0577 18.6374 30.0203 17.6138 27.3605C20.3558 28.1525 20.3857 28.1525 23.0529 27.1289C22.261 29.8709 22.261 29.9082 23.2845 32.568C20.5426 31.7761 20.5052 31.7761 17.8454 32.7996Z" fill="#EBCD69"/>
<path d="M152.75 69.5744C153.669 66.3916 153.669 66.3543 152.481 63.2612C155.656 64.1801 155.701 64.1801 158.787 62.9922C157.868 66.175 157.868 66.2123 159.056 69.3054C155.873 68.3865 155.835 68.3865 152.742 69.5744H152.75Z" fill="#EB7055"/>
<path d="M146.264 91.3977C147.273 87.916 147.273 87.8712 145.973 84.4867C149.455 85.4953 149.499 85.4953 152.884 84.1953C151.875 87.6769 151.875 87.7218 153.175 91.1063C149.694 90.0976 149.649 90.0976 146.264 91.3977Z" fill="#EBCD69"/>
<path d="M133.174 25.2599C134.556 20.4857 134.556 20.4259 132.771 15.7863C137.545 17.1685 137.604 17.1685 142.244 15.3828C140.862 20.157 140.862 20.2167 142.648 24.8564C137.873 23.4742 137.814 23.4742 133.174 25.2599Z" fill="#EBCD69"/>
<path d="M12.7482 111.136C13.5402 108.394 13.5402 108.356 12.5166 105.696C15.2586 106.488 15.2885 106.488 17.9557 105.465C17.1638 108.207 17.1638 108.244 18.1873 110.904C15.4454 110.112 15.408 110.112 12.7482 111.136Z" fill="#EBCD69"/>
<path d="M7.22625 128.797C8.2797 125.159 8.2797 125.114 6.91992 121.58C10.5584 122.633 10.6033 122.633 14.1372 121.273C13.0838 124.912 13.0838 124.957 14.4435 128.491C10.805 127.437 10.7602 127.437 7.22625 128.797Z" fill="#EB7055"/>
</g>
<defs>
<clipPath id="clip0_2689_8636">
<rect width="192" height="174" fill="white"/>
</clipPath>
</defs>
</svg>
