<svg width="20" height="21" viewBox="0 0 20 21" fill="none" xmlns="http://www.w3.org/2000/svg">
<path d="M15.5501 11.7312L11.7344 4.73357C10.981 3.35173 9.00043 3.34145 8.23263 4.71539L1.66286 16.4718C0.91787 17.805 1.88157 19.4475 3.40875 19.4475H16.5913C18.1184 19.4475 19.0821 17.805 18.3371 16.4718L17.5 14.9738" stroke="#50325A" stroke-linecap="round"/>
<path fill-rule="evenodd" clip-rule="evenodd" d="M10.0004 7.28516C9.61463 7.28516 9.30558 7.60476 9.31854 7.99032L9.51424 13.815C9.52305 14.0772 9.73811 14.2852 10.0004 14.2852C10.2627 14.2852 10.4778 14.0772 10.4866 13.815L10.6823 7.99032C10.6952 7.60476 10.3862 7.28516 10.0004 7.28516ZM10.5663 16.6508C10.4163 16.8009 10.2128 16.8852 10.0006 16.8852C9.78843 16.8852 9.58495 16.8009 9.43492 16.6508C9.28489 16.5008 9.20061 16.2973 9.20061 16.0852C9.20061 15.873 9.28489 15.6695 9.43492 15.5195C9.58495 15.3694 9.78843 15.2852 10.0006 15.2852C10.2128 15.2852 10.4163 15.3694 10.5663 15.5195C10.7163 15.6695 10.8006 15.873 10.8006 16.0852C10.8006 16.2973 10.7163 16.5008 10.5663 16.6508Z" fill="#50325A"/>
</svg>
