<svg width="44" height="45" viewBox="0 0 44 45" fill="none" xmlns="http://www.w3.org/2000/svg">
<path d="M31 27.0117C31 27.94 30.6313 28.8302 29.9749 29.4866C29.3185 30.143 28.4283 30.5117 27.5 30.5117C26.5717 30.5117 25.6815 30.143 25.0251 29.4866C24.3687 28.8302 24 27.94 24 27.0117C24 26.0835 24.3687 25.1932 25.0251 24.5368C25.6815 23.8805 26.5717 23.5117 27.5 23.5117C28.4283 23.5117 29.3185 23.8805 29.9749 24.5368C30.6313 25.1932 31 26.0835 31 27.0117Z" stroke="#8782AA" stroke-width="1.2"/>
<path d="M12 20.5117H24M32 20.5117H28M14 20.5117L14.614 18.0567C15.159 15.8737 15.432 14.7827 16.246 14.1467C17.006 13.5537 18.036 13.5147 20 13.5117M30 20.5117L29.386 18.0567C28.84 15.8737 28.568 14.7827 27.754 14.1467C26.994 13.5537 25.964 13.5147 24 13.5117" stroke="#8782AA" stroke-width="1.2" stroke-linecap="round"/>
<path d="M20 27.0117C20 27.4713 19.9095 27.9265 19.7336 28.3511C19.5577 28.7758 19.2999 29.1616 18.9749 29.4866C18.6499 29.8116 18.264 30.0694 17.8394 30.2453C17.4148 30.4212 16.9596 30.5117 16.5 30.5117C16.0404 30.5117 15.5852 30.4212 15.1606 30.2453C14.736 30.0694 14.3501 29.8116 14.0251 29.4866C13.7001 29.1616 13.4423 28.7758 13.2664 28.3511C13.0905 27.9265 13 27.4713 13 27.0117C13 26.0835 13.3687 25.1932 14.0251 24.5368C14.6815 23.8805 15.5717 23.5117 16.5 23.5117C17.4283 23.5117 18.3185 23.8805 18.9749 24.5368C19.6313 25.1932 20 26.0835 20 27.0117Z" stroke="#8782AA" stroke-width="1.2"/>
<path d="M20 27.0121L20.658 26.6821C21.0747 26.4737 21.5341 26.3652 22 26.3652C22.4659 26.3652 22.9253 26.4737 23.342 26.6821L24 27.0121" stroke="#8782AA" stroke-width="1.2" stroke-linecap="round"/>
</svg>
