<svg width="65" height="100" viewBox="0 0 65 100" fill="none" xmlns="http://www.w3.org/2000/svg">
<path d="M49.4854 0L8.75292 0C4.41867 0 0.905067 3.5136 0.905067 7.84785L0.905067 92.0213C0.905067 96.3555 4.41867 99.8691 8.75292 99.8691H49.4854C53.8196 99.8691 57.3332 96.3555 57.3332 92.0213L57.3332 7.84785C57.3332 3.5136 53.8196 0 49.4854 0Z" fill="#6966B1"/>
<path d="M56.2471 0L15.5146 0C11.1804 0 7.66679 3.5136 7.66679 7.84785L7.66679 92.0213C7.66679 96.3555 11.1804 99.8691 15.5146 99.8691H56.2471C60.5813 99.8691 64.0949 96.3555 64.0949 92.0213L64.0949 7.84785C64.0949 3.5136 60.5813 0 56.2471 0Z" fill="#F0F1F6"/>
<circle cx="35.8794" cy="87.6969" r="6.47038" fill="#6966B1"/>
</svg>
