<svg width="24" height="28" viewBox="0 0 24 28" fill="none" xmlns="http://www.w3.org/2000/svg">
<path d="M15.895 21.6923V22.6538C15.895 23.6739 15.4931 24.6522 14.7776 25.3735C14.0622 26.0948 13.0918 26.5 12.0801 26.5C11.0683 26.5 10.0979 26.0948 9.38248 25.3735C8.66703 24.6522 8.2651 23.6739 8.2651 22.6538V21.6923M22.3136 19.735C20.7829 17.8462 19.7022 16.8846 19.7022 11.6773C19.7022 6.90865 17.2869 5.20974 15.2989 4.38462C15.0348 4.27524 14.7863 4.02404 14.7058 3.7506C14.3571 2.55409 13.3795 1.5 12.0801 1.5C10.7806 1.5 9.80241 2.55469 9.45727 3.7518C9.3768 4.02825 9.12824 4.27524 8.86417 4.38462C6.87384 5.21094 4.46089 6.90385 4.46089 11.6773C4.45791 16.8846 3.3772 17.8462 1.84646 19.735C1.21222 20.5174 1.76777 21.6923 2.87709 21.6923H21.289C22.3923 21.6923 22.9443 20.5138 22.3136 19.735Z" stroke="white" stroke-width="1.2" stroke-linecap="round" stroke-linejoin="round"/>
</svg>
