<svg width="60" height="61" viewBox="0 0 60 61" fill="none" xmlns="http://www.w3.org/2000/svg">
<rect y="0.5" width="60" height="60" rx="10" fill="#F0F1F6"/>
<g clip-path="url(#clip0_1350_8)">
<circle cx="41.5" cy="19" r="10.5" fill="#EB7055"/>
<path d="M23.001 36.8282C23.001 32.781 19.72 29.5 15.6727 29.5H9.26569C8.71341 29.5 8.26569 29.9477 8.26569 30.5V51.2097C8.26569 51.762 8.71341 52.2097 9.26569 52.2097H15.6727C19.72 52.2097 23.001 48.9287 23.001 44.8814V36.8282Z" fill="#7DBE91"/>
<path d="M18.4595 31.9508C13.5226 30.5713 9.40695 38.5704 17.9108 41.0533C27.4098 43.8267 28.504 33.1251 38.2122 31.1229C48.9114 28.9163 47.5396 42.4329 40.4069 41.0533C33.2741 39.6737 27.2387 34.1575 28.6104 26.4341C29.9821 18.7108 42.3181 14.8841 42.6016 22.5725M22.0264 17.6025C17.3627 16.9785 13.7962 19.2624 14.0706 22.843C14.345 26.4236 15.991 28.3597 24.2211 29.1872M24.2211 29.1872C23.1237 31.6701 13.5219 46.2937 29.1591 45.4662C43.699 44.6968 40.9557 31.9508 31.9025 30.2954C29.4531 29.8476 27.1499 29.7663 24.2211 29.1872ZM24.2211 29.1872C24.5316 28.4845 23.3981 30.5664 24.2211 29.1872ZM24.2211 29.1872C25.8671 25.6014 25.3184 22.0206 21.752 22.0206C16.7835 22.0206 18.1857 29.1872 24.2211 29.1872Z" stroke="#50325A" stroke-width="1.2" stroke-linecap="round"/>
</g>
<defs>
<clipPath id="clip0_1350_8">
<rect width="44" height="44" fill="white" transform="translate(8 8.5)"/>
</clipPath>
</defs>
</svg>
