<svg width="20" height="21" viewBox="0 0 20 21" fill="none" xmlns="http://www.w3.org/2000/svg">
<path d="M15.1007 14.3306V13.6269V8.81654C15.1007 8.72771 15.2079 8.68298 15.271 8.74544L16.5712 10.0314C16.6014 10.0613 16.6473 10.0688 16.6855 10.05L18.9023 8.9618C18.9493 8.93873 18.9707 8.88376 18.9514 8.83512C18.3308 7.27355 17.6254 5.11606 15.7257 3.73442C14.651 2.95286 13.4508 2.6498 12.5944 2.34982C12.5504 2.33442 12.5019 2.35078 12.4757 2.38928C12.0875 2.95882 11.1169 3.98494 9.98718 4.00476C8.85512 4.02462 7.88732 2.97332 7.50331 2.38757C7.47854 2.34977 7.43223 2.33221 7.38897 2.34527C6.48525 2.61823 5.56753 2.95241 4.49422 3.73442C2.59968 5.11477 1.76034 7.29768 1.05645 8.82984C1.03327 8.88029 1.05558 8.93963 1.10612 8.96263L3.49933 10.0514C3.53858 10.0693 3.58485 10.06 3.61413 10.0284L4.7841 8.76431C4.84589 8.69756 4.95749 8.74128 4.95749 8.83224V18.5768C4.95749 18.632 5.00226 18.6768 5.05749 18.6768H15.0007C15.0559 18.6768 15.1007 18.632 15.1007 18.5768V17.4143" stroke="#50325A" stroke-width="1.2" stroke-linecap="round"/>
</svg>
