<svg width="45" height="45" viewBox="0 0 45 45" fill="none" xmlns="http://www.w3.org/2000/svg">
<rect x="13.3715" y="14.4223" width="17.9445" height="17.9445" rx="3.4" stroke="#50325A" stroke-width="1.2"/>
<path d="M18.7797 12.8223C18.7797 12.4909 18.5111 12.2223 18.1797 12.2223C17.8483 12.2223 17.5797 12.4909 17.5797 12.8223H18.7797ZM17.5797 12.8223V14.8223H18.7797V12.8223H17.5797Z" fill="#50325A"/>
<path d="M27.2094 12.8223C27.2094 12.4909 26.9407 12.2223 26.6094 12.2223C26.278 12.2223 26.0094 12.4909 26.0094 12.8223H27.2094ZM26.0094 12.8223V14.8223H27.2094V12.8223H26.0094Z" fill="#50325A"/>
<path d="M13.3691 19.3555H31.4219" stroke="#50325A" stroke-width="1.2"/>
<circle cx="17.5953" cy="23.7945" r="0.9" fill="#50325A"/>
<circle cx="22.3953" cy="23.7945" r="0.9" fill="#50325A"/>
<circle cx="27.1953" cy="23.7945" r="0.9" fill="#50325A"/>
<circle cx="17.5953" cy="27.5953" r="0.9" fill="#50325A"/>
<circle cx="22.3953" cy="27.5953" r="0.9" fill="#50325A"/>
<circle cx="27.1953" cy="27.5953" r="0.9" fill="#50325A"/>
</svg>
