<svg width="86" height="91" viewBox="0 0 86 91" fill="none" xmlns="http://www.w3.org/2000/svg">
<path d="M16.4255 12.5491H82.9027L82.9529 12.4885C85.8382 9.02579 85.8382 3.99601 82.9529 0.533332L82.9027 0.472656H16.4255L16.754 0.826247C19.838 4.14665 19.7187 9.31871 16.4841 12.4906L16.4255 12.5491Z" fill="#FFA08B"/>
<path d="M69.6626 90.4726H8.96631V7.63398C8.96631 3.76958 12.1005 0.635387 15.967 0.635387H75.3473C75.3473 0.635387 81.509 0.269243 81.3855 0.635387C77.0608 0.719077 77.2826 12.7119 77.2826 12.7119V82.8526C77.2826 87.0601 73.8701 90.4726 69.6626 90.4726Z" fill="#8B87E1"/>
<path d="M69.5744 90.474H3.09718L3.04697 90.4133C0.161752 86.9506 0.161752 81.9208 3.04697 78.4581L3.09718 78.3975H69.5744L69.2459 78.7511C66.1619 82.0715 65.6368 87.7331 69.5744 90.474Z" fill="#FFA08B"/>
<path d="M50.771 63.7576L56.9719 69.4463C57.0129 69.4839 57.0767 69.4808 57.1139 69.4394L70.5844 54.4385" stroke="white" stroke-width="1.2" stroke-linecap="round"/>
<path d="M17.561 21.0078H58.4515" stroke="white" stroke-width="1.2" stroke-linecap="round"/>
<path d="M17.561 30.4004H58.4515" stroke="white" stroke-width="1.2" stroke-linecap="round"/>
<path d="M17.561 39.7939H45.1755" stroke="white" stroke-width="1.2" stroke-linecap="round"/>
</svg>
