<svg width="144" height="144" viewBox="0 0 144 144" fill="none" xmlns="http://www.w3.org/2000/svg">
<g filter="url(#filter0_d_2402_5169)">
<path d="M85.2674 22.2685C85.4213 19.4057 83.1415 17 80.2746 17H63.6689C60.8232 17 58.5513 19.3718 58.6736 22.2149L61.4318 86.3308C61.5469 89.0062 63.7493 91.1159 66.4271 91.1159H76.8268C79.4839 91.1159 81.6769 89.0377 81.8196 86.3844L85.2674 22.2685Z" fill="#EE87E4"/>
<path d="M71.6014 127C77.5444 127 82.3623 122.183 82.3623 116.239C82.3623 110.295 77.5444 105.478 71.6014 105.478C65.6584 105.478 60.8405 110.295 60.8405 116.239C60.8405 122.183 65.6584 127 71.6014 127Z" fill="#EE87E4"/>
</g>
<defs>
<filter id="filter0_d_2402_5169" x="58.6689" y="17" width="30.6057" height="118" filterUnits="userSpaceOnUse" color-interpolation-filters="sRGB">
<feFlood flood-opacity="0" result="BackgroundImageFix"/>
<feColorMatrix in="SourceAlpha" type="matrix" values="0 0 0 0 0 0 0 0 0 0 0 0 0 0 0 0 0 0 127 0" result="hardAlpha"/>
<feOffset dx="4" dy="8"/>
<feComposite in2="hardAlpha" operator="out"/>
<feColorMatrix type="matrix" values="0 0 0 0 0.0980392 0 0 0 0 0.0823529 0 0 0 0 0.290196 0 0 0 1 0"/>
<feBlend mode="normal" in2="BackgroundImageFix" result="effect1_dropShadow_2402_5169"/>
<feBlend mode="normal" in="SourceGraphic" in2="effect1_dropShadow_2402_5169" result="shape"/>
</filter>
</defs>
</svg>
