<svg width="140" height="74" viewBox="0 0 140 74" fill="none" xmlns="http://www.w3.org/2000/svg">
<path d="M7.97548 17.9336H67.7865C72.0292 17.9336 75.4796 21.3753 75.4796 25.6267V49.2959C75.4796 53.5385 72.038 56.989 67.7865 56.989H7.97548C3.73281 56.989 0.282349 53.5473 0.282349 49.2959V25.6267C0.282349 21.3841 3.72401 17.9336 7.97548 17.9336Z" fill="#96C8ED"/>
<path d="M32.877 50.7754L23.8635 73.5731L46.9605 53.8122L32.877 50.7754Z" fill="#96C8ED"/>
<path d="M130.81 0.5H61.5012C56.5815 0.5 52.5934 4.48817 52.5934 9.40784V36.8443C52.5934 41.764 56.5815 45.7522 61.5012 45.7522H130.81C135.729 45.7522 139.718 41.764 139.718 36.8443V9.40784C139.718 4.48817 135.729 0.5 130.81 0.5Z" fill="#8B87E1"/>
<path d="M116.322 37.8555L125.335 60.6532L102.238 40.8922L116.322 37.8555Z" fill="#8B87E1"/>
</svg>
