<svg width="26" height="26" viewBox="0 0 26 26" fill="none" xmlns="http://www.w3.org/2000/svg">
<path d="M14.4056 1.97648C14.4056 3.0307 13.5273 3.90901 12.4731 3.90901C11.4189 3.90901 10.5406 3.0307 10.5406 1.97648C10.5406 0.922258 11.4189 0.0439453 12.4727 0.0439453C13.5265 0.0439453 14.4056 0.922258 14.4056 1.97648ZM12.4731 5.49054C12.2065 5.48598 11.9418 5.53511 11.6946 5.63503C11.4474 5.73494 11.2229 5.88358 11.0344 6.0721C10.8459 6.26062 10.6972 6.48515 10.5973 6.73232C10.4974 6.9795 10.4482 7.24426 10.4528 7.51082C10.4528 8.65238 11.3311 9.5311 12.4731 9.5311C13.6151 9.5311 14.4934 8.65279 14.4934 7.51082C14.4934 6.36885 13.6151 5.49054 12.4731 5.49054ZM12.4731 10.9363C11.3356 10.9363 10.3606 11.9024 10.3606 13.0488C10.3606 14.1953 11.3267 15.1613 12.4731 15.1613C13.6195 15.1613 14.5856 14.1953 14.5856 13.0488C14.5856 11.9024 13.6195 10.9363 12.4731 10.9363ZM12.4731 16.4703C12.2065 16.4657 11.9418 16.5148 11.6946 16.6147C11.4474 16.7147 11.2229 16.8633 11.0344 17.0518C10.8459 17.2403 10.6972 17.4649 10.5973 17.712C10.4974 17.9592 10.4482 18.224 10.4528 18.4905C10.4528 19.6321 11.3311 20.5108 12.4731 20.5108C13.6151 20.5108 14.4934 19.6325 14.4934 18.4905C14.4934 17.4363 13.6151 16.4703 12.4731 16.4703ZM12.4731 22.0919C11.4189 22.0919 10.5406 22.9703 10.5406 24.0245C10.5406 25.0787 11.4189 25.957 12.4731 25.957C13.5273 25.957 14.4056 25.0787 14.4056 24.0245C14.4056 22.9703 13.5273 22.0919 12.4731 22.0919ZM17.8356 5.22729C16.6059 5.22729 15.5517 6.28151 15.5517 7.51123C15.5517 8.74095 16.6059 9.79516 17.8356 9.79516C19.0653 9.79516 20.1195 8.74095 20.1195 7.51123C20.1195 6.28151 19.0653 5.22729 17.8356 5.22729ZM17.8356 10.6731C16.5181 10.6731 15.4639 11.7273 15.4639 13.0448C15.4639 14.3622 16.5181 15.4164 17.8356 15.4164C19.1531 15.4164 20.2073 14.3622 20.2073 13.0448C20.2073 11.7273 19.1531 10.6731 17.8356 10.6731ZM17.8356 16.207C16.6059 16.207 15.5517 17.2612 15.5517 18.4909C15.5517 19.7207 16.6059 20.7749 17.8356 20.7749C19.0653 20.7749 20.1195 19.7207 20.1195 18.4909C20.1195 17.2612 19.0653 16.207 17.8356 16.207ZM23.3695 10.4098C21.9639 10.4098 20.7346 11.5473 20.7346 13.0448C20.7346 14.4504 21.8721 15.6797 23.3695 15.6797C24.867 15.6797 26 14.5373 26 13.0439C25.9123 11.5506 24.7703 10.409 23.3651 10.409L23.3695 10.4098ZM7.02812 5.7542C6.56277 5.75591 6.11696 5.94153 5.7879 6.27059C5.45884 6.59965 5.27321 7.04546 5.2715 7.51082C5.27321 7.97618 5.45884 8.42199 5.7879 8.75105C6.11696 9.08011 6.56277 9.26573 7.02812 9.26745C7.49348 9.26573 7.93929 9.08011 8.26835 8.75105C8.59741 8.42199 8.78304 7.97618 8.78475 7.51082C8.78304 7.04546 8.59741 6.59965 8.26835 6.27059C7.93929 5.94153 7.49348 5.75591 7.02812 5.7542ZM7.02812 11.2C5.97391 11.2 5.18375 11.9905 5.18375 13.0444C5.18375 14.0982 5.97431 14.8887 7.02812 14.8887C8.08194 14.8887 8.8725 14.0982 8.8725 13.0444C8.8725 11.9905 8.08194 11.2 7.02812 11.2ZM7.02812 16.7339C6.56277 16.7356 6.11696 16.9212 5.7879 17.2503C5.45884 17.5794 5.27321 18.0252 5.2715 18.4905C5.27321 18.9559 5.45884 19.4017 5.7879 19.7308C6.11696 20.0598 6.56277 20.2455 7.02812 20.2472C7.49348 20.2455 7.93929 20.0598 8.26835 19.7308C8.59741 19.4017 8.78304 18.9559 8.78475 18.4905C8.78304 18.0252 8.59741 17.5794 8.26835 17.2503C7.93929 16.9212 7.49348 16.7356 7.02812 16.7339ZM1.58113 11.4628C0.702812 11.4628 0 12.1656 0 13.0439C0 13.9223 0.702812 14.6251 1.58113 14.6251C2.45944 14.6251 3.16225 13.9223 3.16225 13.0439C3.16225 12.1656 2.45944 11.4628 1.58113 11.4628Z" fill="#00B0B9"/>
</svg>
