<svg width="26" height="26" viewBox="0 0 26 26" fill="none" xmlns="http://www.w3.org/2000/svg">
<g clip-path="url(#clip0_1248_956)">
<path d="M5.6494 2.12037C7.1114 1.93248 8.62925 2.25748 9.87796 3.03392C10.5838 3.45033 11.1475 4.05412 11.7259 4.62287C12.1469 5.03419 12.5638 5.45009 12.9797 5.86142L12.9949 5.90205C12.0656 6.8156 11.1424 7.73474 10.2075 8.65337C9.52757 7.9988 8.86741 7.31783 8.18694 6.65818C7.54202 6.05388 6.56245 5.81064 5.71948 6.08486C4.75464 6.35349 4.01882 7.27771 3.96804 8.2781C3.93249 8.79607 4.0696 9.32876 4.35397 9.76548C4.52663 10.0499 4.78562 10.2631 5.01362 10.5018C5.56714 11.0553 6.13081 11.5987 6.67366 12.1568C5.74436 13.0703 4.8105 13.9793 3.88628 14.9035C3.15604 14.2129 2.45577 13.4872 1.73011 12.792C0.866826 11.8937 0.28792 10.7263 0.0853027 9.49228C-0.133057 8.17248 0.0751464 6.78158 0.684521 5.58822C1.19741 4.58834 1.97437 3.71998 2.91839 3.11111C3.74511 2.59263 4.67948 2.22701 5.6494 2.12037Z" fill="#EA4335"/>
<path d="M18.2442 2.1968C19.0364 2.04953 19.8534 2.02922 20.6507 2.16125C22.5088 2.47609 24.214 3.6334 25.154 5.27363C26.2199 7.07586 26.2808 9.41586 25.3317 11.279C24.9407 12.0814 24.3415 12.7562 23.7021 13.3702C23.1745 13.8775 22.6713 14.4158 22.1335 14.9084C21.2042 13.9897 20.2703 13.0757 19.3461 12.1469C20.0058 11.4816 20.671 10.8316 21.3312 10.1674C21.7577 9.73578 22.0218 9.14723 22.0472 8.54293C22.0776 7.8523 21.8034 7.15711 21.3063 6.67976C20.799 6.19785 20.088 5.92312 19.3822 5.98406C18.7779 6.01453 18.1944 6.28875 17.7729 6.71531C16.184 8.28394 14.6001 9.86273 13.0112 11.4319C12.0773 10.5132 11.1429 9.5941 10.2187 8.6648L10.2136 8.65972C11.1429 7.74617 12.0661 6.82703 13.001 5.9084C13.6759 5.24316 14.3462 4.57844 15.0216 3.9132C15.8884 3.03418 17.0407 2.46035 18.2442 2.1968Z" fill="#4285F4"/>
<path d="M6.6747 12.157C7.84724 10.9845 9.03044 9.82156 10.2131 8.65918C11.1318 9.59305 12.0712 10.5071 13.0056 11.4262C11.828 12.5836 10.6554 13.7464 9.4824 14.9037C8.54853 15.828 7.61416 16.7466 6.68029 17.6708C5.77638 16.7923 4.88822 15.8991 3.9899 15.0104C3.96451 14.9799 3.91373 14.9291 3.89392 14.8987C4.81154 13.9795 5.74541 13.0711 6.6747 12.157Z" fill="#FBBC05"/>
<path d="M13.0101 18.3915C15.1272 16.31 17.229 14.2183 19.3456 12.1475C20.2698 13.0717 21.1981 13.9903 22.133 14.9089C19.0917 17.9193 16.0504 20.925 13.0101 23.9297C10.8986 21.8482 8.78614 19.7621 6.68481 17.6699C7.61868 16.7457 8.55306 15.8271 9.48692 14.9029C10.6595 16.0668 11.8325 17.2286 13.0101 18.3915Z" fill="#34A853"/>
</g>
<defs>
<clipPath id="clip0_1248_956">
<rect width="26" height="26" fill="white"/>
</clipPath>
</defs>
</svg>
