<svg width="89" height="115" viewBox="0 0 89 115" fill="none" xmlns="http://www.w3.org/2000/svg">
<path d="M21.1389 58.1943C21.1389 58.1943 25.1962 84.7276 45.6972 86.8743C58.7707 88.2481 72.0588 61.3285 72.0588 61.3285L48.4021 42.373L21.1604 58.1943H21.1389Z" fill="#FFBAC3"/>
<path d="M64.6142 77.6094L33.6777 82.2089L26.0295 114.392H78.8504L64.6142 77.6094Z" fill="#FFBAC3"/>
<path d="M34.1338 68.5705L58.7178 63.1204C61.3337 62.5404 62.9842 59.9497 62.4043 57.3338L51.1416 6.53107C50.5617 3.91514 47.9709 2.26465 45.355 2.84459L20.771 8.29472C18.1551 8.87466 16.5046 11.4654 17.0845 14.0813L28.3472 64.884C28.9271 67.5 31.5179 69.1505 34.1338 68.5705Z" fill="#EBCD69"/>
<path d="M37.8809 67.7483L62.4649 62.2981C65.0808 61.7182 66.7313 59.1274 66.1513 56.5115L54.8887 5.70881C54.3087 3.09288 51.718 1.44238 49.102 2.02232L24.5181 7.47246C21.9021 8.05239 20.2517 10.6432 20.8316 13.2591L32.0943 64.0618C32.6742 66.6777 35.265 68.3282 37.8809 67.7483Z" fill="#FDF6ED"/>
<circle cx="41.0792" cy="22.4663" r="11.6406" transform="rotate(-12.9303 41.0792 22.4663)" fill="#EB7055" stroke="#FE9179" stroke-width="2.49979"/>
<path fill-rule="evenodd" clip-rule="evenodd" d="M42.5469 15.4585L36.6995 16.8009L37.4825 20.2115L34.0719 20.9946L35.4143 26.842L38.825 26.0589L39.6082 29.4702L45.4556 28.1277L44.6724 24.7164L48.0836 23.9332L46.7411 18.0859L43.3299 18.8691L42.5469 15.4585Z" fill="white"/>
<path d="M44.6454 57.8063C45.1606 60.1247 47.2429 61.6274 49.3038 61.1766C51.3646 60.7258 52.6312 58.4718 52.116 56.1533C51.6008 53.8349 49.5185 52.3322 47.4576 52.783C45.3968 53.2338 44.1302 55.4878 44.6454 57.8063Z" fill="#EBCD69"/>
<path d="M12.0584 42.3742C12.0584 42.3742 -2.83978 42.7607 0.723755 35.376C4.28729 27.9913 30.3483 21.0145 34.2982 28.5495C38.2482 36.0629 12.0584 42.3742 12.0584 42.3742Z" fill="#FFBAC3"/>
<path d="M15.364 54.2649C15.364 54.2649 0.465887 54.6513 4.02942 47.2666C7.59295 39.8819 33.654 32.9051 37.6039 40.4401C41.5538 47.9536 15.364 54.2649 15.364 54.2649Z" fill="#FFBAC3"/>
<path d="M25.2599 63.1956C22.2545 64.6768 18.9271 65.4926 15.5783 65.235C12.5943 65.0203 9.84655 63.904 10.8555 60.4264C12.8519 53.4496 34.5337 43.4459 39.1061 49.3923C42.5194 53.836 31.2277 60.2117 25.2599 63.1741V63.1956Z" fill="#FFBAC3"/>
<path d="M8.17271 41.2335C7.67897 41.2335 7.22816 40.89 7.12083 40.3963C6.99203 39.8167 7.35696 39.2371 7.93658 39.1297L28.0297 34.7505C28.6094 34.6217 29.189 34.9866 29.2963 35.5662C29.4251 36.1458 29.0602 36.7254 28.4806 36.8328L8.38738 41.2121C8.38738 41.2121 8.23711 41.2335 8.15125 41.2335H8.17271Z" fill="#50325A"/>
<path d="M13.2381 53.3644C12.7444 53.3644 12.2936 53.0209 12.1863 52.5272C12.0575 51.9476 12.4224 51.3679 13.002 51.2606L33.0952 46.8813C33.6748 46.7525 34.2544 47.1175 34.3617 47.6971C34.4905 48.2767 34.1256 48.8563 33.546 48.9636L13.4528 53.3429C13.4528 53.3429 13.3025 53.3644 13.2167 53.3644H13.2381Z" fill="#50325A"/>
<path d="M70.2132 32.9054C70.2132 32.9054 45.2685 27.8821 48.9393 36.1899C51.5368 42.0504 61.1541 41.7928 61.1541 41.7928C61.1541 41.7928 54.027 78.802 59.2435 81.7645C69.2686 87.4318 79.4011 51.732 70.2132 32.9269V32.9054Z" fill="#FFBAC3"/>
<path d="M60.0159 75.8174C59.5651 75.8174 59.1572 75.5384 59.007 75.0876C58.8138 74.508 54.2842 60.4685 61.5616 44.9049C61.8192 44.3682 62.4632 44.1321 62.9998 44.3897C63.5365 44.6473 63.7727 45.2698 63.5151 45.828C56.6027 60.5973 61.0034 74.2933 61.0463 74.4221C61.2396 74.9802 60.9175 75.5813 60.3594 75.7745C60.2521 75.8174 60.1233 75.8389 60.0159 75.8389V75.8174Z" fill="#50325A"/>
</svg>
