<svg width="20" height="21" viewBox="0 0 20 21" fill="none" xmlns="http://www.w3.org/2000/svg">
<path d="M13.1895 18.2013C12.1783 18.6202 11.0942 18.8351 9.99966 18.8337C8.90511 18.8351 7.82107 18.6201 6.80984 18.2013C5.79861 17.7824 4.88012 17.1678 4.10716 16.3928C3.33217 15.6199 2.71758 14.7014 2.2987 13.6902C1.87982 12.6789 1.66491 11.5949 1.66633 10.5003C1.66493 9.40578 1.87985 8.32174 2.29873 7.31051C2.71761 6.29928 3.33219 5.38079 4.10716 4.60783C4.88012 3.83286 5.79861 3.21828 6.80984 2.7994C7.82107 2.38052 8.90511 2.1656 9.99966 2.167C11.0942 2.16558 12.1783 2.38049 13.1895 2.79937C14.2007 3.21825 15.1192 3.83284 15.8922 4.60783C16.6671 5.38079 17.2817 6.29928 17.7006 7.31051C18.1195 8.32174 18.3344 9.40578 18.333 10.5003C18.3344 11.5949 18.1195 12.6789 17.7006 13.6902C17.2817 14.7014 16.3789 15.7848 15.8922 16.3928" stroke="#50325A" stroke-width="1.2" stroke-linecap="round" stroke-linejoin="round"/>
<path d="M10 12.4264V10.7598C10.4945 10.7598 10.9778 10.6131 11.3889 10.3384C11.8 10.0637 12.1205 9.67329 12.3097 9.21647C12.4989 8.75966 12.5484 8.25699 12.452 7.77204C12.3555 7.28709 12.1174 6.84163 11.7678 6.492C11.4181 6.14237 10.9727 5.90427 10.4877 5.8078C10.0028 5.71134 9.50011 5.76085 9.04329 5.95007C8.58648 6.13929 8.19603 6.45972 7.92133 6.87084C7.64662 7.28196 7.5 7.76531 7.5 8.25977" stroke="#50325A" stroke-width="1.2" stroke-linecap="round" stroke-linejoin="round"/>
<path fill-rule="evenodd" clip-rule="evenodd" d="M9.99966 15.6937C10.2118 15.6937 10.4153 15.6095 10.5653 15.4594C10.7154 15.3094 10.7997 15.1059 10.7997 14.8937C10.7997 14.6816 10.7154 14.4781 10.5653 14.3281C10.4153 14.178 10.2118 14.0938 9.99966 14.0938C9.78749 14.0938 9.584 14.178 9.43398 14.3281C9.28395 14.4781 9.19966 14.6816 9.19966 14.8937C9.19966 15.1059 9.28395 15.3094 9.43398 15.4594C9.584 15.6095 9.78749 15.6937 9.99966 15.6937Z" fill="#50325A"/>
</svg>
