<svg width="21" height="20" viewBox="0 0 21 20" fill="none" xmlns="http://www.w3.org/2000/svg">
<path d="M2.64119 6.81081C2.22231 7.82204 2.0074 8.90609 2.00882 10.0006C2.00742 11.0952 2.22234 12.1792 2.64122 13.1905C3.0601 14.2017 3.67468 15.1202 4.44965 15.8931C5.2226 16.6681 6.14108 17.2827 7.15232 17.7016C8.16355 18.1205 9.24759 18.3354 10.3422 18.334C11.4367 18.3354 12.5207 18.1205 13.532 17.7016C14.5432 17.2827 15.4617 16.6681 16.2347 15.8931C17.0096 15.1202 17.6242 14.2017 18.0431 13.1905C18.462 12.1792 18.6769 11.0952 18.6755 10.0006C18.6769 8.90609 18.462 7.82204 18.0431 6.81081C17.6242 5.79957 17.0096 4.88109 16.2347 4.10814C15.4617 3.33317 14.5432 2.71859 13.532 2.29971C12.5207 1.88083 11.4367 1.66592 10.3422 1.66731C9.24759 1.66589 8.16355 1.8808 7.15232 2.29968C6.14108 2.71856 5.05765 3.62139 4.44965 4.10814" stroke="#50325A" stroke-width="1.2" stroke-linecap="round" stroke-linejoin="round"/>
<path d="M10.3431 11.9284V10.2617C10.8376 10.2617 11.3209 10.1151 11.7321 9.84039C12.1432 9.56569 12.4636 9.17524 12.6528 8.71843C12.8421 8.26161 12.8916 7.75895 12.7951 7.27399C12.6986 6.78904 12.4605 6.34358 12.1109 5.99395C11.7613 5.64432 11.3158 5.40622 10.8309 5.30976C10.3459 5.21329 9.84325 5.2628 9.38643 5.45202C8.92962 5.64124 8.53917 5.96167 8.26447 6.37279C7.98976 6.78392 7.84314 7.26727 7.84314 7.76172" stroke="#50325A" stroke-width="1.2" stroke-linecap="round" stroke-linejoin="round"/>
<path fill-rule="evenodd" clip-rule="evenodd" d="M10.3428 15.1957C10.555 15.1957 10.7585 15.1114 10.9085 14.9614C11.0585 14.8114 11.1428 14.6079 11.1428 14.3957C11.1428 14.1835 11.0585 13.98 10.9085 13.83C10.7585 13.68 10.555 13.5957 10.3428 13.5957C10.1306 13.5957 9.92716 13.68 9.77713 13.83C9.6271 13.98 9.54282 14.1835 9.54282 14.3957C9.54282 14.6079 9.6271 14.8114 9.77713 14.9614C9.92716 15.1114 10.1306 15.1957 10.3428 15.1957Z" fill="#50325A"/>
</svg>
