<svg width="20" height="20" viewBox="0 0 20 20" fill="none" xmlns="http://www.w3.org/2000/svg">
<path fill-rule="evenodd" clip-rule="evenodd" d="M2.34679 7.5417C2.25827 7.92682 2.19871 8.3191 2.16909 8.71528C2.16718 8.74088 2.16378 8.76611 2.15898 8.79086C2.1033 9.07807 1.85919 9.30078 1.5612 9.30078C1.23754 9.30078 0.973183 9.03811 0.994182 8.71513C0.996073 8.68604 0.998105 8.65696 1.00028 8.6279C1.03255 8.19626 1.09574 7.76864 1.1889 7.34825C1.42984 6.26094 1.8712 5.22196 2.49622 4.28655C3.48794 2.80233 4.89751 1.64552 6.54669 0.962411C8.19586 0.279301 10.0106 0.100568 11.7613 0.448816C12.8647 0.668294 13.9115 1.09088 14.8507 1.68935C15.2138 1.92074 15.5609 2.17843 15.8889 2.46083C15.911 2.47984 15.933 2.49896 15.9549 2.5182C16.1981 2.73173 16.1969 3.1044 15.9681 3.33326C15.7574 3.54397 15.4273 3.5591 15.1848 3.39539C15.1639 3.38128 15.1437 3.36584 15.1242 3.34909C14.8231 3.08989 14.5036 2.85462 14.1687 2.6449C13.3649 2.14154 12.4724 1.7853 11.5327 1.59837C10.0093 1.29535 8.43023 1.45087 6.99522 2.04527C5.56022 2.63967 4.3337 3.64625 3.47076 4.93772C2.93844 5.7344 2.55922 6.61741 2.34679 7.5417ZM17.5267 7.05852C17.9189 8.37515 17.9619 9.78225 17.6357 11.138C17.1699 13.0737 15.9863 14.7603 14.3243 15.8565C12.6623 16.9528 10.6459 17.3768 8.68316 17.0429C7.30845 16.809 6.0319 16.2155 4.97601 15.3366C4.82387 15.21 4.67631 15.0774 4.5337 14.9392L7.1636 14.3433C7.48678 14.2701 7.68941 13.9488 7.61619 13.6256C7.54297 13.3024 7.22163 13.0998 6.89844 13.173L3.09484 14.0348C2.7178 14.1202 2.4814 14.4951 2.56682 14.8721L3.42858 18.6757C3.5018 18.9989 3.82314 19.2015 4.14632 19.1283C4.4695 19.0551 4.67214 18.7338 4.59892 18.4106L4.07802 16.1114C4.10913 16.1385 4.14042 16.1653 4.17188 16.1919C5.39577 17.227 6.88307 17.9256 8.48658 18.1984C10.7423 18.5821 13.0596 18.0948 14.9696 16.835C16.8797 15.5751 18.24 13.6368 18.7752 11.4122C19.1558 9.8308 19.0992 8.18861 18.6295 6.65604C18.5035 6.24494 18.3478 5.84173 18.1628 5.44969C18.1504 5.42335 18.1378 5.39706 18.1251 5.37082C17.9842 5.07946 17.6247 4.9812 17.3431 5.14075C17.0838 5.28764 16.9812 5.60177 17.0744 5.87912C17.0824 5.90301 17.0919 5.92663 17.1028 5.94984C17.2726 6.3097 17.4141 6.68038 17.5267 7.05852Z" fill="#50325A"/>
</svg>
