<svg width="26" height="27" viewBox="0 0 26 27" fill="none" xmlns="http://www.w3.org/2000/svg">
<path fill-rule="evenodd" clip-rule="evenodd" d="M6.57245 0.467773C7.01428 0.467773 7.37245 0.825946 7.37245 1.26777V2.55459H15.6748V1.26777C15.6748 0.825946 16.033 0.467773 16.4748 0.467773C16.9166 0.467773 17.2748 0.825946 17.2748 1.26777V2.55459H20.3883C21.7469 2.55459 22.8482 3.65598 22.8482 5.01459V6.49759V10.8035C22.8482 11.2453 22.4901 11.6035 22.0482 11.6035C21.6064 11.6035 21.2483 11.2453 21.2483 10.8035V6.49759V5.01459C21.2483 4.53963 20.8632 4.15459 20.3883 4.15459H17.2748V5.26777C17.2748 5.7096 16.9166 6.06777 16.4748 6.06777C16.033 6.06777 15.6748 5.7096 15.6748 5.26777V4.15459H7.37245V5.26777C7.37245 5.7096 7.01428 6.06777 6.57245 6.06777C6.13063 6.06777 5.77245 5.7096 5.77245 5.26777V4.15459H2.66C2.18504 4.15459 1.8 4.53963 1.8 5.0146V20.2666C1.8 20.7415 2.18504 21.1266 2.66 21.1266H8.52413C8.96595 21.1266 9.32413 21.4847 9.32413 21.9266C9.32413 22.3684 8.96595 22.7266 8.52413 22.7266H2.66C1.30138 22.7266 0.2 21.6252 0.2 20.2666V5.0146C0.2 3.65598 1.30138 2.55459 2.66 2.55459H5.77245V1.26777C5.77245 0.825946 6.13063 0.467773 6.57245 0.467773Z" fill="#8782AA"/>
<path d="M24.6234 19.1994C24.6234 23.0654 21.4894 26.1994 17.6234 26.1994C13.7574 26.1994 10.6234 23.0654 10.6234 19.1994C10.6234 15.3334 13.7574 12.1994 17.6234 12.1994C21.4894 12.1994 24.6234 15.3334 24.6234 19.1994Z" stroke="#8782AA" stroke-width="1.6"/>
<path fill-rule="evenodd" clip-rule="evenodd" d="M16.8288 22.5453C16.8288 22.9871 17.187 23.3453 17.6288 23.3453C18.0707 23.3453 18.4288 22.9871 18.4288 22.5453V20.0013H20.9731C21.415 20.0013 21.7731 19.6432 21.7731 19.2013C21.7731 18.7595 21.415 18.4013 20.9731 18.4013H18.4288V15.8596C18.4288 15.4177 18.0707 15.0596 17.6288 15.0596C17.187 15.0596 16.8288 15.4177 16.8288 15.8596V18.4013H14.2874C13.8456 18.4013 13.4874 18.7595 13.4874 19.2013C13.4874 19.6432 13.8456 20.0013 14.2874 20.0013H16.8288V22.5453Z" fill="#8782AA"/>
</svg>
