<svg width="21" height="20" viewBox="0 0 21 20" fill="none" xmlns="http://www.w3.org/2000/svg">
<path d="M3.29016 6.73511H6.60474H9.91931H11.5766H13.2339H16.5485M3.29016 12.4172H16.5485M13.5095 16.3675C11.934 17.1523 10.7621 17.1523 9.91931 17.1523C5.71643 17.1523 2.34314 13.8131 2.34314 9.61027C2.34314 5.40738 5.71643 2 9.91931 2C14.1222 2 17.4955 5.40738 17.4955 9.61027C17.4955 11.4712 16.8342 13.1628 15.7323 14.4702" stroke="#50325A" stroke-width="1.2" stroke-linecap="round" stroke-linejoin="round"/>
<path fill-rule="evenodd" clip-rule="evenodd" d="M9.91811 17.1523C12.0195 17.1523 13.7062 13.8131 13.7062 9.61026C13.7062 5.40738 12.0195 2 9.91811 2C7.81667 2 6.13002 5.40738 6.13002 9.61026C6.13002 13.8131 7.81667 17.1523 9.91811 17.1523Z" stroke="#50325A" stroke-width="1.2" stroke-linecap="round" stroke-linejoin="round"/>
</svg>
