<svg width="78" height="37" viewBox="0 0 78 37" fill="none" xmlns="http://www.w3.org/2000/svg">
<path d="M11.6399 22.024C9.64793 22.024 8.03991 20.416 8.03991 18.424V2.22385C8.03991 1.23984 7.2239 0.423828 6.2399 0.423828H0.839844V18.424C0.839844 24.4001 5.66389 29.2241 11.6399 29.2241H15.24V23.8241C15.24 22.84 14.424 22.024 13.44 22.024H11.6399Z" fill="white"/>
<path d="M16.6816 18.4231C16.6816 24.4232 21.5537 29.2712 27.5537 29.2232C33.5058 29.1752 38.2818 24.2312 38.2818 18.2791V7.62305H32.8818C31.8978 7.62305 31.0818 8.43905 31.0818 9.42306V18.3511C31.0818 20.3192 29.5458 21.9752 27.5777 22.0232C25.6097 22.0712 23.8817 20.4392 23.8817 18.4231V9.42306C23.8817 8.43905 23.0657 7.62305 22.0817 7.62305H16.6816V18.4231Z" fill="white"/>
<path d="M66.3618 22.0243C68.35 22.0243 69.9618 20.4125 69.9618 18.4243C69.9618 16.436 68.35 14.8242 66.3618 14.8242C64.3735 14.8242 62.7617 16.436 62.7617 18.4243C62.7617 20.4125 64.3735 22.0243 66.3618 22.0243Z" fill="#EBCD69"/>
<path d="M77.1608 18.4235C77.1608 12.4234 72.2887 7.5754 66.2887 7.6234C60.3366 7.6714 55.5605 12.6154 55.5605 18.5675V29.2236H60.9606C61.9446 29.2236 62.7606 28.4076 62.7606 27.4236V18.4955C62.7606 16.5275 64.2966 14.8715 66.2646 14.8235C68.3047 14.7755 69.9607 16.4075 69.9607 18.4235V34.6237C69.9607 35.6077 70.7767 36.4237 71.7607 36.4237H77.1608V18.4235Z" fill="white"/>
<path d="M50.5192 29.2233C44.5191 29.2233 39.6711 24.3512 39.7191 18.3511C39.7671 12.3991 44.7112 7.62305 50.6632 7.62305H54.1192V13.0231C54.1192 14.0071 53.3032 14.8231 52.3192 14.8231H50.5912C48.6232 14.8231 46.9672 16.3591 46.9192 18.3271C46.8712 20.3672 48.5032 22.0232 50.5192 22.0232H52.3192C53.3032 22.0232 54.1192 22.8392 54.1192 23.8232V29.2233H50.5192Z" fill="white"/>
</svg>
