<svg width="78" height="36" viewBox="0 0 78 36" fill="none" xmlns="http://www.w3.org/2000/svg">
<path d="M11.6396 21.6002C9.64762 21.6002 8.03961 19.9922 8.03961 18.0002V1.80002C8.03961 0.816008 7.2236 0 6.23959 0H0.839539V18.0002C0.839539 23.9762 5.66358 28.8003 11.6396 28.8003H15.2397V23.4002C15.2397 22.4162 14.4237 21.6002 13.4397 21.6002H11.6396Z" fill="#50325A"/>
<path d="M16.6813 17.9993C16.6813 23.9994 21.5534 28.8474 27.5534 28.7994C33.5055 28.7514 38.2815 23.8074 38.2815 17.8553V7.19922H32.8815C31.8975 7.19922 31.0815 8.01523 31.0815 8.99924V17.9273C31.0815 19.8953 29.5455 21.5514 27.5774 21.5994C25.6094 21.6474 23.8814 20.0153 23.8814 17.9993V8.99924C23.8814 8.01523 23.0654 7.19922 22.0814 7.19922H16.6813V17.9993Z" fill="#50325A"/>
<path d="M66.3614 21.6005C68.3497 21.6005 69.9615 19.9887 69.9615 18.0004C69.9615 16.0122 68.3497 14.4004 66.3614 14.4004C64.3732 14.4004 62.7614 16.0122 62.7614 18.0004C62.7614 19.9887 64.3732 21.6005 66.3614 21.6005Z" fill="#EBCD69"/>
<path d="M77.1604 17.9997C77.1604 11.9996 72.2884 7.15157 66.2883 7.19957C60.3363 7.24757 55.5602 12.1916 55.5602 18.1437V28.7998H60.9603C61.9443 28.7998 62.7603 27.9838 62.7603 26.9998V18.0717C62.7603 16.1037 64.2963 14.4476 66.2643 14.3996C68.3044 14.3516 69.9604 15.9837 69.9604 17.9997V34.1998C69.9604 35.1838 70.7764 35.9998 71.7604 35.9998H77.1604V17.9997Z" fill="#50325A"/>
<path d="M50.5189 28.7994C44.5188 28.7994 39.6708 23.9274 39.7188 17.9273C39.7668 11.9753 44.7108 7.19922 50.6629 7.19922H54.1189V12.5993C54.1189 13.5833 53.3029 14.3993 52.3189 14.3993H50.5909C48.6229 14.3993 46.9669 15.9353 46.9189 17.9033C46.8709 19.9433 48.5029 21.5994 50.5189 21.5994H52.3189C53.3029 21.5994 54.1189 22.4154 54.1189 23.3994V28.7994H50.5189Z" fill="#50325A"/>
</svg>
