<svg width="32" height="50" viewBox="0 0 32 50" fill="none" xmlns="http://www.w3.org/2000/svg">
<path d="M22.5685 37.5192C24.209 37.5192 25.539 36.1892 25.539 34.5486C25.539 32.9081 24.209 31.5781 22.5685 31.5781C20.9279 31.5781 19.5979 32.9081 19.5979 34.5486C19.5979 36.1892 20.9279 37.5192 22.5685 37.5192Z" fill="#EBCD69"/>
<path d="M9.44608 18.422C7.78128 18.422 6.47556 17.0837 6.47556 15.4515V2.00256C6.44291 1.15384 5.79005 0.500977 4.97397 0.500977H0.501872V15.4189C0.501872 20.3806 4.51697 24.3631 9.44608 24.3631H12.4166V19.891C12.4166 19.0749 11.7637 18.3894 10.915 18.3894H9.41343L9.44608 18.422Z" fill="white"/>
<path d="M13.6243 15.4198C13.6243 20.3815 17.672 24.4293 22.6338 24.364C27.5955 24.2987 31.5127 20.2183 31.5127 15.2892V6.47559H27.0406C26.2245 6.47559 25.539 7.12845 25.539 7.97717V15.3871C25.539 17.0193 24.2659 18.3903 22.6338 18.423C21.0016 18.4556 19.5653 17.1172 19.5653 15.4524V7.97717C19.5653 7.16109 18.9124 6.47559 18.0637 6.47559H13.5916V15.4198H13.6243Z" fill="white"/>
<path d="M31.5455 34.5475C31.5455 29.5858 27.4977 25.538 22.536 25.6033C17.6069 25.636 13.6571 29.749 13.6571 34.6781V43.5244H18.1292C18.9453 43.5244 19.6308 42.8715 19.6308 42.0228V34.6128C19.6308 32.9807 20.9038 31.6096 22.536 31.577C24.1682 31.5444 25.6045 32.8827 25.6045 34.5475V47.9965C25.6045 48.8125 26.2573 49.4981 27.106 49.4981H31.5781V34.5802L31.5455 34.5475Z" fill="white"/>
<path d="M9.44594 43.4909C4.48419 43.4909 0.436449 39.4432 0.501735 34.4815C0.534378 29.5524 4.64741 25.6025 9.57651 25.6025H12.4491V30.0746C12.4491 30.8907 11.7962 31.5762 10.9475 31.5762H9.51123C7.87907 31.5762 6.50806 32.8493 6.47542 34.4815C6.44278 36.1136 7.78114 37.5499 9.44594 37.5499H10.9475C11.7636 37.5499 12.4491 38.2028 12.4491 39.0515V43.5236H9.47858L9.44594 43.4909Z" fill="white"/>
</svg>
