<svg width="125" height="125" viewBox="0 0 125 125" fill="none" xmlns="http://www.w3.org/2000/svg">
<g filter="url(#filter0_d_1588_3708)">
<circle cx="62.3137" cy="55.233" r="30.6177" fill="#FDF6ED" stroke="white" stroke-width="5"/>
<mask id="mask0_1588_3708" style="mask-type:alpha" maskUnits="userSpaceOnUse" x="34" y="27" width="57" height="57">
<circle cx="62.3137" cy="55.233" r="28.1177" fill="#EB7055"/>
</mask>
<g mask="url(#mask0_1588_3708)">
<path d="M62.4511 52.0717C60.7128 52.9964 59.4783 54.3139 58.6075 55.6301C58.3526 56.0156 58.1352 56.39 57.9385 56.7708C57.2433 58.1071 56.9022 59.3261 56.7569 59.983C56.679 60.3098 56.656 60.4951 56.656 60.4951C56.656 60.4951 56.7151 60.5246 56.8157 60.5668C57.2666 60.7622 58.6529 61.3133 60.4809 61.5364C60.8974 61.5854 61.341 61.6201 61.8045 61.6269C63.3874 61.6501 65.1862 61.3776 66.9213 60.4632C68.6564 59.5488 69.9045 58.2242 70.7649 56.9048C71.0198 56.5193 71.2404 56.1345 71.4339 55.7641C72.2732 54.144 72.5949 52.6927 72.6894 52.2012C72.7108 52.0947 72.7195 52.0295 72.7195 52.0295C72.7195 52.0295 72.5423 51.941 72.2375 51.8245C71.6102 51.5749 70.4027 51.1807 68.9051 50.9913C68.4886 50.9424 68.0449 50.9077 67.5814 50.9008C65.9882 50.8744 64.1998 51.1501 62.4511 52.0717Z" fill="#EBCD69"/>
<path d="M63.4584 53.9652C59.5001 56.0513 57.431 58.8997 56.7571 59.9823C56.6792 60.3092 56.6563 60.4945 56.6563 60.4945C56.6563 60.4945 56.7153 60.524 56.8159 60.5662C56.9178 60.3826 58.8929 56.7696 63.627 54.2661C68.3715 51.7657 72.4694 52.1781 72.6896 52.2006C72.711 52.0941 72.7198 52.0289 72.7198 52.0289C72.7198 52.0289 72.5426 51.9404 72.2377 51.8239C70.9564 51.7804 67.4166 51.8792 63.4584 53.9652Z" fill="#6E477B"/>
<path d="M67.5678 50.9091C67.793 51.9856 68.197 53.0717 68.7477 54.1238C69.2984 55.176 69.9942 56.1256 70.7544 56.9027C71.0093 56.5173 71.23 56.1325 71.4235 55.7621C70.8484 55.1212 70.3084 54.3665 69.8624 53.5277C69.4164 52.6889 69.0933 51.8199 68.8842 50.9861C68.4749 50.9507 68.0313 50.916 67.5678 50.9091Z" fill="white"/>
<path d="M58.6076 55.6304C58.3526 56.0159 58.1352 56.3903 57.9385 56.7711C58.5135 57.412 59.0536 58.1666 59.4996 59.0055C59.9456 59.8443 60.2687 60.7132 60.4777 61.547C60.8942 61.596 61.3379 61.6307 61.8014 61.6376C61.5762 60.5611 61.1722 59.475 60.6215 58.4229C60.0708 57.3707 59.3646 56.4179 58.6076 55.6304Z" fill="white"/>
<path d="M61.7453 55.2157C61.9554 55.5293 62.3728 55.6125 62.6941 55.4172C63.0728 55.183 63.4723 54.9551 63.8686 54.7376C64.2617 54.5304 64.6756 54.3296 65.0935 54.1527C65.4364 53.998 65.6019 53.6076 65.4596 53.2583C65.3132 52.8851 64.887 52.72 64.5202 52.8787C64.0752 53.0699 63.6342 53.2849 63.214 53.5064C62.7802 53.735 62.3672 53.97 61.9582 54.2289C61.6201 54.4417 61.528 54.8886 61.7453 55.2157Z" fill="#50325A"/>
<path d="M65.0553 54.1641L64.3903 52.9297" stroke="white" stroke-width="0.635218" stroke-miterlimit="10" stroke-linecap="round" stroke-linejoin="round"/>
<path d="M64.2588 54.5398L63.6042 53.3086" stroke="white" stroke-width="0.635218" stroke-miterlimit="10" stroke-linecap="round" stroke-linejoin="round"/>
<path d="M63.4858 54.9486L62.8343 53.707" stroke="white" stroke-width="0.635218" stroke-miterlimit="10" stroke-linecap="round" stroke-linejoin="round"/>
<path d="M62.7333 55.3951L62.0715 54.1504" stroke="white" stroke-width="0.635218" stroke-miterlimit="10" stroke-linecap="round" stroke-linejoin="round"/>
<g opacity="0.3">
<path d="M59.7228 61.2016C60.1313 61.2029 60.5565 61.1866 61.012 61.1458C62.5636 61.0122 64.3487 60.5997 66.1516 59.6496C67.9545 58.6994 69.3008 57.4617 70.2841 56.2593C70.5741 55.9072 70.8267 55.5663 71.0554 55.2293C72.1524 53.6206 72.6034 52.2657 72.6829 52.0073C72.7141 52.0168 72.7316 52.0336 72.7316 52.0336C72.7316 52.0336 72.482 53.7673 71.446 55.7682C71.2525 56.1386 71.0319 56.5234 70.7769 56.9089C69.9062 58.2251 68.6685 59.5529 66.9334 60.4673C65.1983 61.3817 63.3963 61.6645 61.8166 61.631C61.3531 61.6242 60.9199 61.5927 60.493 61.5405C59.7494 61.4474 59.0767 61.3083 58.5133 61.1462C58.8747 61.1896 59.2904 61.2043 59.7228 61.2016Z" fill="#BB9B31"/>
</g>
<path d="M63.6985 83.1431C65.5815 77.2087 65.7517 70.7414 64.2573 64.7327C63.9914 63.697 63.8256 63.3449 62.904 62.4492C62.693 62.2436 61.7121 61.4996 61.7035 61.2057C61.6788 60.2895 62.0933 59.0869 61.6454 58.2277C61.569 58.0802 61.4559 57.9273 61.2912 57.9026C61.1383 57.8789 60.9876 57.9801 60.9057 58.1104C60.8078 58.2665 59.6612 60.0989 59.9325 61.3004C59.4641 60.7901 59.6321 60.086 59.5772 59.3948C59.519 58.6519 59.4932 57.8703 59.0658 57.2469C59.0001 57.1511 58.8989 57.08 58.7837 57.0714C58.5619 57.0542 58.4758 57.2415 58.4177 57.4095C58.0591 58.4474 57.9913 60.1344 58.2131 61.2208C57.7491 60.465 57.4594 59.0578 57.3529 58.1793C57.3346 58.0296 57.257 57.8907 57.1289 57.8111C56.8199 57.6205 56.5475 57.9435 56.4894 58.2406C56.4388 58.499 56.4711 58.779 56.3699 59.1041L56.0824 58.9523C55.9683 58.892 55.8262 58.9448 55.7799 59.0653C55.6324 59.4497 55.5355 59.8599 55.4838 60.3121C55.4074 60.9731 55.6281 61.6353 56.0867 62.1176C57.2334 63.3245 58.521 64.4076 59.9379 65.3701C60.6829 65.8761 61.1254 66.7256 61.1125 67.6267C61.0317 73.124 59.8227 78.603 57.5747 83.6201L63.6996 83.141L63.6985 83.1431Z" fill="#FFA3A6"/>
<path d="M60.4272 62.0631C60.4272 62.0631 60.2526 61.87 60.1607 61.7317C60.0641 61.5864 59.9497 61.3379 59.9497 61.3379" stroke="#50325A" stroke-width="0.2" stroke-linecap="round"/>
<path d="M58.7081 61.9635C58.7081 61.9635 58.5336 61.7704 58.4416 61.6321C58.345 61.4868 58.2307 61.2383 58.2307 61.2383" stroke="#50325A" stroke-width="0.2" stroke-linecap="round"/>
<path d="M57.7983 62.9004C57.7983 62.9004 56.8577 62.0597 56.5565 61.3423C56.2239 60.5504 56.353 59.1523 56.353 59.1523" stroke="#50325A" stroke-width="0.2" stroke-linecap="round"/>
<path d="M78.276 60.0855C77.8292 59.3555 78.2028 60.262 77.5654 59.6903C77.4082 59.5493 76.6632 58.9722 76.4522 58.9668C75.9645 58.9539 74.6413 62.2344 74.7662 62.5036C74.8577 62.7006 75.0407 62.8675 75.2571 62.8836C75.5112 62.903 75.7405 62.7167 75.8762 62.5003C76.0118 62.285 76.1249 61.8813 76.2508 61.6595C76.3585 61.7941 76.5555 61.9674 76.7084 61.8867C76.8613 61.8059 77.1348 61.6832 77.1907 61.5206C77.4567 62.0761 77.3081 62.6952 77.1326 63.2852C77.4933 63.3035 77.7764 62.9827 77.9498 62.6661C78.3761 61.8888 78.7432 60.8477 78.276 60.0844V60.0855Z" fill="#FFA3A6"/>
<path d="M86.8968 82.4606C83.8811 77.4457 81.0722 72.3058 78.5981 67.0217C78.3343 66.2218 78.9835 65.4488 79.3561 64.693C79.9633 63.4624 80.0656 63.0188 79.5735 61.7376C79.0815 60.4564 78.0286 58.2946 77.2071 57.1953C77.0714 57.0134 76.9239 56.8228 76.7108 56.7442C76.4976 56.6656 76.2058 56.7593 76.1617 56.9822C76.124 57.1684 76.2661 57.3374 76.3846 57.486C77.1759 58.4787 77.0962 59.5069 77.1544 60.7751C77.1759 61.2338 77.3664 62.0359 77.2448 62.4784C77.1231 62.9209 76.8324 63.3429 76.4018 63.5033C75.6062 63.7994 74.7868 63.1136 74.325 62.4019C73.8631 61.6903 73.4733 60.8343 72.6885 60.5103C72.4721 60.4209 72.1652 60.4102 72.0619 60.6201C71.9941 60.7579 72.0511 60.9216 72.1082 61.0637C72.5388 62.1295 72.9695 63.1965 73.4001 64.2623C73.8879 65.4703 74.4014 66.7171 75.5879 67.7388C76.8744 74.2018 78.1599 80.6648 79.4465 87.1278C79.4853 87.3205 79.5283 87.5229 79.6586 87.6704C79.9267 87.9719 80.4112 87.8998 80.7955 87.7749C83.5151 86.8931 85.7286 84.5859 86.8979 82.4596L86.8968 82.4606Z" fill="#FFA3A6"/>
<path d="M77.3361 62.3008C77.3361 62.3008 77.3577 61.6258 77.3361 61.1941C77.3118 60.7058 77.2033 59.9492 77.2033 59.9492" stroke="#50325A" stroke-width="0.2" stroke-linecap="round"/>
<path d="M75.2374 61.8921C76.6176 61.6231 77.5185 60.286 77.2494 58.9058C76.9804 57.5255 75.6433 56.6247 74.2631 56.8937C72.8828 57.1628 71.982 58.4998 72.251 59.8801C72.5201 61.2603 73.8571 62.1611 75.2374 61.8921Z" fill="#7DBE91"/>
<mask id="mask1_1588_3708" style="mask-type:luminance" maskUnits="userSpaceOnUse" x="72" y="56" width="6" height="6">
<path d="M75.2387 61.8921C76.619 61.6231 77.5198 60.286 77.2508 58.9058C76.9817 57.5255 75.6447 56.6247 74.2644 56.8937C72.8841 57.1628 71.9833 58.4998 72.2524 59.8801C72.5214 61.2603 73.8585 62.1611 75.2387 61.8921Z" fill="white"/>
</mask>
<g mask="url(#mask1_1588_3708)">
<path d="M77.5317 60.8722C77.1883 60.2822 76.5832 59.8505 75.9135 59.717C75.2439 59.5835 74.5204 59.7504 73.9767 60.1627C73.3361 60.6494 72.9819 61.4138 72.6524 62.147" stroke="white" stroke-width="0.107663" stroke-linecap="round" stroke-linejoin="round"/>
<path d="M76.6459 56.9057C75.9849 57.0769 75.3163 57.2502 74.6337 57.2685C73.9511 57.2868 73.2416 57.1382 72.699 56.7227" stroke="white" stroke-width="0.107663" stroke-linecap="round" stroke-linejoin="round"/>
</g>
<path d="M94.6532 60.8224C92.3535 58.3559 90.0538 55.8893 87.4946 53.5078C86.5687 54.8353 85.2994 55.9216 83.6715 56.9132C86.0347 61.1056 88.5734 65.2 91.2779 69.1803C92.0994 67.7452 92.9219 66.31 93.7434 64.876C94.1321 64.1977 94.524 63.5108 94.7274 62.7561C94.9309 62.0014 94.9492 61.1411 94.6521 60.8224H94.6532Z" fill="#FFA3A6"/>
<path d="M88.768 54.2234C88.4536 52.9766 87.8055 51.8096 86.7913 50.8503C86.674 50.7394 86.492 50.7373 86.3725 50.8449C84.8857 52.1767 83.1103 53.2027 81.1401 53.9262C80.9625 53.9908 80.8903 54.2008 80.9894 54.3601C81.6784 55.468 82.4439 56.536 83.2449 57.6298C83.316 57.7267 83.4387 57.7752 83.5561 57.7483C85.4929 57.3165 87.2575 56.1333 88.7013 54.4904C88.7648 54.4172 88.7906 54.3181 88.7669 54.2245L88.768 54.2234Z" fill="#6966B1"/>
<path d="M86.2915 51.2686C85.5874 48.2638 83.9799 45.5205 81.958 43.1885C81.3777 42.5199 80.7167 41.8535 79.8608 41.6263C79.2546 41.4659 78.6108 41.5456 78.0036 41.7125C76.8074 42.0408 75.7082 42.6685 74.8167 43.532C74.1029 44.2242 73.4817 45.0791 73.2255 46.0534C73.0209 46.8351 73.0672 47.6985 73.4505 48.4091C73.8338 49.1197 74.7188 49.5073 75.4907 49.7054C75.7028 49.714 76.7622 50.066 76.7224 49.1154C76.7202 49.0529 77.152 49.5848 77.3285 49.9002C77.5051 50.2157 77.4265 50.3147 76.3262 50.1048C75.93 50.0283 74.1568 50.1705 74.7468 51.4635C74.8641 51.7219 75.0719 51.9264 75.3131 52.0761C76.3305 52.7102 77.602 52.5703 78.7497 52.8588C79.5292 53.0548 80.2559 53.4574 80.8362 54.013C80.9622 54.1335 81.086 54.2638 81.2464 54.3284C81.4596 54.4145 81.7007 54.3704 81.9268 54.3252C82.6794 54.1745 83.4373 54.0226 84.1501 53.7373C84.8628 53.452 85.5357 53.0225 86.0094 52.4325C86.0503 52.2268 86.1472 52.0373 86.2226 51.8414C86.2979 51.6454 86.3302 51.4387 86.2904 51.2708L86.2915 51.2686Z" fill="#6966B1"/>
<path d="M82.0801 53.0234C82.0801 53.0234 83.1716 52.4583 83.835 52.0307C84.5349 51.5795 85.5586 50.7656 85.5586 50.7656" stroke="#50325A" stroke-width="0.2" stroke-linecap="round"/>
<path d="M86.3676 51.5823C85.502 52.3833 84.5815 53.1251 83.6168 53.8034C83.5027 53.8831 83.478 54.0414 83.563 54.1512C83.9097 54.6001 84.7398 55.6714 85.0638 56.0719C85.1381 56.1634 85.2662 56.1903 85.3696 56.1343C86.3989 55.5712 87.3226 54.8155 88.0773 53.9175C88.1473 53.8346 88.1516 53.7141 88.0913 53.6247L86.7358 51.6243C86.6519 51.5005 86.4774 51.4811 86.3676 51.5834V51.5823Z" fill="#DDDBFB"/>
<path d="M73.2287 47.6082C73.251 47.3811 73.4497 46.9619 74.0666 47.1024C74.8377 47.2779 76.2926 48.4455 77.2626 49.724C78.144 50.8859 78.8278 51.8918 79.3568 52.5237" stroke="#50325A" stroke-width="0.2" stroke-linecap="round"/>
<path d="M45.5356 72.3883C44.8982 73.6501 44.7098 75.2596 44.0035 77.4947C43.4749 79.1678 43.6784 80.8183 43.841 82.4741C42.928 83.0447 41.4326 83.1061 40.3602 83.0114C39.2879 82.9166 38.25 82.4634 37.3693 81.6484C38.2813 80.969 38.6269 80.3123 39.0672 79.2636C39.5075 78.215 39.9629 76.2329 40.2117 75.1229C40.5616 73.5607 41.0084 72.5099 40.9222 70.9111C41.8524 69.8237 42.9151 68.8494 44.0789 68.0161C44.5096 67.7071 44.9833 67.4078 45.5119 67.3808C46.2472 67.3421 46.9481 67.889 47.1667 68.5921C47.3852 69.2951 47.1505 70.0972 46.6671 70.9273C46.272 71.3924 45.8177 71.8306 45.5367 72.3883H45.5356Z" fill="#FFA3A6"/>
<path d="M45.2242 73.2982C45.3201 73.5425 45.6021 73.6534 45.8454 73.5576C47.1697 73.0376 48.3066 72.1419 49.2508 71.0458C50.3921 69.7205 51.2168 68.1529 51.9198 66.552C52.1943 65.9275 52.457 65.2654 52.3989 64.585C52.3408 63.9056 51.8595 63.2134 51.1468 63.0971C51.2254 62.7741 51.2964 62.4436 51.2727 62.112C51.2491 61.7804 51.1209 61.4423 50.8625 61.2334C50.6042 61.0235 50.2047 60.9761 49.8828 61.1581C49.9366 60.8598 49.942 60.5465 49.8451 60.258C49.7482 59.9705 49.5404 59.7111 49.2573 59.6013C48.9741 59.4914 48.6199 59.556 48.3809 59.7369C48.3239 59.3203 48.1365 58.9079 47.8028 58.6527C47.469 58.3976 46.9759 58.3341 46.5345 58.4353C46.1114 57.9712 45.3696 57.9659 44.772 58.0014C44.1691 58.038 43.5705 58.123 42.9827 58.2662C42.2678 58.4406 41.5045 58.7141 41.0652 59.3149C40.739 59.7617 40.6356 60.328 40.5463 60.8749C40.0812 63.7377 39.7733 66.6446 39.9681 69.5386C40.0133 70.2104 40.1145 70.9414 40.8606 71.3473C41.0254 71.1632 41.301 71.1126 41.5443 71.1567C41.7876 71.2009 42.0073 71.3258 42.2226 71.4474C43.1399 71.9717 44.0582 72.495 44.9755 73.0193C45.0649 73.071 45.1424 73.1442 45.1919 73.2346C45.2038 73.2551 45.2135 73.2766 45.2221 73.2982H45.2242Z" fill="#EB7055"/>
<path d="M46.5148 66.0294C46.6487 64.8681 45.8149 63.8179 44.6525 63.6839C43.49 63.5498 42.439 64.3825 42.3051 65.5438C42.1711 66.7051 43.0049 67.7552 44.1674 67.8893C45.3298 68.0234 46.3808 67.1907 46.5148 66.0294Z" fill="white"/>
<mask id="mask2_1588_3708" style="mask-type:luminance" maskUnits="userSpaceOnUse" x="42" y="63" width="5" height="5">
<path d="M46.5157 66.0313C46.6497 64.87 45.8159 63.8199 44.6534 63.6858C43.491 63.5517 42.44 64.3844 42.306 65.5457C42.1721 66.707 43.0059 67.7571 44.1683 67.8912C45.3308 68.0253 46.3818 67.1926 46.5157 66.0313Z" fill="white"/>
</mask>
<g mask="url(#mask2_1588_3708)">
<path d="M42.6144 67.4674C42.6392 67.4104 42.6758 67.363 42.7156 67.3189C42.7221 67.3113 42.7328 67.3092 42.7414 67.3113C42.7705 67.3189 42.7996 67.3275 42.8286 67.3393C42.8566 67.3512 42.8846 67.3641 42.9115 67.3824C42.8792 67.3856 42.8491 67.3824 42.8179 67.3802C42.7877 67.377 42.7576 67.3706 42.7285 67.363L42.7544 67.3555C42.7134 67.3985 42.6693 67.4384 42.6133 67.4674H42.6144Z" fill="#FFA3A6"/>
<path d="M42.7328 67.704C42.7468 67.6491 42.7737 67.6028 42.8038 67.5597C42.8103 67.55 42.8221 67.5468 42.8329 67.55C42.8598 67.5587 42.8857 67.5673 42.9115 67.5791C42.9373 67.591 42.9621 67.6039 42.9858 67.6232C42.9556 67.6265 42.9276 67.6232 42.8997 67.62C42.8717 67.6168 42.8447 67.6093 42.8178 67.6017L42.8469 67.592C42.8146 67.634 42.7802 67.6739 42.7317 67.7051L42.7328 67.704Z" fill="#FFA3A6"/>
<path d="M42.8543 67.9129C42.8521 67.8612 42.8618 67.8127 42.8758 67.7665C42.879 67.7546 42.8909 67.7471 42.9038 67.7481H42.906C42.9361 67.7525 42.9662 67.76 42.9964 67.7697C43.0255 67.7804 43.0556 67.7912 43.0836 67.8084C43.0513 67.8149 43.0201 67.8138 42.9889 67.8138C42.9576 67.8117 42.9275 67.8074 42.8973 67.8009L42.9275 67.7837C42.9103 67.8289 42.8887 67.873 42.8564 67.9139L42.8543 67.9129Z" fill="#FFA3A6"/>
</g>
<path d="M42.666 67.0154C42.6837 66.5728 42.9302 65.815 43.6328 65.6013C45.0118 65.182 46.2734 66.6328 46.2734 66.6328" stroke="#50325A" stroke-width="0.2" stroke-linecap="round"/>
<path d="M42.6973 64.6439C42.6973 64.6439 43.3032 64.1999 43.7502 64.0456C44.2658 63.8675 45.137 63.8789 45.137 63.8789" stroke="#50325A" stroke-width="0.2" stroke-linecap="round"/>
<path d="M41.3266 70.0118C41.8755 69.6655 42.9364 68.7843 42.7895 68.0293C42.6059 67.0856 42.0574 66.1105 42.0269 65.0135C42.0025 64.1358 42.432 62.2885 42.0269 60.1678" stroke="#50325A" stroke-width="0.2" stroke-linecap="round"/>
<path d="M42.3169 59.4193C42.4892 59.4662 43.0547 59.4493 43.938 59.0072C44.8213 58.5652 45.3295 58.3052 45.4732 58.2305" stroke="#50325A" stroke-width="0.2" stroke-linecap="round"/>
<path d="M48.2739 67.0859C48.2739 67.0859 48.9161 65.7698 49.4623 65.0134C50.0149 64.2483 51.0766 63.2148 51.0766 63.2148" stroke="#50325A" stroke-width="0.2" stroke-linecap="round"/>
<path d="M47.0864 65.0742L49.8286 61.2949" stroke="#50325A" stroke-width="0.2" stroke-linecap="round"/>
<path d="M45.8364 63.582L48.3657 59.9551" stroke="#50325A" stroke-width="0.2" stroke-linecap="round"/>
<path d="M42.4848 63.125C42.4848 63.125 43.7808 61.7835 44.5562 60.93C45.3596 60.0456 46.5063 58.6758 46.5063 58.6758" stroke="#50325A" stroke-width="0.2" stroke-linecap="round"/>
<path d="M52.6366 49.2931C53.3673 45.9135 51.3185 42.6028 48.0604 41.8984C44.8023 41.1939 41.5688 43.3626 40.8381 46.7421C40.1074 50.1217 42.1563 53.4324 45.4143 54.1368C48.6724 54.8412 51.906 52.6726 52.6366 49.2931Z" fill="#EBCD69"/>
<mask id="mask3_1588_3708" style="mask-type:luminance" maskUnits="userSpaceOnUse" x="40" y="41" width="13" height="14">
<path d="M52.6368 49.297C53.3674 45.9174 51.3186 42.6067 48.0605 41.9023C44.8024 41.1978 41.5689 43.3665 40.8382 46.746C40.1075 50.1256 42.1564 53.4363 45.4144 54.1407C48.6725 54.8451 51.9061 52.6765 52.6368 49.297Z" fill="white"/>
</mask>
<g mask="url(#mask3_1588_3708)">
<path d="M45.9382 41.6085C44.9445 42.3105 43.7947 43.1029 42.999 44.0309C42.2034 44.959 41.6242 46.098 41.5876 47.305C41.2064 47.1402 40.8856 47.151 40.6423 46.8603C40.8415 45.5866 41.4918 44.44 42.3714 43.5088C43.251 42.5775 44.5655 41.8572 45.9382 41.6074V41.6085Z" fill="#8CC1E8"/>
<path d="M47.5618 52.252C45.8725 53.1251 43.8076 53.138 42.0785 52.365C42.6933 53.2198 43.4211 53.6311 44.4051 53.9789C45.3891 54.3266 46.6262 54.2674 47.6727 54.0456C47.705 53.3964 47.6501 53.0077 47.5629 52.252H47.5618Z" fill="#8CC1E8"/>
<path d="M48.645 41.6719C47.2841 42.0541 46.0266 42.8142 45.0447 43.8488C44.0629 44.8835 43.3598 46.1884 43.0304 47.5848C43.0304 47.5848 41.5985 47.3285 41.5855 47.3296C41.6038 46.0839 42.2111 44.905 43.0282 43.9748C43.8454 43.0446 44.866 42.3276 45.877 41.6191L48.645 41.6719Z" fill="white"/>
<path d="M47.5613 52.2534C46.7398 52.6883 45.619 53.0038 44.621 52.9435C43.623 52.8832 42.6572 52.5678 41.7345 52.1769C41.0832 51.9013 40.4243 51.5665 39.9979 50.9959C39.9979 50.9959 40.2832 49.1182 40.3026 49.0859C41.2135 49.8288 42.3138 50.3284 43.4658 50.5211C44.6188 50.7149 45.7891 50.6352 46.8905 50.2304L47.5602 52.2534H47.5613Z" fill="white"/>
<path d="M48.72 43.8027C49.8365 44.5714 50.7161 45.5684 51.3384 46.7861C51.9607 48.0037 52.3536 49.229 52.2772 50.5984C52.1168 51.6223 51.4902 52.5633 50.6052 53.0736C50.5438 53.0758 50.4825 53.079 50.4706 53.0919C50.5428 51.5932 50.1789 50.0967 49.5824 48.7272C48.9859 47.3578 48.1602 46.1046 47.2935 44.9009C47.638 44.4972 48.6619 43.8803 48.72 43.8027Z" fill="white"/>
<path d="M47.2797 44.9112C49.6451 48.5061 50.4321 50.1404 50.4709 53.2045C49.7818 53.9786 48.6815 54.4416 47.6598 54.3511C47.874 50.8047 45.5033 47.633 45.5776 47.4661C46.0965 46.3087 47.2797 44.9102 47.2797 44.9102V44.9112Z" fill="#8CC1E8"/>
</g>
<path d="M32.0224 61.2461C34.559 58.9507 37.0944 56.6564 39.6342 54.3395C39.9863 53.9594 40.5397 53.8238 41.0575 53.8464C41.5754 53.8701 42.2838 54.0316 42.7877 54.1543C43.6059 54.3545 45.0195 54.5516 46.2426 54.3772C46.9714 54.2738 45.3468 53.6364 45.2058 53.5837C43.7911 53.0507 43.397 52.9216 42.2687 52.1798C42.258 51.8029 42.6509 51.3981 42.9072 51.102C43.2269 50.7338 44.2077 49.7229 43.9504 49.3245C43.7792 49.0597 43.2581 49.2804 42.9804 49.43C42.2364 49.8305 41.7401 50.0513 41.0963 50.4894C41.4106 48.9865 41.7186 48.7948 42.3387 48.0487C42.5433 47.8022 42.5626 47.4038 42.4001 47.2434C42.0695 46.915 41.4925 47.3058 41.2987 47.4652C41.4602 47.0938 41.6131 46.844 41.7218 46.4532C41.7616 46.3121 41.837 45.9934 41.7455 45.8782C41.5517 45.6338 41.3353 45.7749 41.0338 45.9633C41.2169 45.8266 41.2481 45.7038 41.3202 45.4874C41.3644 45.3539 41.4053 45.046 41.1759 45.0449C41.0069 45.0449 40.8853 45.1397 40.7851 45.2753C40.0541 46.2766 39.5147 47.4167 39.2036 48.6161C39.0151 49.3439 38.901 50.1137 38.4908 50.7435C38.1377 51.2872 37.5951 51.6759 37.06 52.0409C35.2609 53.2682 33.3865 54.3836 31.4497 55.3795C30.9049 55.6594 30.3246 55.9577 30.0156 56.4874C29.7077 57.0149 29.7335 57.6663 29.7744 58.2756C29.8132 58.8462 29.8606 59.4255 30.0619 59.9606C30.2632 60.4956 30.6411 60.9909 32.0203 61.2471L32.0224 61.2461Z" fill="#FFA3A6"/>
<path d="M40.3889 51.2422C40.3889 51.2422 40.5679 50.9962 40.7014 50.8536C40.8439 50.7014 41.0959 50.5 41.0959 50.5" stroke="#50325A" stroke-width="0.2" stroke-linecap="round"/>
<path d="M40.0412 48.8066C40.0412 48.8066 40.3631 48.3893 40.6172 48.1246C40.8618 47.8698 41.299 47.4824 41.299 47.4824" stroke="#50325A" stroke-width="0.2" stroke-linecap="round"/>
<path d="M39.551 47.8477C39.551 47.8477 39.9221 47.2563 40.2051 46.9113C40.5714 46.4649 40.9853 46.0957 40.9853 46.0957" stroke="#50325A" stroke-width="0.2" stroke-linecap="round"/>
</g>
<path d="M94.804 76.8828C94.804 82.4057 90.3269 86.8828 84.804 86.8828C79.2812 86.8828 74.804 82.4057 74.804 76.8828C74.804 71.36 79.2812 66.8828 84.804 66.8828C90.3269 66.8828 94.804 71.36 94.804 76.8828Z" fill="white" stroke="#EB7055" stroke-width="2"/>
<path fill-rule="evenodd" clip-rule="evenodd" d="M89.3228 73.7512C89.7118 73.3591 89.7093 72.7259 89.3172 72.337C88.9251 71.948 88.292 71.9505 87.903 72.3426L84.8043 75.4661L81.7056 72.3426C81.3166 71.9505 80.6835 71.948 80.2914 72.337C79.8993 72.7259 79.8968 73.3591 80.2858 73.7512L83.3957 76.886L80.2856 80.021C79.8966 80.413 79.8991 81.0462 80.2912 81.4352C80.6833 81.8241 81.3165 81.8216 81.7054 81.4295L84.8043 78.3059L87.9032 81.4295C88.2921 81.8216 88.9253 81.8241 89.3174 81.4352C89.7095 81.0462 89.712 80.413 89.323 80.021L86.2129 76.886L89.3228 73.7512Z" fill="#EB7055"/>
</g>
<defs>
<filter id="filter0_d_1588_3708" x="0.360388" y="0.488526" width="124.279" height="123.908" filterUnits="userSpaceOnUse" color-interpolation-filters="sRGB">
<feFlood flood-opacity="0" result="BackgroundImageFix"/>
<feColorMatrix in="SourceAlpha" type="matrix" values="0 0 0 0 0 0 0 0 0 0 0 0 0 0 0 0 0 0 127 0" result="hardAlpha"/>
<feOffset dy="7.2089"/>
<feGaussianBlur stdDeviation="14.4178"/>
<feComposite in2="hardAlpha" operator="out"/>
<feColorMatrix type="matrix" values="0 0 0 0 0.411765 0 0 0 0 0.4 0 0 0 0 0.694118 0 0 0 0.16 0"/>
<feBlend mode="normal" in2="BackgroundImageFix" result="effect1_dropShadow_1588_3708"/>
<feBlend mode="normal" in="SourceGraphic" in2="effect1_dropShadow_1588_3708" result="shape"/>
</filter>
</defs>
</svg>
