<svg width="125" height="125" viewBox="0 0 125 125" fill="none" xmlns="http://www.w3.org/2000/svg">
<g filter="url(#filter0_d_2750_6100)">
<circle cx="62.4607" cy="55.1177" r="30.6177" fill="#FDF6ED" stroke="white" stroke-width="5"/>
<mask id="mask0_2750_6100" style="mask-type:alpha" maskUnits="userSpaceOnUse" x="34" y="27" width="57" height="57">
<circle cx="62.1667" cy="55.1177" r="28.1177" fill="#EB7055"/>
</mask>
<g mask="url(#mask0_2750_6100)">
<path d="M79.2073 48.8398C79.2073 48.8398 84.0559 49.0319 83.0034 50.3762C82.2581 51.3244 80.4891 50.8523 80.4891 50.8523C80.4891 50.8523 80.1369 57.87 79.0353 58.174C76.9182 58.7582 76.6561 51.8486 79.2073 48.8438V48.8398Z" fill="#FCA397"/>
<path d="M42.9249 39.0646C41.9585 38.8365 40.9265 38.9286 40.0543 39.4007C39.2926 39.8128 38.5227 40.5569 38.1255 41.8893C37.1713 45.086 38.2606 46.1143 36.2131 47.1345C34.1656 48.1547 33.1746 47.2825 31.6225 50.1832C30.0705 53.0839 31.4546 57.3529 35.4023 56.9528C39.3499 56.5527 48.9815 55.0844 48.9815 55.0844L50.9635 41.6372L46.4262 39.8968L42.9167 39.0686L42.9249 39.0646Z" fill="#FFEFBA"/>
<path d="M90.8297 54.3641C90.8297 54.3641 85.2113 60.2095 81.3169 59.6974C78.8312 59.3693 77.5863 53.908 77.5863 53.908L82.828 51.5234L90.8297 54.3681V54.3641Z" fill="#FCA397"/>
<path d="M84.2826 56.8931L79.9726 54.8211C79.514 54.6006 79.3252 54.0586 79.5508 53.6106L83.9334 44.9087C84.1591 44.4606 84.7138 44.2761 85.1724 44.4966L89.4824 46.5686C89.941 46.7891 90.1298 47.3311 89.9042 47.7792L85.5216 56.481C85.2959 56.9291 84.7412 57.1136 84.2826 56.8931Z" fill="#50325A"/>
<path d="M50.9724 51.464C50.9724 51.464 55.1904 52.0522 57.9177 56.9013C60.6491 61.7505 62.9382 75.1216 62.5205 75.5417C62.1028 75.9658 52.9954 77.2301 45.4441 77.2301C37.8928 77.2301 35.53 76.95 34.8011 76.5259C34.0721 76.1018 34.2605 53.2765 38.4416 51.46C42.6226 49.6436 46.4843 50.0077 50.9684 51.46L50.9724 51.464Z" fill="#EB7055"/>
<path d="M83.6263 56.5806L79.3164 54.5086C78.8577 54.2881 78.6689 53.7461 78.8946 53.2981L83.2771 44.5962C83.5028 44.1481 84.0575 43.9636 84.5161 44.1841L88.8261 46.2561C89.2847 46.4766 89.4736 47.0186 89.2479 47.4667L84.8653 56.1685C84.6397 56.6166 84.085 56.8011 83.6263 56.5806Z" fill="#9B69AC"/>
<path d="M82.8235 54.4763C82.6228 54.8724 82.1683 55.0525 81.8079 54.8804C81.4476 54.7084 81.3124 54.2443 81.5131 53.8482C81.7137 53.4521 82.1683 53.2721 82.5287 53.4441C82.889 53.6161 83.0242 54.0802 82.8235 54.4763Z" fill="#50325A"/>
<path d="M89.5598 53.1271C89.5598 53.1271 92.3035 53.8553 91.98 52.3629C91.6524 50.8706 87.1396 48.454 86.0667 49.6423C84.9938 50.8306 89.5639 53.1271 89.5639 53.1271H89.5598Z" fill="#FCA397"/>
<path d="M88.4128 55.131C88.4128 55.131 91.1565 55.8592 90.8289 54.3668C90.5013 52.8745 85.9886 50.4579 84.9156 51.6462C83.8427 52.8345 88.4128 55.131 88.4128 55.131Z" fill="#FCA397"/>
<path d="M86.1686 56.3081C86.6559 56.7122 87.2374 57.0042 87.8681 57.1043C88.4332 57.1963 88.9901 57.1163 88.9615 56.4441C88.9082 55.0918 85.3414 52.3231 84.2235 53.1993C83.3922 53.8515 85.194 55.5079 86.1686 56.3081Z" fill="#FCA397"/>
<path d="M90.3786 53.0925C90.4523 53.0925 90.526 53.0524 90.5629 52.9804C90.612 52.8804 90.5711 52.7604 90.4687 52.7124L86.9429 51.032C86.8405 50.984 86.7176 51.024 86.6685 51.124C86.6194 51.224 86.6603 51.344 86.7627 51.3921L90.2885 53.0724C90.3172 53.0845 90.3499 53.0925 90.3786 53.0925Z" fill="#50325A"/>
<path d="M88.8923 55.0651C88.966 55.0651 89.0397 55.0251 89.0766 54.9531C89.1257 54.8531 89.0848 54.733 88.9824 54.685L85.4565 53.0046C85.3542 52.9566 85.2313 52.9966 85.1822 53.0966C85.133 53.1967 85.174 53.3167 85.2763 53.3647L88.8022 55.0451C88.8309 55.0571 88.8636 55.0651 88.8923 55.0651Z" fill="#50325A"/>
<path d="M79.2076 48.8388C79.2076 48.8388 83.3109 48.3787 83.0037 50.3751C82.8276 51.5234 79.2404 51.3794 79.2404 51.3794L79.2076 48.8388Z" fill="#FCA397"/>
<path d="M76.2463 53.5882L83.4781 60.6819C83.4781 60.6819 79.0596 69.2279 69.2151 70.4722C59.3705 71.7165 53.6743 65.6191 53.6743 65.6191L52.0199 51.6758C52.0199 51.6758 62.663 56.3489 66.4796 56.833C70.2962 57.3131 76.2504 53.5882 76.2504 53.5882H76.2463Z" fill="#EB7055"/>
<path d="M52.0208 51.6794C52.0208 51.6794 58.6466 61.8258 59.9529 68.3913C61.2633 74.9569 61.5172 80.9143 61.5172 80.9143L37.4997 81.9945L37.0165 61.8858L39.5554 51.3033L46.5743 50.3711L52.0208 51.6714V51.6794Z" fill="#50325A"/>
<path d="M52.0208 51.6797C52.0208 51.6797 55.3992 63.8946 56.1117 68.1636C56.8243 72.4326 56.9717 76.5095 56.9717 76.5095L61.3903 75.8654L59.7031 65.847L53.6752 53.032L52.0208 51.6797Z" fill="#EB7055"/>
<path d="M54.7764 43.1312C54.7764 43.1312 56.9713 40.3945 56.9713 39.1102C56.9713 35.9495 52.737 33.2969 48.0891 34.2771C43.4412 35.2573 41.9056 40.5906 42.3356 43.0352C43.4371 49.3247 49.1211 47.8043 49.1211 47.8043C49.1211 47.8043 57.7576 47.1922 54.7764 43.1352V43.1312Z" fill="#FFEFBA"/>
<path d="M52.5366 49.4702L52.5161 49.5822L52.0206 51.6827L51.6397 53.3311C51.6397 53.3311 51.7134 53.7432 49.756 53.2631C47.1352 52.6069 46.4922 51.3426 46.4922 51.3426L47.1106 47.4297L47.8887 47.7258L52.5406 49.4742L52.5366 49.4702Z" fill="#FCA397"/>
<path d="M52.5162 49.5791L52.0207 51.6796C50.7595 51.2955 48.5154 50.3273 47.9421 48.1748C47.9011 47.9987 47.8765 47.8467 47.8847 47.7227L52.5121 49.5431V49.5751L52.5162 49.5791Z" fill="#50325A"/>
<path d="M55.2633 39.5911C55.2633 39.5911 56.6925 45.5525 55.2183 48.4932C53.7441 51.4339 50.9471 50.4257 49.3296 49.5175C47.712 48.6092 47.106 47.429 47.106 47.429C47.106 47.429 45.3901 47.673 44.5875 46.0126C43.7849 44.3522 44.7677 42.7839 45.7628 42.5638C46.7579 42.3438 47.7325 43.192 47.7325 43.192L47.1756 41.4356C47.1756 41.4356 52.3272 33.9378 55.2674 39.5991L55.2633 39.5911Z" fill="#FCA397"/>
<path d="M53.7203 46.5743C53.794 46.5743 53.8636 46.5343 53.9004 46.4663C54.5106 45.35 53.8881 43.9817 53.8636 43.9257C53.8185 43.8256 53.6957 43.7816 53.5933 43.8256C53.4909 43.8696 53.4459 43.9897 53.4909 44.0897C53.495 44.1017 54.056 45.338 53.5401 46.2782C53.4868 46.3742 53.5237 46.4983 53.6261 46.5503C53.6547 46.5663 53.6875 46.5743 53.7203 46.5743Z" fill="#50325A"/>
<path d="M47.0208 45.7488C47.0576 45.7488 47.0986 45.7368 47.1313 45.7168C47.2255 45.6568 47.2542 45.5328 47.1928 45.4407L45.9724 43.5683C45.911 43.4763 45.7841 43.4483 45.6899 43.5083C45.5957 43.5683 45.567 43.6923 45.6284 43.7843L46.8488 45.6568C46.8897 45.7168 46.9552 45.7488 47.0208 45.7488Z" fill="#50325A"/>
<path d="M46.5742 45.0651C46.6847 45.0651 46.7748 44.9811 46.7789 44.8731C46.7789 44.761 46.697 44.669 46.5824 44.665L45.4931 44.625C45.362 44.625 45.2842 44.709 45.2801 44.817C45.2801 44.9291 45.3661 45.0211 45.4767 45.0251L46.566 45.0651H46.5742Z" fill="#50325A"/>
<path d="M51.7871 47.9572C52.2867 47.9572 52.7167 47.6691 52.7453 47.6531C52.8027 47.6131 52.8354 47.5491 52.8313 47.481C52.8313 47.413 52.7904 47.349 52.7289 47.317L50.665 46.1887C50.5995 46.1527 50.5176 46.1567 50.4521 46.1967C50.3866 46.2368 50.3538 46.3088 50.362 46.3848C50.362 46.4208 50.4562 47.249 51.1155 47.7411C51.3325 47.9051 51.57 47.9612 51.7912 47.9612L51.7871 47.9572ZM52.1884 47.477C51.9509 47.5611 51.6233 47.6171 51.3571 47.417C51.1073 47.233 50.9599 46.9769 50.8739 46.7609L52.1843 47.477H52.1884Z" fill="#50325A"/>
<path d="M50.9723 41.8936C51.0337 41.8936 51.091 41.8656 51.132 41.8175C51.4719 41.3934 52.1148 41.6495 52.1434 41.6615C52.2458 41.7055 52.3687 41.6575 52.4096 41.5535C52.4547 41.4535 52.4055 41.3334 52.3032 41.2934C52.2663 41.2774 51.3449 40.9053 50.8085 41.5735C50.7388 41.6615 50.7552 41.7855 50.8453 41.8536C50.8822 41.8816 50.9272 41.8976 50.9723 41.8976V41.8936Z" fill="#50325A"/>
<path d="M55.4402 42.0689C55.4852 42.0689 55.5262 42.0569 55.5671 42.0289C55.6572 41.9609 55.6736 41.8369 55.604 41.7488C55.5876 41.7288 55.1986 41.2447 54.6908 41.2127C54.4369 41.1967 54.2076 41.2887 53.9987 41.4888C53.9168 41.5648 53.9168 41.6928 53.9987 41.7728C54.0765 41.8529 54.2076 41.8529 54.2895 41.7728C54.4082 41.6568 54.5352 41.6008 54.6621 41.6128C54.9324 41.6288 55.1986 41.8969 55.2805 41.9969C55.3214 42.0489 55.3828 42.0729 55.4402 42.0729V42.0689Z" fill="#50325A"/>
<path d="M54.7316 44.3832C54.8422 44.3832 54.9323 44.2992 54.9364 44.1912L54.9773 43.227L55.4032 42.8749C55.4892 42.8029 55.5015 42.6788 55.4278 42.5908C55.3541 42.5068 55.223 42.4948 55.1411 42.5668L54.6456 42.9749C54.6006 43.0109 54.576 43.0629 54.5719 43.1189L54.5269 44.1712C54.5228 44.2832 54.6088 44.3752 54.7234 44.3792H54.7316V44.3832Z" fill="#50325A"/>
<path d="M51.5655 44.046C51.6719 44.046 51.762 43.966 51.7702 43.8579L51.8316 42.9057L52.4418 42.5056C52.536 42.4456 52.5606 42.3216 52.4991 42.2296C52.4377 42.1375 52.3108 42.1135 52.2166 42.1735L51.5204 42.6297C51.4672 42.6657 51.4344 42.7217 51.4303 42.7817L51.3648 43.8339C51.3566 43.946 51.4426 44.038 51.5573 44.046C51.5614 44.046 51.5655 44.046 51.5696 44.046H51.5655Z" fill="#50325A"/>
<path d="M45.4848 37.4747C45.4848 37.4747 47.0204 30.8972 42.2661 31.0012C37.2291 31.1092 40.8082 39.4152 44.0147 39.4152C45.4438 39.4152 45.4807 37.4747 45.4807 37.4747H45.4848Z" fill="#FFEFBA"/>
<path d="M51.4221 62.878C51.4221 62.878 53.0151 54.7201 53.8382 53.8359C54.6613 52.9517 60.0668 50.6192 60.7589 51.2633C61.4469 51.9035 60.7466 52.7116 60.7466 52.7116C60.7466 52.7116 61.7745 52.1395 62.1635 52.7397C62.5525 53.3398 61.799 54.276 61.799 54.276C61.799 54.276 62.618 53.7719 62.5116 54.8882C62.4051 56.0044 60.1569 58.0529 60.1569 58.0529C60.1569 58.0529 60.0259 60.3374 58.5885 62.794C57.1511 65.2506 52.7735 65.3586 52.7735 65.3586L51.4221 62.878Z" fill="#FCA397"/>
<path d="M56.4469 54.9664C56.4797 54.9664 56.5124 54.9584 56.5411 54.9423L60.8286 52.7578C60.9269 52.7058 60.9679 52.5858 60.9146 52.4898C60.8614 52.3937 60.7385 52.3537 60.6403 52.4057L56.3527 54.5903C56.2545 54.6423 56.2135 54.7623 56.2667 54.8583C56.3036 54.9263 56.3732 54.9664 56.4469 54.9664Z" fill="#50325A"/>
<path d="M57.6056 57.0397C57.6425 57.0397 57.6793 57.0317 57.7162 57.0077L61.9095 54.4431C62.0037 54.3831 62.0324 54.2591 61.975 54.167C61.9136 54.075 61.7867 54.047 61.6925 54.103L57.4991 56.6676C57.405 56.7276 57.3763 56.8517 57.4336 56.9437C57.4705 57.0037 57.5401 57.0357 57.6056 57.0357V57.0397Z" fill="#50325A"/>
<path d="M52.0199 53.8741C52.1264 53.8741 52.2165 53.7941 52.2247 53.686C52.2329 53.574 52.1469 53.482 52.0322 53.474C52.0035 53.474 49.1165 53.2779 46.938 51.6696C46.8479 51.6015 46.7209 51.6216 46.6513 51.7096C46.5817 51.7976 46.6022 51.9216 46.6923 51.9896C48.9732 53.674 51.8848 53.8661 52.0076 53.8741C52.0117 53.8741 52.0158 53.8741 52.0199 53.8741Z" fill="#50325A"/>
<path d="M58.5885 65.8529C58.5885 65.8529 51.3648 81.8927 40.3532 81.0765C29.3416 80.2603 30.2507 59.9915 33.711 55.1904C37.1672 50.3892 42.0772 50.4493 42.0772 50.4493L46.5736 62.7962L50.251 59.7354L58.5885 65.8569V65.8529Z" fill="#EB7055"/>
<path d="M46.5739 50.3789C46.5739 50.3789 52.7534 76.8691 51.5658 77.0092C50.3782 77.1492 40.9883 77.5933 40.9883 77.5933L42.0776 50.4469L46.5739 50.3829V50.3789Z" fill="#EB7055"/>
<path d="M42.9255 39.2641C43.0197 39.2641 43.1056 39.2001 43.1261 39.1041C43.7486 36.2514 45.8493 35.4272 45.8739 35.4192C45.9804 35.3792 46.0336 35.2632 45.9927 35.1591C45.9517 35.0551 45.833 35.0071 45.7306 35.0431C45.6364 35.0791 43.4005 35.9433 42.7289 39.0161C42.7043 39.1241 42.778 39.2321 42.8845 39.2521C42.9009 39.2521 42.9132 39.2561 42.9296 39.2561L42.9255 39.2641Z" fill="#EB7055"/>
<path d="M39.6202 69.2391C39.6694 69.2391 39.7185 69.2231 39.7595 69.187L48.6621 61.0771C48.744 61.0011 48.7481 60.8771 48.6703 60.7931C48.5925 60.7131 48.4656 60.709 48.3796 60.7851L39.4769 68.895C39.395 68.971 39.3909 69.095 39.4687 69.179C39.5097 69.2231 39.5629 69.2431 39.6202 69.2431V69.2391Z" fill="#50325A"/>
<path d="M39.4075 66.5222C41.0292 66.5222 43.0317 65.966 43.3715 65.87C43.4616 65.846 43.5231 65.762 43.519 65.67C43.5149 65.578 43.4494 65.5019 43.3593 65.4819C42.4788 65.2859 38.0644 64.3497 37.3969 65.1739C37.3068 65.2859 37.2249 65.4819 37.3682 65.766C37.6548 66.3341 38.4657 66.5222 39.4075 66.5222ZM42.4379 65.702C40.5746 66.1381 38.1504 66.4101 37.7408 65.594C37.6835 65.4779 37.7122 65.4419 37.7204 65.4259C38.0193 65.0578 40.2225 65.2659 42.4379 65.702Z" fill="#50325A"/>
<path d="M66.189 61.4502C66.2955 61.4502 66.4265 61.4182 66.578 61.3342C68.2283 60.4339 66.7295 56.9051 66.6681 56.7571C66.6353 56.6771 66.5616 56.629 66.4674 56.633C66.3815 56.637 66.3077 56.6971 66.2832 56.7771C66.0088 57.7093 65.1775 60.794 65.8941 61.3462C65.9638 61.3982 66.062 61.4462 66.1931 61.4462L66.189 61.4502ZM66.5084 57.4892C66.8974 58.6295 67.2987 60.4819 66.3774 60.9861C66.3241 61.0141 66.1972 61.0781 66.1439 61.0341C65.8368 60.798 66.0825 59.1136 66.5084 57.4852V57.4892Z" fill="#50325A"/>
<path d="M61.7458 70.2389C61.7458 70.2389 61.7703 70.2389 61.7826 70.2389C61.8932 70.2189 61.9669 70.1149 61.9464 70.0069L61.2298 66.222C61.2093 66.1139 61.0987 66.0419 60.9923 66.0619C60.8817 66.0819 60.808 66.186 60.8285 66.294L61.5451 70.0789C61.5615 70.1749 61.6475 70.2429 61.7458 70.2429V70.2389Z" fill="#50325A"/>
<path d="M52.6266 36.9102C52.6266 36.9102 53.2326 37.8784 53.163 39.3227L53.0934 40.7671L46.8116 41.8353L47.0163 38.9466L52.6225 36.9102H52.6266Z" fill="#FFEFBA"/>
<path d="M53.0198 37.9187C53.0198 37.9187 53.503 38.4308 53.675 39.0669C53.847 39.7031 53.9617 40.9434 53.9617 40.9434H55.743L55.8864 37.9187L53.675 36.2383H52.2213V38.1987L53.0198 37.9227V37.9187Z" fill="#FFEFBA"/>
</g>
<path d="M94.951 76.7656C94.951 82.2885 90.4738 86.7656 84.951 86.7656C79.4281 86.7656 74.951 82.2885 74.951 76.7656C74.951 71.2428 79.4281 66.7656 84.951 66.7656C90.4738 66.7656 94.951 71.2428 94.951 76.7656Z" fill="white" stroke="#EB7055" stroke-width="2"/>
<path fill-rule="evenodd" clip-rule="evenodd" d="M89.4698 73.634C89.8588 73.2419 89.8562 72.6087 89.4642 72.2198C89.0721 71.8308 88.4389 71.8333 88.05 72.2254L84.9513 75.3489L81.8525 72.2254C81.4636 71.8333 80.8304 71.8308 80.4383 72.2198C80.0463 72.6087 80.0437 73.2419 80.4327 73.634L83.5426 76.7688L80.4325 79.9038C80.0436 80.2958 80.0461 80.929 80.4382 81.318C80.8302 81.7069 81.4634 81.7044 81.8524 81.3123L84.9513 78.1887L88.0501 81.3123C88.4391 81.7044 89.0723 81.7069 89.4643 81.318C89.8564 80.929 89.8589 80.2958 89.47 79.9038L86.3599 76.7688L89.4698 73.634Z" fill="#EB7055"/>
</g>
<defs>
<filter id="filter0_d_2750_6100" x="0.507345" y="0.373291" width="124.279" height="123.906" filterUnits="userSpaceOnUse" color-interpolation-filters="sRGB">
<feFlood flood-opacity="0" result="BackgroundImageFix"/>
<feColorMatrix in="SourceAlpha" type="matrix" values="0 0 0 0 0 0 0 0 0 0 0 0 0 0 0 0 0 0 127 0" result="hardAlpha"/>
<feOffset dy="7.2089"/>
<feGaussianBlur stdDeviation="14.4178"/>
<feComposite in2="hardAlpha" operator="out"/>
<feColorMatrix type="matrix" values="0 0 0 0 0.411765 0 0 0 0 0.4 0 0 0 0 0.694118 0 0 0 0.16 0"/>
<feBlend mode="normal" in2="BackgroundImageFix" result="effect1_dropShadow_2750_6100"/>
<feBlend mode="normal" in="SourceGraphic" in2="effect1_dropShadow_2750_6100" result="shape"/>
</filter>
</defs>
</svg>
