<svg width="26" height="26" viewBox="0 0 26 26" fill="none" xmlns="http://www.w3.org/2000/svg">
<path fill-rule="evenodd" clip-rule="evenodd" d="M18.2667 0.116211H7.72979V2.43162H18.2667V0.116211ZM21.3711 15.1963C21.3711 19.8196 17.6232 23.5674 13 23.5674C8.37676 23.5674 4.62889 19.8196 4.62889 15.1963C4.62889 10.5731 8.37676 6.8252 13 6.8252C17.6232 6.8252 21.3711 10.5731 21.3711 15.1963ZM23.6865 15.1963C23.6865 21.0983 18.902 25.8828 13 25.8828C7.098 25.8828 2.31348 21.0983 2.31348 15.1963C2.31348 9.29431 7.098 4.50979 13 4.50979C18.902 4.50979 23.6865 9.29431 23.6865 15.1963Z" fill="black"/>
</svg>
