<svg width="114" height="115" viewBox="0 0 114 115" fill="none" xmlns="http://www.w3.org/2000/svg">
<path d="M36.8638 31.9508V25.9218C36.8638 14.9193 45.7831 6 56.7857 6V6C67.7882 6 76.7075 14.9193 76.7075 25.9218V31.9508" stroke="#EB7055" stroke-width="10.4852"/>
<rect x="23.7575" y="30.3809" width="66.0566" height="53.4744" rx="10.4852" fill="#FFA08B"/>
<path d="M59.5816 68.2767H54.0059C53.483 68.2767 53.0875 67.8038 53.1799 67.2892L54.3353 60.8517C54.6474 59.1129 54.0347 57.3368 52.717 56.1603C50.1406 53.8599 50.5581 49.7153 53.5415 47.975L54.0971 47.6509C55.8471 46.63 58.0142 46.6434 59.7514 47.6858L60.195 47.9519C63.1525 49.7264 63.5791 53.843 61.0483 56.1863C59.7873 57.3539 59.1882 59.0715 59.4495 60.7702L60.4489 67.2658C60.5306 67.7973 60.1194 68.2767 59.5816 68.2767Z" fill="#EB7055"/>
<path fill-rule="evenodd" clip-rule="evenodd" d="M20.9731 57.3848C9.77176 57.3848 0.691284 66.4652 0.691284 77.6666C0.691284 88.8679 9.77177 97.9484 20.9731 97.9484H32.1809V112.936C32.1809 113.894 33.3449 114.367 34.0132 113.681L49.3319 97.9484H93.0269C104.228 97.9484 113.309 88.8679 113.309 77.6666C113.309 66.4652 104.228 57.3848 93.0269 57.3848H20.9731Z" fill="#7DBE91"/>
<path fill-rule="evenodd" clip-rule="evenodd" d="M21.8404 68.5904C21.8404 68.2956 22.0793 68.0566 22.3741 68.0566H25.0427C25.3375 68.0566 25.5765 68.2956 25.5765 68.5904V73.3855L29.4779 71.0019C29.7294 70.8482 30.0579 70.9276 30.2116 71.1791L31.6029 73.4564C31.7566 73.708 31.6772 74.0364 31.4257 74.1901L27.1712 76.7894L31.7426 79.5822C31.9942 79.7359 32.0735 80.0644 31.9198 80.316L30.5285 82.5932C30.3749 82.8448 30.0464 82.9241 29.7948 82.7704L25.5765 80.1933V85.1361C25.5765 85.4308 25.3375 85.6698 25.0427 85.6698H22.3741C22.0793 85.6698 21.8404 85.4308 21.8404 85.1361V80.0463L17.3065 82.8162C17.055 82.9699 16.7265 82.8905 16.5728 82.639L15.1815 80.3617C15.0278 80.1102 15.1072 79.7817 15.3587 79.628L20.005 76.7894L15.6756 74.1444C15.4241 73.9907 15.3448 73.6622 15.4985 73.4107L16.8897 71.1334C17.0434 70.8818 17.3719 70.8025 17.6235 70.9562L21.8404 73.5325V68.5904Z" fill="white"/>
<path fill-rule="evenodd" clip-rule="evenodd" d="M44.0727 68.5904C44.0727 68.2956 44.3117 68.0566 44.6064 68.0566H47.2751C47.5699 68.0566 47.8088 68.2956 47.8088 68.5904V73.3855L51.7102 71.0019C51.9618 70.8482 52.2903 70.9276 52.444 71.1791L53.8353 73.4564C53.9889 73.708 53.9096 74.0364 53.6581 74.1901L49.4036 76.7894L53.975 79.5822C54.2265 79.7359 54.3059 80.0644 54.1522 80.316L52.7609 82.5932C52.6072 82.8448 52.2787 82.9241 52.0272 82.7704L47.8088 80.1933V85.1361C47.8088 85.4308 47.5699 85.6698 47.2751 85.6698H44.6064C44.3117 85.6698 44.0727 85.4308 44.0727 85.1361V80.0462L39.5389 82.8162C39.2873 82.9699 38.9588 82.8905 38.8052 82.639L37.4139 80.3617C37.2602 80.1102 37.3395 79.7817 37.5911 79.628L42.2373 76.7894L37.908 74.1444C37.6565 73.9907 37.5771 73.6622 37.7308 73.4107L39.1221 71.1334C39.2758 70.8818 39.6043 70.8025 39.8558 70.9562L44.0727 73.5325V68.5904Z" fill="white"/>
<path fill-rule="evenodd" clip-rule="evenodd" d="M66.3051 68.5904C66.3051 68.2956 66.544 68.0566 66.8388 68.0566H69.5075C69.8022 68.0566 70.0412 68.2956 70.0412 68.5904V73.3855L73.9426 71.0019C74.1941 70.8482 74.5226 70.9276 74.6763 71.1791L76.0676 73.4564C76.2213 73.708 76.142 74.0364 75.8904 74.1901L71.636 76.7894L76.2074 79.5822C76.4589 79.7359 76.5382 80.0644 76.3846 80.316L74.9933 82.5932C74.8396 82.8448 74.5111 82.9241 74.2595 82.7704L70.0412 80.1933V85.1361C70.0412 85.4308 69.8022 85.6698 69.5075 85.6698H66.8388C66.544 85.6698 66.3051 85.4308 66.3051 85.1361V80.0462L61.7712 82.8162C61.5197 82.9699 61.1912 82.8905 61.0375 82.639L59.6462 80.3617C59.4925 80.1102 59.5719 79.7817 59.8234 79.628L64.4697 76.7894L60.1404 74.1444C59.8888 73.9907 59.8095 73.6622 59.9632 73.4107L61.3545 71.1334C61.5082 70.8818 61.8366 70.8025 62.0882 70.9562L66.3051 73.5325V68.5904Z" fill="white"/>
<path fill-rule="evenodd" clip-rule="evenodd" d="M88.5374 68.5904C88.5374 68.2956 88.7764 68.0566 89.0712 68.0566H91.7398C92.0346 68.0566 92.2736 68.2956 92.2736 68.5904V73.3855L96.175 71.0019C96.4265 70.8482 96.755 70.9276 96.9087 71.1791L98.3 73.4564C98.4537 73.708 98.3743 74.0364 98.1228 74.1901L93.8683 76.7894L98.4397 79.5822C98.6913 79.7359 98.7706 80.0644 98.6169 80.316L97.2256 82.5932C97.0719 82.8448 96.7434 82.9241 96.4919 82.7704L92.2736 80.1933V85.1361C92.2736 85.4308 92.0346 85.6698 91.7398 85.6698H89.0712C88.7764 85.6698 88.5374 85.4308 88.5374 85.1361V80.0463L84.0036 82.8162C83.7521 82.9699 83.4236 82.8905 83.2699 82.639L81.8786 80.3617C81.7249 80.1102 81.8042 79.7817 82.0558 79.628L86.702 76.7894L82.3727 74.1444C82.1212 73.9907 82.0419 73.6622 82.1955 73.4107L83.5868 71.1334C83.7405 70.8818 84.069 70.8025 84.3205 70.9562L88.5374 73.5325V68.5904Z" fill="white"/>
</svg>
