<svg width="15" height="14" viewBox="0 0 15 14" fill="none" xmlns="http://www.w3.org/2000/svg">
<path d="M7.44733 9.56653C8.53252 9.56653 9.41224 8.68681 9.41224 7.60163C9.41224 6.51644 8.53252 5.63672 7.44733 5.63672C6.36214 5.63672 5.48242 6.51644 5.48242 7.60163C5.48242 8.68681 6.36214 9.56653 7.44733 9.56653Z" stroke="#8782AA" stroke-width="1.2"/>
<path d="M5.99214 12.8403C3.94798 12.8403 2.92558 12.8403 2.19136 12.3589C1.87304 12.1499 1.60058 11.882 1.38837 11.5703C0.897794 10.8491 0.897794 9.84574 0.897794 7.83891C0.897794 5.83143 0.607795 4.24809 2.19136 3.31897C2.87172 2.91978 3.25437 2.89848 4.15823 2.85918C4.58985 2.85918 4.96122 2.53825 5.04571 2.12234C5.17278 1.49947 5.73016 1.05081 6.37726 1.05081H8.5177C8.82911 1.04872 9.13169 1.15421 9.3743 1.34945C9.61692 1.54468 9.78469 1.81769 9.84926 2.12234C9.93375 2.53825 10.3051 2.85918 10.7367 2.85918C11.6413 2.89848 12.0233 2.91978 12.7036 3.31897C14.2872 4.24809 13.9972 5.83143 13.9972 7.83891C13.9972 9.84574 13.9972 10.8498 13.5066 11.5703C13.2933 11.8833 13.0204 12.1512 12.7036 12.3589C11.9694 12.8403 11.4387 12.8403 9.39453 12.8403" stroke="#8782AA" stroke-width="1.2" stroke-linecap="round"/>
<path d="M12.0319 5.63672H11.377" stroke="#8782AA" stroke-width="1.2" stroke-linecap="round"/>
</svg>
