<svg width="63" height="62" viewBox="0 0 63 62" fill="none" xmlns="http://www.w3.org/2000/svg">
<g filter="url(#filter0_d_1798_3034)">
<circle cx="31.4474" cy="26.9474" r="10.9474" fill="white"/>
</g>
<path d="M31.4473 29.5665C32.5325 29.5665 33.4122 28.6868 33.4122 27.6016C33.4122 26.5164 32.5325 25.6367 31.4473 25.6367C30.3621 25.6367 29.4824 26.5164 29.4824 27.6016C29.4824 28.6868 30.3621 29.5665 31.4473 29.5665Z" stroke="#8782AA" stroke-width="1.2"/>
<path d="M29.9921 32.8403C27.948 32.8403 26.9256 32.8403 26.1914 32.3589C25.873 32.1499 25.6006 31.882 25.3884 31.5703C24.8978 30.8491 24.8978 29.8457 24.8978 27.8389C24.8978 25.8314 24.6078 24.2481 26.1914 23.319C26.8717 22.9198 27.2544 22.8985 28.1582 22.8592C28.5899 22.8592 28.9612 22.5382 29.0457 22.1223C29.1728 21.4995 29.7302 21.0508 30.3773 21.0508H32.5177C32.8291 21.0487 33.1317 21.1542 33.3743 21.3494C33.6169 21.5447 33.7847 21.8177 33.8493 22.1223C33.9337 22.5382 34.3051 22.8592 34.7367 22.8592C35.6413 22.8985 36.0233 22.9198 36.7036 23.319C38.2872 24.2481 37.9972 25.8314 37.9972 27.8389C37.9972 29.8457 37.9972 30.8498 37.5066 31.5703C37.2933 31.8833 37.0204 32.1512 36.7036 32.3589C35.9694 32.8403 35.4387 32.8403 33.3945 32.8403" stroke="#8782AA" stroke-width="1.2" stroke-linecap="round"/>
<path d="M36.0319 25.6367H35.377" stroke="#8782AA" stroke-width="1.2" stroke-linecap="round"/>
<defs>
<filter id="filter0_d_1798_3034" x="0.5" y="0" width="61.8947" height="61.8945" filterUnits="userSpaceOnUse" color-interpolation-filters="sRGB">
<feFlood flood-opacity="0" result="BackgroundImageFix"/>
<feColorMatrix in="SourceAlpha" type="matrix" values="0 0 0 0 0 0 0 0 0 0 0 0 0 0 0 0 0 0 127 0" result="hardAlpha"/>
<feOffset dy="4"/>
<feGaussianBlur stdDeviation="10"/>
<feComposite in2="hardAlpha" operator="out"/>
<feColorMatrix type="matrix" values="0 0 0 0 0.411765 0 0 0 0 0.4 0 0 0 0 0.694118 0 0 0 0.16 0"/>
<feBlend mode="normal" in2="BackgroundImageFix" result="effect1_dropShadow_1798_3034"/>
<feBlend mode="normal" in="SourceGraphic" in2="effect1_dropShadow_1798_3034" result="shape"/>
</filter>
</defs>
</svg>
