<svg width="30" height="30" viewBox="0 0 30 30" fill="none" xmlns="http://www.w3.org/2000/svg">
<path d="M29.4 15C29.4 22.9529 22.9529 29.4 15 29.4C7.0471 29.4 0.6 22.9529 0.6 15C0.6 7.0471 7.0471 0.6 15 0.6C22.9529 0.6 29.4 7.0471 29.4 15Z" stroke="white" stroke-width="1.2"/>
<path fill-rule="evenodd" clip-rule="evenodd" d="M14.4093 21.4347C14.4093 21.7661 14.678 22.0347 15.0093 22.0347C15.3407 22.0347 15.6093 21.7661 15.6093 21.4347V15.6052H21.4386C21.77 15.6052 22.0386 15.3366 22.0386 15.0052C22.0386 14.6738 21.77 14.4052 21.4386 14.4052H15.6093V8.57754C15.6093 8.24617 15.3407 7.97754 15.0093 7.97754C14.678 7.97754 14.4093 8.24617 14.4093 8.57754V14.4052H8.58145C8.25007 14.4052 7.98145 14.6738 7.98145 15.0052C7.98145 15.3366 8.25007 15.6052 8.58145 15.6052H14.4093V21.4347Z" fill="white"/>
</svg>
