<svg width="21" height="20" viewBox="0 0 21 20" fill="none" xmlns="http://www.w3.org/2000/svg">
<path fill-rule="evenodd" clip-rule="evenodd" d="M7.17307 4.95366C7.17307 3.2031 8.59218 1.78398 10.3427 1.78398C12.0933 1.78398 13.5124 3.2031 13.5124 4.95366V7.22054H7.17307V4.95366ZM5.97307 7.22054V4.95366C5.97307 2.54035 7.92944 0.583984 10.3427 0.583984C12.756 0.583984 14.7124 2.54035 14.7124 4.95366V7.22054H15.3431C16.7791 7.22054 17.9431 8.3846 17.9431 9.82054V16.8166C17.9431 18.2526 16.7791 19.4166 15.3431 19.4166H5.34313C3.90719 19.4166 2.74313 18.2526 2.74313 16.8166V14.311C2.74313 13.9796 3.01176 13.711 3.34313 13.711C3.6745 13.711 3.94313 13.9796 3.94313 14.311V16.8166C3.94313 17.5898 4.56993 18.2166 5.34313 18.2166H15.3431C16.1163 18.2166 16.7431 17.5898 16.7431 16.8166V9.82054C16.7431 9.04734 16.1163 8.42054 15.3431 8.42054H5.34313C4.56994 8.42054 3.94313 9.04734 3.94313 9.82054V10.0288C3.94313 10.3602 3.6745 10.6288 3.34313 10.6288C3.01176 10.6288 2.74313 10.3602 2.74313 10.0288V9.82054C2.74313 8.3846 3.90719 7.22054 5.34313 7.22054H5.97307Z" fill="#50325A"/>
</svg>
