<svg width="91" height="115" viewBox="0 0 91 115" fill="none" xmlns="http://www.w3.org/2000/svg">
<path d="M69.3654 13.4512L28.633 13.4512C24.2988 13.4512 20.7852 16.9648 20.7852 21.299L20.7852 105.472C20.7852 109.807 24.2988 113.32 28.633 113.32H69.3654C73.6997 113.32 77.2133 109.807 77.2133 105.472L77.2133 21.299C77.2133 16.9648 73.6997 13.4512 69.3654 13.4512Z" fill="#50325A"/>
<path d="M22.3947 13.9512L63.1272 13.9512C67.1853 13.9512 70.475 17.2409 70.475 21.299L70.475 105.472C70.475 109.531 67.1853 112.82 63.1272 112.82H22.3947C18.3366 112.82 15.0469 109.531 15.0469 105.472L15.0469 21.299C15.0469 17.2409 18.3366 13.9512 22.3947 13.9512Z" fill="white" stroke="#50325A"/>
<circle cx="42.7617" cy="103.117" r="5" fill="#50325A"/>
<rect x="20.002" y="30.7871" width="46.0824" height="10.7716" rx="2.0117" fill="#F0F1F6"/>
<rect x="23.2344" y="34.0801" width="36.8506" height="1.00585" rx="0.502925" fill="#50325A"/>
<rect x="23.2344" y="37.2598" width="21.0575" height="1.00585" rx="0.502925" fill="#50325A"/>
<rect x="20.002" y="60.3809" width="46.0824" height="10.7716" rx="2.0117" fill="#F0F1F6"/>
<rect x="23.2344" y="63.6719" width="36.8506" height="1.00585" rx="0.502925" fill="#50325A"/>
<rect x="23.2344" y="66.8516" width="21.0575" height="1.00585" rx="0.502925" fill="#50325A"/>
<rect x="0.992188" y="46.8652" width="46.0824" height="10.7716" rx="2.0117" transform="rotate(-7.32387 0.992188 46.8652)" fill="#7DBE91"/>
<rect x="4.80469" y="49.6953" width="36.8506" height="1.00585" rx="0.502925" transform="rotate(-7.32387 4.80469 49.6953)" fill="#50325A"/>
<rect x="5.21094" y="52.8516" width="21.0575" height="1.00585" rx="0.502925" transform="rotate(-7.32387 5.21094 52.8516)" fill="#50325A"/>
<rect x="20.002" y="75.0176" width="46.0824" height="10.7716" rx="2.0117" fill="#F0F1F6"/>
<rect x="23.2344" y="78.3105" width="36.8506" height="1.00585" rx="0.502925" fill="#50325A"/>
<rect x="23.2344" y="81.4902" width="21.0575" height="1.00585" rx="0.502925" fill="#50325A"/>
</svg>
