<svg width="59" height="119" viewBox="0 0 59 119" fill="none" xmlns="http://www.w3.org/2000/svg">
<path d="M46.2156 9.78125C46.4272 10.162 47.6238 13.3772 46.1794 16.6226C44.7349 19.8681 41.145 17.6078 41.145 17.6078V11.6246L46.2156 9.78125Z" fill="#BC6242"/>
<path d="M33.645 36.6799C33.645 36.6799 38.6491 37.6952 42.7346 35.0965C46.8141 32.4977 45.7142 16.6211 45.7142 16.6211H39.4227L35.724 25.336L33.645 36.6859V36.6799Z" fill="#BC6242"/>
<path d="M33.5181 102.414V107.491L43.073 107.128V102.414H33.5181Z" fill="#BC6242"/>
<path d="M11.4531 101.84V106.916L20.295 106.56V101.84H11.4531Z" fill="#BC6242"/>
<path d="M30.6651 45.8772C30.6651 45.8772 37.5608 56.798 41.6463 74.2883C45.3753 90.2374 46.1791 103.431 46.1791 103.431H30.0546C30.0546 103.431 28.2597 90.4248 27.7822 85.2816C27.3048 80.1385 25.7153 73.2488 25.7153 73.2488C25.7153 73.2488 23.5034 102.929 22.9776 103.437C22.4518 103.944 7.01633 103.545 7.17951 102.869C7.34269 102.186 10.431 55.3838 10.854 52.1384C12.1413 42.1603 30.6711 45.8892 30.6711 45.8892L30.6651 45.8772Z" fill="#F87F65"/>
<path d="M22.4938 115.308C22.4938 116.202 22.1916 117.23 21.5752 117.49C20.9587 117.75 15.9727 118.287 11.6032 117.907C7.42706 117.544 6.55677 117.236 6.24855 116.855C6.09746 116.662 6.39359 115.767 6.72599 114.897C6.75017 114.855 6.76225 114.806 6.78039 114.758C6.94961 114.323 7.13092 113.9 7.25783 113.598C7.38475 113.314 7.54188 113.036 7.72924 112.776C8.18251 112.153 9.07697 110.86 9.30662 110.195C9.6088 109.307 10.0681 107.385 10.3763 106.484C10.6846 105.596 11.44 105.408 11.44 105.408C11.44 105.408 20.0341 104.822 20.6505 105.336C21.2609 105.844 21.5691 110.074 21.5691 110.709V111.349C21.5691 111.942 21.9801 113.12 22.24 114.093C22.3125 114.335 22.3669 114.565 22.4092 114.776C22.4515 114.982 22.4817 115.163 22.4817 115.314L22.4938 115.308Z" fill="#50325A"/>
<path d="M58.4539 117.133C57.8798 117.369 33.4877 118.034 32.9256 117.133C32.7564 116.861 32.6295 115.937 32.5509 114.776C32.3515 112.038 32.3515 107.965 32.3515 107.965C32.3515 107.965 32.1702 106.575 32.2065 105.928C32.2367 105.288 43.9674 105.535 43.9674 105.535L51.5944 111.549C51.5944 111.549 53.6855 111.174 55.9761 111.549C57.1848 111.742 57.9705 113.229 58.3572 114.625C58.7017 115.864 58.732 117.018 58.46 117.133H58.4539Z" fill="#50325A"/>
<path d="M58.4543 117.133C57.8801 117.369 33.488 118.034 32.926 117.133C32.7568 116.861 32.6298 115.936 32.5513 114.776C37.1867 115.108 48.5971 115.731 58.3576 114.625C58.7021 115.864 58.7323 117.018 58.4603 117.133H58.4543Z" fill="#F2D6D0"/>
<path d="M22.4938 115.309C22.4938 116.203 22.1916 117.23 21.5752 117.49C20.9587 117.75 15.9727 118.288 11.6032 117.907C7.42706 117.545 6.55677 117.236 6.24855 116.856C6.09746 116.662 6.39359 115.768 6.72599 114.898C10.606 115.194 17.6045 115.46 22.246 114.094C22.3186 114.335 22.373 114.565 22.4153 114.777C22.4576 114.982 22.4878 115.163 22.4878 115.315L22.4938 115.309Z" fill="#F2D6D0"/>
<path d="M25.7154 73.4215C25.6005 73.4154 25.528 73.3248 25.534 73.2281C25.534 73.1616 26.0417 66.7735 26.1868 63.939C26.3318 61.1106 26.3378 59.7568 26.3378 59.7447C26.3378 59.6722 26.3801 59.6118 26.4466 59.5816L31.6683 57.2548C31.759 57.2125 31.8678 57.2548 31.904 57.3454C31.9463 57.4361 31.904 57.5449 31.8134 57.5811L26.6944 59.8596C26.6944 60.2464 26.6642 61.582 26.5433 63.9572C26.3983 66.7916 25.8967 73.1918 25.8906 73.2523C25.8846 73.349 25.806 73.4154 25.7093 73.4154L25.7154 73.4215Z" fill="#50325A"/>
<path d="M11.6702 109.844C11.5917 109.844 11.5192 109.789 11.495 109.711C11.4708 109.614 11.5252 109.517 11.6219 109.493C11.7609 109.457 15.0788 108.568 16.8436 108.877L17.877 109.052C16.9342 108.363 15.0184 107.148 13.8339 107.656C13.7432 107.692 13.6344 107.656 13.5982 107.559C13.5619 107.468 13.5982 107.366 13.6949 107.323C15.514 106.544 18.5418 109.1 18.6748 109.209C18.7352 109.263 18.7534 109.348 18.7232 109.421C18.6869 109.493 18.6144 109.535 18.5298 109.523L16.7892 109.227C15.1091 108.937 11.7549 109.832 11.7246 109.838C11.7065 109.838 11.6944 109.844 11.6763 109.844H11.6702Z" fill="#FFBA57"/>
<path d="M49.7631 110.289L45.3996 109.842C45.3331 109.836 45.2787 109.793 45.2545 109.733C45.2303 109.673 45.2424 109.6 45.2847 109.552L46.8017 107.769C46.8682 107.696 46.9769 107.684 47.0555 107.751C47.128 107.817 47.1401 107.926 47.0736 108.005L45.7803 109.528L49.7872 109.938C49.8839 109.951 49.9565 110.035 49.9444 110.138C49.9323 110.229 49.8598 110.301 49.7691 110.301L49.7631 110.289Z" fill="#FFBA57"/>
<path d="M18.5837 21.0612C18.5837 21.0612 13.8274 21.043 11.2588 23.5451C8.69027 26.0471 10.8478 50.5239 10.8478 50.5239C10.8478 50.5239 19.7199 51.5634 24.579 50.5239C29.438 49.4843 32.4417 47.363 32.4417 47.363C32.4417 47.363 30.8764 24.6571 29.5408 22.2457C28.2051 19.8343 18.5897 21.0551 18.5897 21.0551L18.5837 21.0612Z" fill="#8B87E1"/>
<path d="M17.6408 19.3073L17.665 22.3835C17.665 22.3835 18.8374 23.3566 20.3242 23.3566C22.3307 23.3566 23.0076 21.8034 23.0076 21.8034L22.929 18.1953L17.6348 19.3073H17.6408Z" fill="#BC6242"/>
<path d="M17.6411 19.2249C17.6411 19.2249 18.8559 21.7149 21.1222 21.3342C22.9535 21.032 22.9353 18.4453 22.9353 18.4453L17.6411 19.2189V19.2249Z" fill="#50325A"/>
<path d="M23.7087 10.3626C23.7087 10.3626 24.8631 15.8502 23.1165 18.5155C21.3699 21.1807 19.031 20.4434 17.9794 19.6638C16.5531 18.6061 16.2388 17.1134 16.2388 17.1134C16.2388 17.1134 14.3109 17.5304 13.6401 15.9651C12.9329 14.3212 14.1175 12.9614 15.0845 12.8707C16.0515 12.774 16.1663 12.9493 16.1663 12.9493L15.852 11.1846C15.852 11.1846 21.6176 4.55469 23.7087 10.3687V10.3626Z" fill="#BC6242"/>
<path d="M22.8205 12.9528C22.8205 12.9528 25.7275 11.6534 25.9934 13.9198C26.3016 16.5427 23.1589 16.6213 23.1589 16.6213L22.8145 12.9528H22.8205Z" fill="#BC6242"/>
<path d="M24.3128 15.3055C24.3128 15.3055 24.2524 15.2995 24.2282 15.2813C24.1436 15.233 24.1134 15.1242 24.1617 15.0396L25.1106 13.3474C25.1589 13.2628 25.2677 13.2325 25.3523 13.2809C25.437 13.3292 25.4672 13.438 25.4188 13.5226L24.47 15.2148C24.4398 15.2753 24.3733 15.3055 24.3128 15.3055Z" fill="#50325A"/>
<path d="M15.8893 15.5067C15.847 15.5067 15.8107 15.4946 15.7745 15.4644L14.2636 14.2073C14.185 14.1469 14.1789 14.0321 14.2394 13.9535C14.3059 13.881 14.4147 13.8689 14.4932 13.9293L16.0041 15.1864C16.0827 15.2468 16.0887 15.3617 16.0283 15.4402C15.992 15.4825 15.9437 15.5067 15.8893 15.5067Z" fill="#50325A"/>
<path d="M14.5171 15.762C14.4627 15.762 14.4083 15.7378 14.3781 15.6955C14.3176 15.6169 14.3297 15.5021 14.4083 15.4417L15.2786 14.7648C15.3571 14.7043 15.4659 14.7164 15.5324 14.795C15.5928 14.8736 15.5807 14.9884 15.5022 15.0488L14.6319 15.7257C14.6017 15.7499 14.5594 15.762 14.5231 15.762H14.5171Z" fill="#50325A"/>
<path d="M25.4436 14.7845H24.6095C24.5128 14.7845 24.4282 14.7059 24.4282 14.6032C24.4282 14.5004 24.5068 14.4219 24.6095 14.4219H25.4436C25.5403 14.4219 25.6249 14.5004 25.6249 14.6032C25.6249 14.7059 25.5463 14.7845 25.4436 14.7845Z" fill="#50325A"/>
<path d="M19.0371 14.0753C18.9465 14.0753 18.8679 14.0089 18.8619 13.9122L18.7591 12.9694C18.747 12.8727 18.8196 12.782 18.9163 12.7699C19.013 12.7639 19.1036 12.8303 19.1157 12.927L19.2184 13.8699C19.2305 13.9666 19.158 14.0572 19.0613 14.0693C19.0553 14.0693 19.0492 14.0693 19.0432 14.0693L19.0371 14.0753Z" fill="#50325A"/>
<path d="M22.6514 13.7081C22.5607 13.7081 22.4822 13.6417 22.4761 13.545L22.3734 12.6022C22.3613 12.5055 22.4338 12.4148 22.5305 12.4027C22.6272 12.3967 22.7179 12.4632 22.73 12.5599L22.8327 13.5027C22.8448 13.5994 22.7723 13.69 22.6756 13.7021C22.6695 13.7021 22.6635 13.7021 22.6574 13.7021L22.6514 13.7081Z" fill="#50325A"/>
<path d="M21.1101 16.2598C20.9832 16.2417 20.9167 16.1511 20.9349 16.0544C21.1404 14.6583 20.6387 13.516 20.6327 13.51C20.5904 13.4193 20.6327 13.3106 20.7233 13.2743C20.814 13.232 20.9167 13.2743 20.959 13.3649C20.9832 13.4133 21.5151 14.6039 21.2914 16.1148C21.2794 16.2055 21.2008 16.2659 21.1162 16.2659L21.1101 16.2598Z" fill="#50325A"/>
<path d="M22.8268 11.9874C22.8268 11.9874 22.7724 11.9814 22.7421 11.9693C22.3795 11.7819 21.8296 11.9209 21.8235 11.9209C21.7268 11.9451 21.6301 11.8847 21.6059 11.794C21.5818 11.6973 21.6422 11.6006 21.7329 11.5765C21.7631 11.5704 22.4218 11.4012 22.9053 11.655C22.996 11.7034 23.0262 11.8061 22.9839 11.8968C22.9537 11.9572 22.8872 11.9935 22.8268 11.9935V11.9874Z" fill="#50325A"/>
<path d="M18.2697 12.4369C18.2274 12.4369 18.179 12.4188 18.1428 12.3825C18.0702 12.316 18.0702 12.2012 18.1428 12.1287C18.5235 11.7419 19.2065 11.6875 19.2306 11.6875C19.3213 11.6875 19.4119 11.754 19.418 11.8567C19.424 11.9534 19.3515 12.038 19.2488 12.0501C19.2488 12.0501 18.6746 12.0924 18.3906 12.3825C18.3543 12.4188 18.312 12.4369 18.2636 12.4369H18.2697Z" fill="#50325A"/>
<path d="M17.0246 13.4323C17.0246 13.4323 18.4267 12.4835 18.3421 11.0451C18.2575 9.60673 17.9432 9.23806 17.9432 9.23806C17.9432 9.23806 19.3876 10.0056 21.1765 9.46168C23.2072 8.85127 24.3192 6.06516 23.2132 5.30366C21.9803 4.45755 18.9827 5.64815 18.9827 5.64815C18.9827 5.64815 15.8461 5.47288 13.7973 7.9689C11.7485 10.4589 14.0451 13.3961 14.0451 13.3961C14.0451 13.3961 14.6494 12.1088 17.0246 13.4263V13.4323Z" fill="#50325A"/>
<path d="M20.8202 17.7874C20.0225 17.7874 19.3818 17.1347 19.3516 17.1045C19.2851 17.032 19.2851 16.9232 19.3516 16.8506C19.4241 16.7842 19.539 16.7842 19.6054 16.8506C19.6115 16.8567 20.3609 17.6121 21.1224 17.3825C21.2191 17.3523 21.3158 17.4067 21.346 17.5034C21.3762 17.6001 21.3218 17.6967 21.2251 17.727C21.0861 17.7693 20.9471 17.7874 20.8142 17.7874H20.8202Z" fill="#50325A"/>
<path d="M22.6514 7.08026C22.6514 7.08026 23.9992 8.31316 24.3134 9.81198C24.6277 11.3108 24.3134 12.586 24.3134 12.586H24.0113C24.0113 12.586 23.286 8.9417 22.1075 8.60326C20.935 8.27086 22.6514 7.07422 22.6514 7.07422V7.08026Z" fill="#50325A"/>
<path d="M15.2964 21.5352C15.2964 21.5352 7.24631 22.2 3.75914 27.8024C0.271963 33.3988 0 38.4331 0 38.4331L12.5405 36.6805L15.2964 21.5352Z" fill="#8B87E1"/>
<path d="M28.731 36.6814L35.2883 36.9594L35.7235 25.3315C35.7235 25.3315 29.287 21.2641 26.6761 20.9499C24.0713 20.6356 28.731 36.6754 28.731 36.6754V36.6814Z" fill="#8B87E1"/>
<path d="M1.52846 38.2243C1.52846 38.2243 0.791132 47.5012 7.65065 46.5403C15.4348 45.4464 19.478 29.3824 19.478 29.3824L21.7988 27.9561C21.7988 27.9561 21.3516 29.7873 23.213 28.8022C25.0744 27.8171 24.6997 25.9678 24.6997 25.9678L22.524 22.2389C22.524 22.2389 25.7392 19.2533 24.7843 19.1022C23.3157 18.8725 18.7468 21.9185 18.7468 21.9185C18.7468 21.9185 19.0006 20.0813 17.9369 20.3835C16.7886 20.7098 16.3837 24.1003 16.3837 24.1003L4.18161 37.5897L1.52846 38.2243Z" fill="#BC6242"/>
<path d="M21.7997 28.1272C21.7453 28.1272 21.697 28.103 21.6607 28.0607C21.6063 28.0003 21.6063 27.9096 21.6547 27.8432L22.5068 26.6465C22.5612 26.568 22.6761 26.5438 22.7546 26.6042C22.8332 26.6647 22.8513 26.7734 22.7969 26.852L22.3376 27.4987L22.9964 27.1904C23.087 27.1481 23.1898 27.1904 23.2321 27.2751C23.2744 27.3657 23.2321 27.4745 23.1475 27.5108L21.8722 28.1091C21.8722 28.1091 21.8239 28.1272 21.7937 28.1272H21.7997Z" fill="#50325A"/>
<path d="M17.0068 23.5303C16.9524 23.5303 16.9041 23.5061 16.8678 23.4638C16.8074 23.3852 16.8134 23.2764 16.892 23.21L19.1281 21.3727C19.2067 21.3123 19.3155 21.3183 19.382 21.3969C19.4424 21.4754 19.4363 21.5842 19.3578 21.6507L17.1216 23.488C17.0854 23.5121 17.0491 23.5303 17.0068 23.5303Z" fill="#50325A"/>
<path d="M21.6962 22.9758C21.6357 22.9758 21.5813 22.9456 21.5451 22.8972C21.4907 22.8126 21.5088 22.7038 21.5934 22.6494L22.4214 22.0934C22.506 22.039 22.6148 22.0572 22.6692 22.1418C22.7236 22.2264 22.7055 22.3352 22.6208 22.3896L21.7929 22.9456C21.7627 22.9637 21.7264 22.9758 21.6901 22.9758H21.6962Z" fill="#50325A"/>
<path d="M11.67 57.5216C11.6156 57.5216 11.5551 57.4974 11.5249 57.4431C11.4705 57.3645 11.4887 57.2497 11.5672 57.1953C14.2506 55.3278 14.9517 52.6021 14.9577 52.5719C14.9819 52.4752 15.0786 52.4148 15.1753 52.4389C15.272 52.4631 15.3324 52.5598 15.3082 52.6565C15.278 52.7713 14.5709 55.5333 11.7727 57.4854C11.7425 57.5095 11.7062 57.5156 11.67 57.5156V57.5216Z" fill="#50325A"/>
<path d="M54.4845 0H43.3775C43.1512 0 42.9678 0.183433 42.9678 0.409707V14.5903C42.9678 14.8166 43.1512 15 43.3775 15H54.4845C54.7108 15 54.8942 14.8166 54.8942 14.5903V0.409707C54.8942 0.183433 54.7108 0 54.4845 0Z" fill="#EB7055"/>
<path d="M53.5167 0H42.4097C42.1834 0 42 0.183433 42 0.409707V14.5903C42 14.8166 42.1834 15 42.4097 15H53.5167C53.743 15 53.9264 14.8166 53.9264 14.5903V0.409707C53.9264 0.183433 53.743 0 53.5167 0Z" fill="#FFA08B"/>
<path d="M51.6466 3.65033H44.332C44.282 3.65033 44.2412 3.60959 44.2412 3.55954C44.2412 3.50949 44.282 3.46875 44.332 3.46875H51.6466C51.6967 3.46875 51.7374 3.50949 51.7374 3.55954C51.7374 3.60959 51.6967 3.65033 51.6466 3.65033Z" fill="#FDF6ED"/>
<path d="M51.6466 5.61518H44.332C44.282 5.61518 44.2412 5.57444 44.2412 5.52439C44.2412 5.47434 44.282 5.43359 44.332 5.43359H51.6466C51.6967 5.43359 51.7374 5.47434 51.7374 5.52439C51.7374 5.57444 51.6967 5.61518 51.6466 5.61518Z" fill="#FDF6ED"/>
<path d="M51.6466 7.59174H44.332C44.282 7.59174 44.2412 7.551 44.2412 7.50095C44.2412 7.4509 44.282 7.41016 44.332 7.41016H51.6466C51.6967 7.41016 51.7374 7.4509 51.7374 7.50095C51.7374 7.551 51.6967 7.59174 51.6466 7.59174Z" fill="#FDF6ED"/>
<path d="M51.6466 9.55623H44.332C44.282 9.55623 44.2412 9.51566 44.2412 9.46561C44.2412 9.41557 44.282 9.375 44.332 9.375H51.6466C51.6967 9.375 51.7374 9.41557 51.7374 9.46561C51.7374 9.51566 51.6967 9.55623 51.6466 9.55623Z" fill="#FDF6ED"/>
<path d="M51.5949 11.5367H44.2802C44.2302 11.5367 44.1895 11.4961 44.1895 11.4461C44.1895 11.396 44.2302 11.3555 44.2802 11.3555H51.5949C51.6449 11.3555 51.6857 11.396 51.6857 11.4461C51.6857 11.4961 51.6449 11.5367 51.5949 11.5367Z" fill="#FDF6ED"/>
<path d="M39.4162 17.1738C39.4162 17.1738 38.413 13.5899 39.108 12.4174C39.803 11.251 41.4952 10.0604 42.9578 10.3868C44.4204 10.7131 41.9546 12.7317 41.9546 12.7317C41.9546 12.7317 43.4957 16.1282 42.4924 17.7358C41.4892 19.3434 39.4102 17.1738 39.4102 17.1738H39.4162Z" fill="#BC6242"/>
<path d="M41.9425 18.4142C41.87 18.4142 41.8035 18.3719 41.7733 18.2994C41.737 18.2088 41.7854 18.106 41.8821 18.0698C42.8249 17.7253 42.6435 15.6946 42.4925 14.9452C42.4743 14.8485 42.5348 14.7518 42.6315 14.7337C42.7282 14.7155 42.8249 14.776 42.843 14.8727C42.8672 14.9936 43.4232 17.8885 42.0029 18.4082C41.9848 18.4142 41.9606 18.4203 41.9425 18.4203V18.4142Z" fill="#50325A"/>
</svg>
