<svg width="20" height="21" viewBox="0 0 20 21" fill="none" xmlns="http://www.w3.org/2000/svg">
<g clip-path="url(#clip0_1439_2435)">
<circle cx="10" cy="5" r="3.9" stroke="#50325A" stroke-width="1.2"/>
<path fill-rule="evenodd" clip-rule="evenodd" d="M15.7845 13.5107C15.5502 13.2764 15.1703 13.2764 14.936 13.5107C14.7016 13.745 14.7016 14.1249 14.936 14.3592L16.0655 15.4888L15.7569 15.4888C14.911 15.4887 13.8913 15.4887 13.1962 15.4889C12.5858 15.4892 12.0269 15.7612 11.6161 16.1466C11.2053 16.5318 10.9011 17.0682 10.8396 17.6605C10.77 18.3309 11.0168 18.9924 11.4297 19.4811C11.8451 19.9727 12.4688 20.3356 13.1965 20.3356C13.5278 20.3356 13.7965 20.067 13.7965 19.7356C13.7965 19.4042 13.5278 19.1356 13.1965 19.1356C12.8827 19.1356 12.5759 18.9784 12.3464 18.7067C12.1143 18.432 12.0018 18.0869 12.0332 17.7844C12.0607 17.5192 12.2054 17.239 12.4369 17.0219C12.6683 16.8049 12.945 16.689 13.1967 16.6889C13.8914 16.6887 14.9109 16.6887 15.7568 16.6888L16.0005 16.6888L14.936 17.7533C14.7016 17.9877 14.7016 18.3676 14.936 18.6019C15.1703 18.8362 15.5502 18.8362 15.7845 18.6019L17.8749 16.5115C18.1263 16.2601 18.1263 15.8525 17.8749 15.6011L15.7845 13.5107Z" fill="#50325A"/>
<path d="M9.36298 19.0869H3.8868C2.69761 19.0869 1.73887 18.128 1.99435 16.9666C2.27918 15.6717 2.89028 14.0274 4.1996 12.7618C6.03446 10.9884 7.77975 10.4551 10.3312 10.5029C12.1971 10.5378 13.329 10.8726 14.9137 11.8582" stroke="#50325A" stroke-width="1.2" stroke-linecap="round"/>
</g>
<defs>
<clipPath id="clip0_1439_2435">
<rect width="20" height="20" fill="white" transform="translate(0 0.5)"/>
</clipPath>
</defs>
</svg>
