<svg width="122" height="88" viewBox="0 0 122 88" fill="none" xmlns="http://www.w3.org/2000/svg">
<path d="M17.3327 0H108.504C110.97 0 112.972 2.00183 112.972 4.46751V62.4572H12.8652V4.46751C12.8652 2.00183 14.8671 0 17.3327 0Z" fill="#6E477B"/>
<path d="M106.091 6.41016H19.7322C18.1008 6.41016 16.7783 7.73267 16.7783 9.36408V53.7923C16.7783 55.4237 18.1008 56.7462 19.7322 56.7462H106.091C107.722 56.7462 109.045 55.4237 109.045 53.7923V9.36408C109.045 7.73267 107.722 6.41016 106.091 6.41016Z" fill="#FDF6ED"/>
<path d="M119.207 61.5977H7.64876C6.10634 61.5977 4.85596 62.848 4.85596 64.3905V64.5209C4.85596 66.0633 6.10634 67.3137 7.64876 67.3137H119.207C120.75 67.3137 122 66.0633 122 64.5209V64.3905C122 62.848 120.75 61.5977 119.207 61.5977Z" fill="#50325A"/>
<path d="M22.8711 18.4102H0.813636C0.364276 18.4102 0 18.7744 0 19.2238V47.3852C0 47.8345 0.364276 48.1988 0.813636 48.1988H22.8711C23.3205 48.1988 23.6848 47.8345 23.6848 47.3852V19.2238C23.6848 18.7744 23.3205 18.4102 22.8711 18.4102Z" fill="#6E477B"/>
<path d="M24.9483 18.4102H2.89079C2.44143 18.4102 2.07715 18.7744 2.07715 19.2238V47.3852C2.07715 47.8345 2.44143 48.1988 2.89079 48.1988H24.9483C25.3976 48.1988 25.7619 47.8345 25.7619 47.3852V19.2238C25.7619 18.7744 25.3976 18.4102 24.9483 18.4102Z" fill="#B37FC5"/>
<path d="M21.2358 25.6458H6.7096C6.61021 25.6458 6.5293 25.5649 6.5293 25.4655C6.5293 25.3661 6.61021 25.2852 6.7096 25.2852H21.2358C21.3352 25.2852 21.4161 25.3661 21.4161 25.4655C21.4161 25.5649 21.3352 25.6458 21.2358 25.6458Z" fill="#FDF6ED"/>
<path d="M21.2358 29.5637H6.7096C6.61021 29.5637 6.5293 29.4828 6.5293 29.3834C6.5293 29.284 6.61021 29.2031 6.7096 29.2031H21.2358C21.3352 29.2031 21.4161 29.284 21.4161 29.3834C21.4161 29.4828 21.3352 29.5637 21.2358 29.5637Z" fill="#FDF6ED"/>
<path d="M21.2358 33.4856H6.7096C6.61021 33.4856 6.5293 33.4047 6.5293 33.3053C6.5293 33.2059 6.61021 33.125 6.7096 33.125H21.2358C21.3352 33.125 21.4161 33.2059 21.4161 33.3053C21.4161 33.4047 21.3352 33.4856 21.2358 33.4856Z" fill="#FDF6ED"/>
<path d="M21.2358 37.4029H6.7096C6.61021 37.4029 6.5293 37.3223 6.5293 37.2229C6.5293 37.1235 6.61021 37.043 6.7096 37.043H21.2358C21.3352 37.043 21.4161 37.1235 21.4161 37.2229C21.4161 37.3223 21.3352 37.4029 21.2358 37.4029Z" fill="#FDF6ED"/>
<path d="M21.1284 41.3287H6.60218C6.50278 41.3287 6.42188 41.2481 6.42188 41.1487C6.42188 41.0493 6.50278 40.9688 6.60218 40.9688H21.1284C21.2278 40.9688 21.3087 41.0493 21.3087 41.1487C21.3087 41.2481 21.2278 41.3287 21.1284 41.3287Z" fill="#FDF6ED"/>
<path d="M13.2617 56.1898C13.2387 56.1898 13.2157 56.1794 13.2011 56.1588C13.177 56.1253 13.1847 56.0786 13.2178 56.0545C14.6125 55.0473 14.9772 53.5794 14.9811 53.5651C14.9909 53.5254 15.031 53.4999 15.0711 53.51C15.1112 53.5195 15.1359 53.5599 15.1262 53.6C15.1115 53.6621 14.7467 55.1349 13.3053 56.1759C13.2921 56.1857 13.2767 56.1902 13.2617 56.1902V56.1898Z" fill="white"/>
<path d="M82.4682 69.9204L82.0831 74.2102H73.8423V69.3516L82.4682 69.9204Z" fill="#FFA98F"/>
<path d="M67.769 71.9025L66.937 76.2048L57.8667 74.0533L59.4512 69.3516L67.769 71.9025Z" fill="#FFA98F"/>
<path d="M57.6777 13.1769C57.6777 13.1769 55.5143 11.1916 52.434 12.8124C49.3537 14.4326 49.7375 19.0462 49.7375 19.0462C49.7375 19.0462 46.4997 20.1932 46.2334 24.1555C45.9677 28.1178 50.5138 29.6586 50.5138 29.6586L58.2559 28.4391C58.2559 28.4391 59.801 26.1351 59.7898 26.0501C59.7785 25.9651 60.0967 16.4216 60.0967 16.4216L57.6777 13.1775V13.1769Z" fill="#50325A"/>
<path d="M72.8181 44.9668C72.8181 44.9668 71.4473 29.8934 65.8624 27.5794C58.5435 24.5466 51.5146 27.6519 51.5146 27.6519L51.9128 47.4952L72.8181 44.9662V44.9668Z" fill="#8B87E1"/>
<path d="M69.3911 44.8623C69.3911 44.8623 81.3092 41.962 84.5771 46.9976C87.8449 52.0331 83.2751 71.2507 83.2751 71.2507H72.3008L69.3911 44.8623Z" fill="#8CC1E8"/>
<path d="M42.4126 49.2333C42.4126 49.2333 39.9311 60.7638 44.9041 62.6203C49.8771 64.4767 61.3408 62.2752 61.3408 62.2752L56.6897 70.4823L71.6481 74.9134C71.6481 74.9134 84.0694 52.4842 76.5093 46.5067C68.9485 40.5292 53.0349 49.2333 53.0349 49.2333H42.4126Z" fill="#8CC1E8"/>
<path d="M82.7206 71.9023C82.7206 71.9023 85.5728 75.2677 86.236 75.5877C86.8992 75.9071 93.8137 78.2361 95.14 79.5344C96.4664 80.8327 96.5608 83.3848 96.182 83.6242C95.8032 83.8636 73.0565 83.6242 73.0565 83.6242L72.8184 72.6556L82.7206 71.9023Z" fill="#50325A"/>
<path d="M68.298 74.3919C68.298 74.3919 69.4587 78.9011 70.3945 79.3755C71.3302 79.85 75.3543 82.3752 77.5414 84.6686C79.3748 86.5913 77.5414 87.6951 77.5414 87.6951H64.8689L53.9746 79.6918L57.8663 71.3672L68.298 74.3913V74.3919Z" fill="#50325A"/>
<path d="M58.6114 23.1016L58.1069 26.3332C58.1069 26.3332 58.6207 27.382 60.7341 27.9246C62.3086 28.329 62.9174 28.1121 62.9174 28.1121L62.9512 26.435L62.9818 24.7992L59.2402 23.346L58.6126 23.1016H58.6114Z" fill="#FEBDC6"/>
<path d="M59.2356 23.3516C59.2281 23.4534 59.2456 23.5778 59.2819 23.7235C59.7907 25.6937 61.9659 26.4694 62.8741 26.7088L62.9622 24.8617L59.2356 23.3522V23.3516Z" fill="#50325A"/>
<path d="M65.2005 16.6482C65.2005 16.6482 66.3431 21.57 65.1511 23.994C63.9591 26.418 61.7039 25.5823 60.4019 24.8291C59.0999 24.0752 58.6117 23.1001 58.6117 23.1001C58.6117 23.1001 57.2272 23.2995 56.5815 21.9269C55.9358 20.5542 56.7303 19.2628 57.5335 19.0828C58.336 18.9022 59.1205 19.6035 59.1205 19.6035L58.6736 18.1515C58.6736 18.1515 62.839 11.9708 65.2011 16.6482H65.2005Z" fill="#FEBDC6"/>
<path d="M63.9418 22.3773C63.9212 22.3773 63.9 22.3723 63.8806 22.3623C63.8168 22.3279 63.7931 22.2492 63.8268 22.1854C64.25 21.3928 63.7962 20.3583 63.7912 20.3477C63.7618 20.2821 63.7912 20.2046 63.8568 20.1752C63.9218 20.1464 63.9993 20.1752 64.0293 20.2408C64.0506 20.2877 64.5413 21.401 64.0568 22.3079C64.0331 22.3523 63.9875 22.3773 63.9412 22.3773H63.9418Z" fill="#50325A"/>
<path d="M58.5427 21.6874C58.4996 21.6874 58.4571 21.6661 58.4327 21.6267L57.4501 20.0797C57.4113 20.0184 57.4295 19.9384 57.4901 19.899C57.5501 19.8609 57.632 19.8784 57.6701 19.939L58.6527 21.4861C58.6915 21.5473 58.6734 21.6273 58.6127 21.6667C58.5915 21.6805 58.5665 21.6867 58.5427 21.6867V21.6874Z" fill="#50325A"/>
<path d="M58.182 21.1134C58.177 21.1134 57.2975 21.0777 57.2975 21.0777C57.2256 21.0746 57.1694 21.014 57.1725 20.9415C57.175 20.8696 57.235 20.8146 57.3081 20.8165L58.187 20.8521C58.2588 20.8552 58.3151 20.9158 58.312 20.9883C58.3095 21.0584 58.2513 21.1134 58.1813 21.1134H58.182Z" fill="#50325A"/>
<path d="M65.0112 43.0764C64.9837 43.0764 64.9562 43.0676 64.9331 43.0501C64.8756 43.0063 64.8637 42.9245 64.9068 42.867C64.9174 42.8526 65.9507 41.4712 66.7745 39.4279C68.0328 36.3057 66.7826 31.6258 66.7701 31.5789C66.7514 31.5095 66.792 31.4376 66.8614 31.4189C66.9302 31.3995 67.0027 31.4401 67.0214 31.5102C67.0746 31.7052 68.3078 36.3207 67.017 39.5254C66.1795 41.6025 65.1262 43.0095 65.1162 43.0239C65.09 43.0576 65.0512 43.0757 65.0118 43.0757L65.0112 43.0764Z" fill="#50325A"/>
<path d="M62.3831 23.51C62.2099 23.51 62.0274 23.4644 61.8574 23.3344C61.3361 22.9349 61.2667 22.2655 61.2642 22.2374C61.2598 22.1892 61.2823 22.1424 61.323 22.1155C61.363 22.0886 61.4155 22.0861 61.458 22.1111L63.1219 23.0443C63.1619 23.0662 63.1869 23.1068 63.1888 23.1518C63.1907 23.1962 63.17 23.2393 63.1325 23.265C63.1119 23.2794 62.7725 23.51 62.3831 23.51ZM61.5861 22.4824C61.6499 22.6793 61.7749 22.9437 62.0162 23.1281C62.2687 23.3212 62.585 23.2418 62.7856 23.1556L61.5861 22.4824Z" fill="#50325A"/>
<path d="M61.7339 18.5123C61.7057 18.5123 61.677 18.503 61.6532 18.4848C61.5963 18.4404 61.5863 18.3579 61.6307 18.3017C62.0464 17.7716 62.7633 18.0717 62.794 18.0835C62.8602 18.1117 62.8909 18.1885 62.8634 18.2548C62.8352 18.3204 62.7596 18.3523 62.6921 18.3242C62.669 18.3142 62.1283 18.091 61.837 18.4629C61.8107 18.4955 61.7726 18.513 61.7339 18.513V18.5123Z" fill="#50325A"/>
<path d="M65.3351 18.6582C65.2958 18.6582 65.2576 18.6407 65.232 18.6076C65.2301 18.6045 64.987 18.2957 64.7094 18.2769C64.5919 18.2694 64.4844 18.3157 64.3813 18.4182C64.3294 18.4701 64.2469 18.4682 64.1969 18.4182C64.1456 18.3669 64.1463 18.2844 64.1969 18.2338C64.3557 18.0769 64.5294 18.005 64.7276 18.0169C65.1226 18.0438 65.4258 18.4313 65.4383 18.4482C65.4827 18.5051 65.4714 18.587 65.4152 18.6313C65.3914 18.6495 65.3626 18.6588 65.3351 18.6588V18.6582Z" fill="#50325A"/>
<path d="M64.7626 20.5649C64.6845 20.5618 64.6288 20.5006 64.632 20.4281L64.6707 19.5592C64.6726 19.523 64.6895 19.4892 64.717 19.4655L65.1164 19.1285C65.1708 19.0823 65.2545 19.0885 65.3002 19.1435C65.347 19.1992 65.3402 19.2811 65.2852 19.3273L64.9295 19.628L64.8939 20.4393C64.8907 20.5087 64.8326 20.5637 64.7632 20.5637L64.7626 20.5649Z" fill="#50325A"/>
<path d="M62.2099 20.2881C62.1293 20.2831 62.0749 20.2212 62.0799 20.1493L62.1355 19.2817C62.1374 19.2411 62.1593 19.2036 62.193 19.1811L62.755 18.8067C62.815 18.7673 62.8956 18.7835 62.9362 18.8429C62.9762 18.9029 62.9594 18.9842 62.9 19.0242L62.3918 19.363L62.3399 20.1655C62.3356 20.2349 62.2787 20.2881 62.2099 20.2881Z" fill="#50325A"/>
<path d="M59.2924 19.5655C59.2924 19.5655 61.5858 19.2592 62.5647 17.729C63.5435 16.1989 63.4904 15.4688 63.4904 15.4688C63.4904 15.4688 64.6224 16.1264 65.023 16.9821C65.4243 17.8384 65.4925 18.2935 65.4925 18.2935C65.4925 18.2935 65.8719 16.4539 65.6775 15.8907C65.4831 15.3275 64.4136 12.1703 60.0113 12.556C53.3349 13.1404 56.0509 18.5604 59.2924 19.5655Z" fill="#50325A"/>
<path d="M58.4901 40.3523C58.4901 40.3523 58.6933 40.263 59.5559 39.9548C60.3728 39.6629 63.3175 39.8867 63.3175 39.8867C63.3175 39.8867 65.8796 40.2648 68.0136 41.1068C70.1476 41.9494 69.8576 42.9107 69.8576 42.9107C69.8576 42.9107 71.2321 43.6327 70.7233 44.239C70.2151 44.8453 68.0286 44.4759 68.0286 44.4759C68.0286 44.4759 70.8127 45.261 69.7513 45.9629C68.6893 46.6649 65.1402 45.5222 65.1402 45.5222C65.1402 45.5222 59.8784 47.9531 57.9494 46.2504C56.0205 44.5471 58.4901 40.3523 58.4901 40.3523Z" fill="#FEBDC6"/>
<path d="M59.5655 39.0515L61.7045 47.3549C61.7045 47.3549 47.7743 57.9829 41.9556 49.6495C36.1368 41.3167 46.9617 28.8279 51.5134 27.6547C56.0651 26.4815 53.7655 39.9028 53.7655 39.9028L59.5649 39.0515H59.5655Z" fill="#8B87E1"/>
<path d="M61.3406 62.4037C61.3131 62.4037 61.2862 62.3949 61.2625 62.3781C61.2206 62.3462 61.2012 62.293 61.2137 62.2418C61.2475 62.1037 62.0582 58.8583 63.3902 58.282C63.7109 58.1432 64.034 58.1639 64.354 58.3439C64.6572 58.5145 64.8128 58.7477 64.8166 59.0365C64.8335 60.3222 61.5469 62.3018 61.4075 62.3856C61.3869 62.3981 61.3631 62.4043 61.3406 62.4043V62.4037ZM63.8096 58.4533C63.7046 58.4533 63.6002 58.4764 63.4946 58.522C62.5082 58.9496 61.7919 61.1579 61.5537 61.9893C62.5989 61.3261 64.5672 59.8984 64.5559 59.0402C64.5534 58.8483 64.4453 58.6958 64.2259 58.572C64.0853 58.4933 63.9471 58.4533 63.8096 58.4533Z" fill="#50325A"/>
<path d="M49.1183 40.9314C49.0658 40.9314 49.0165 40.9001 48.9964 40.8482C48.9708 40.7807 49.0039 40.7051 49.0715 40.6788C52.0924 39.51 57.9393 39.6937 58.1868 39.7037C58.2587 39.7062 58.3155 39.7669 58.313 39.8388C58.3105 39.9106 58.2412 39.9538 58.178 39.965C58.1174 39.9632 52.1368 39.7737 49.1658 40.9232C49.1502 40.9295 49.1346 40.932 49.119 40.932L49.1183 40.9314Z" fill="#50325A"/>
<path d="M53.6499 40.0852C52.6561 39.9627 49.4526 39.5176 49.2895 38.8707C49.2664 38.7801 49.2782 38.6444 49.4633 38.5125C50.4952 37.7737 53.3943 39.6314 53.7218 39.8452C53.7725 39.8783 53.7937 39.9427 53.7731 39.9989C53.7543 40.0515 53.7043 40.0852 53.6506 40.0852H53.6499ZM50.0971 38.5994C49.9027 38.5994 49.737 38.6375 49.6145 38.7244C49.557 38.7657 49.5401 38.7957 49.5426 38.8063C49.6158 39.0957 51.3228 39.492 53.0561 39.7427C52.2079 39.2482 50.9022 38.5994 50.0971 38.5994Z" fill="#50325A"/>
<path d="M62.8056 28.2418C62.1843 28.2418 59.3053 28.1456 58.002 26.4085C57.9589 26.351 57.9708 26.2691 58.0283 26.2254C58.0852 26.1822 58.1677 26.1935 58.2114 26.2516C59.5634 28.0543 62.8807 27.9787 62.9132 27.9793C62.9907 27.9924 63.0457 28.0343 63.0476 28.1062C63.0494 28.1781 62.9925 28.2387 62.9207 28.2406C62.9075 28.2406 62.8682 28.2418 62.8056 28.2418Z" fill="#50325A"/>
<path d="M69.7686 45.8035L74.5797 34.9205C74.7522 34.5299 75.1397 34.2773 75.5673 34.2773H92.9022C93.5398 34.2773 93.9673 34.9337 93.7092 35.5168L89.1612 45.8035H69.7686Z" fill="#6E477B"/>
<path d="M63.7868 47.2611H88.9775C89.3795 47.2611 89.7057 46.9354 89.7057 46.5329C89.7057 46.1304 89.3801 45.8047 88.9775 45.8047H63.7868C63.3849 45.8047 63.0586 46.1304 63.0586 46.5329C63.0586 46.9354 63.3843 47.2611 63.7868 47.2611Z" fill="#50325A"/>
<path d="M69.8562 43.0411C69.8337 43.0411 69.8118 43.0355 69.7912 43.0236C69.7731 43.013 67.9573 41.9729 65.6564 41.3191C65.587 41.2997 65.547 41.2272 65.5664 41.1572C65.5858 41.0878 65.6583 41.0484 65.7283 41.0672C68.0617 41.7304 69.9031 42.7867 69.9219 42.7967C69.9844 42.8324 70.0056 42.9124 69.97 42.9755C69.9456 43.0174 69.9018 43.0405 69.8568 43.0405L69.8562 43.0411Z" fill="#50325A"/>
<path d="M68.2914 44.5379C68.2664 44.5379 68.2414 44.5311 68.2189 44.5161C68.2039 44.5054 66.6869 43.5034 65.3242 43.3866C65.2524 43.3803 65.1999 43.3172 65.2055 43.2453C65.2117 43.1734 65.2761 43.1147 65.3468 43.1265C66.7763 43.2497 68.2989 44.256 68.3633 44.2985C68.4233 44.3385 68.4396 44.4198 68.3996 44.4798C68.3739 44.5173 68.3327 44.5379 68.2908 44.5379H68.2914Z" fill="#50325A"/>
</svg>
