<svg width="20" height="19" viewBox="0 0 20 19" fill="none" xmlns="http://www.w3.org/2000/svg">
<path d="M8.41215 2.21625C8.81598 0.551614 11.184 0.551614 11.5879 2.21625C11.6484 2.46633 11.7672 2.69856 11.9345 2.89405C12.1018 3.08954 12.3129 3.24277 12.5507 3.34125C12.7884 3.43974 13.046 3.4807 13.3025 3.46081C13.5591 3.44092 13.8073 3.36074 14.027 3.22679C15.4897 2.3357 17.1648 4.00981 16.2737 5.47348C16.1399 5.69308 16.0599 5.94115 16.04 6.19751C16.0202 6.45388 16.0611 6.71131 16.1595 6.94888C16.2578 7.18645 16.4109 7.39746 16.6062 7.56475C16.8014 7.73204 17.0334 7.8509 17.2833 7.91166C18.9479 8.3155 18.9479 10.6835 17.2833 11.0874C17.0332 11.148 16.801 11.2667 16.6055 11.434C16.41 11.6014 16.2567 11.8125 16.1583 12.0502C16.0598 12.2879 16.0188 12.5455 16.0387 12.802C16.0586 13.0586 16.1388 13.3068 16.2727 13.5265C17.1638 14.9892 15.4897 16.6643 14.026 15.7732C13.8064 15.6394 13.5584 15.5594 13.302 15.5395C13.0456 15.5197 12.7882 15.5606 12.5506 15.659C12.3131 15.7574 12.1021 15.9104 11.9348 16.1057C11.7675 16.3009 11.6486 16.5329 11.5879 16.7828C11.184 18.4474 8.81598 18.4474 8.41215 16.7828C8.35156 16.5327 8.23277 16.3005 8.06547 16.105C7.89816 15.9095 7.68706 15.7563 7.44934 15.6578C7.21162 15.5593 6.95401 15.5183 6.69747 15.5382C6.44093 15.5581 6.19271 15.6383 5.97302 15.7722C4.5103 16.6633 2.83524 14.9892 3.72633 13.5255C3.86009 13.3059 3.94014 13.0579 3.95999 12.8015C3.97983 12.5451 3.9389 12.2877 3.84053 12.0501C3.74216 11.8126 3.58912 11.6016 3.39385 11.4343C3.19858 11.267 2.96659 11.1481 2.71674 11.0874C1.0521 10.6835 1.0521 8.3155 2.71674 7.91166C2.96681 7.85107 3.19905 7.73228 3.39454 7.56498C3.59003 7.39767 3.74325 7.18657 3.84174 6.94885C3.94023 6.71114 3.98119 6.45352 3.9613 6.19698C3.94141 5.94044 3.86123 5.69223 3.72728 5.47253C2.83618 4.00981 4.5103 2.33475 5.97397 3.22584C6.92194 3.80221 8.15051 3.2922 8.41215 2.21625Z" stroke="#50325A" stroke-width="1.2" stroke-linecap="round" stroke-linejoin="round"/>
<path d="M7.57254 7.48824C8.10588 6.9549 8.82924 6.65527 9.58349 6.65527C10.3377 6.65527 11.0611 6.9549 11.5944 7.48824C12.1278 8.02157 12.4274 8.74493 12.4274 9.49919C12.4274 10.2534 12.1278 10.9768 11.5944 11.5101C11.0611 12.0435 10.3377 12.3431 9.58349 12.3431C8.82924 12.3431 8.10588 12.0435 7.57254 11.5101C7.14121 11.0788 6.93477 10.4904 6.93477 10.4904" stroke="#50325A" stroke-width="1.2" stroke-linecap="round" stroke-linejoin="round"/>
</svg>
