<svg width="122" height="196" viewBox="0 0 122 196" fill="none" xmlns="http://www.w3.org/2000/svg">
<path d="M16.1207 125.521C16.1207 125.521 11.6795 117.305 11.0247 111.602C10.3698 105.899 10.8461 105.137 12.5725 103.601C13.2988 102.958 13.6084 100.755 15.704 100.315C17.7995 99.874 19.5855 105.291 19.5855 105.291C19.5855 105.291 20.1689 101.386 21.9311 101.981C23.6933 102.577 24.4791 109.721 24.4791 109.721C24.4791 109.721 26.2889 104.791 27.6582 105.232C29.0274 105.672 29.8252 114.079 28.9798 116.484C28.1344 118.889 25.765 121.865 25.765 121.865L16.1207 125.533V125.521Z" fill="#BC6242"/>
<path d="M21.2645 119.985C21.0978 119.985 20.9668 119.854 20.9668 119.687C20.9549 111.626 25.1103 109.662 25.2889 109.59C25.4437 109.519 25.6223 109.59 25.6937 109.745C25.7652 109.9 25.6937 110.078 25.5389 110.15C25.5032 110.174 21.5622 112.055 21.5741 119.699C21.5741 119.866 21.4431 119.997 21.2764 119.997L21.2645 119.985Z" fill="#50325A"/>
<path d="M107.383 125.521C107.383 125.521 111.824 117.305 112.479 111.602C113.134 105.899 112.658 105.137 110.931 103.601C110.205 102.958 109.895 100.755 107.8 100.315C105.704 99.874 103.918 105.291 103.918 105.291C103.918 105.291 103.335 101.386 101.573 101.981C99.8105 102.577 99.0247 109.721 99.0247 109.721C99.0247 109.721 97.2149 104.791 95.8456 105.232C94.4764 105.672 93.6786 114.079 94.524 116.484C95.3693 118.889 97.7387 121.865 97.7387 121.865L107.383 125.533V125.521Z" fill="#BC6242"/>
<path d="M102.24 119.982C102.073 119.982 101.942 119.851 101.942 119.684C101.942 112.04 98.013 110.159 97.9773 110.135C97.8225 110.064 97.763 109.885 97.8225 109.73C97.894 109.575 98.0726 109.516 98.2273 109.575C98.4059 109.659 102.561 111.611 102.549 119.672C102.549 119.839 102.418 119.97 102.252 119.97L102.24 119.982Z" fill="#50325A"/>
<path d="M29.9317 119.316C29.9317 119.316 25.681 133.938 32.5749 139.891C39.4807 145.844 49.7799 143.213 52.0541 143.022C54.3282 142.832 60.7459 142.26 65.1989 143.118C69.652 143.975 80.1298 143.713 86.8451 134.712C93.5604 125.71 93.8461 119.054 93.8461 119.054L113.421 119.316C113.421 119.316 115.028 143.046 103.967 155.215C96.1798 163.787 80.9037 166.943 80.9037 166.943C80.9037 166.943 80.3322 176.206 79.9631 181.028C79.5821 185.85 80.7024 189.074 77.4865 192.149C73.9819 195.5 68.4727 196.11 56.8757 195.919C45.2667 195.729 38.195 194.127 36.6188 192.658C35.0427 191.188 35.6349 189.839 35.5397 183.076C35.4444 176.313 36.4803 167.228 36.4803 167.228C36.4803 167.228 14.3579 166.288 8.88085 151.536C3.39192 136.783 11.0598 118.578 11.0598 118.578L29.9674 119.316H29.9317Z" fill="#8B87E1"/>
<path d="M64.8037 131.871L64.3931 143.071C64.3931 143.071 62.3297 146.381 57.5194 146.274C53.9355 146.19 52.8154 143.071 52.8154 143.071L53.4333 140.952L54.8771 134.747L63.3272 132.109L64.8037 131.871Z" fill="#BC6242"/>
<path d="M24.99 141.389C24.7519 141.389 24.4304 141.305 24.2042 140.912C24.0137 140.603 23.9779 140.246 24.097 139.865C24.6923 137.924 29.4669 135.65 29.6693 135.554C29.7884 135.495 29.9312 135.531 30.0265 135.626C30.1217 135.721 30.1336 135.876 30.0622 135.983C29.5026 136.888 26.6331 141.389 25.0019 141.389H24.99ZM28.9311 136.602C27.3475 137.46 25.0257 138.912 24.6804 140.031C24.609 140.246 24.6328 140.424 24.7281 140.591C24.8233 140.746 24.9424 140.77 25.0019 140.77C25.8592 140.77 27.669 138.495 28.943 136.59L28.9311 136.602Z" fill="#50325A"/>
<path d="M88.928 142.473C86.7372 142.473 83.9034 138.687 83.5581 138.198C83.4748 138.091 83.4867 137.948 83.5581 137.841C83.6415 137.734 83.7724 137.698 83.9034 137.734C85.356 138.27 90.1306 140.115 90.2258 141.508C90.2377 141.723 90.1663 142.044 89.7257 142.282C89.4757 142.413 89.2138 142.473 88.928 142.473ZM84.7131 138.699C85.999 140.234 88.1898 142.413 89.44 141.747C89.5233 141.699 89.6305 141.628 89.6305 141.556C89.5829 140.961 87.2015 139.699 84.7131 138.699Z" fill="#50325A"/>
<path d="M23.2633 113.018C23.2633 113.018 23.168 113.018 23.1323 112.994C21.8583 112.399 22.4655 110.16 22.537 109.91C22.5846 109.743 22.7513 109.648 22.918 109.696C23.0847 109.743 23.1799 109.922 23.1323 110.077C22.9894 110.589 22.7156 112.113 23.3823 112.422C23.5371 112.494 23.6086 112.684 23.5371 112.839C23.4895 112.958 23.3704 113.018 23.2514 113.018H23.2633Z" fill="#50325A"/>
<path d="M63.5441 1.5806L82.0707 34.2165C82.1898 34.4308 82.4041 34.5856 82.6423 34.6332L119.529 42.2534C121.863 42.5868 122.791 45.4563 121.1 47.0994L95.2037 74.4012C95.0132 74.5917 94.9298 74.8655 94.9775 75.1394L101.467 113.205C101.859 115.526 99.4305 117.289 97.3469 116.193L61.389 97.9048C61.139 97.7738 60.8532 97.7857 60.6032 97.9048L25.3835 116.193C23.2999 117.289 20.871 115.515 21.2639 113.205L27.2291 75.2108C27.2648 74.9489 27.1814 74.675 27.0028 74.4845L0.891726 47.0994C-0.787101 45.4563 0.141612 42.5987 2.46339 42.2534L39.6119 34.6332C39.8619 34.5856 40.0644 34.4308 40.1834 34.2165L58.4481 1.5806C59.484 -0.526866 62.4963 -0.526866 63.5441 1.5806Z" fill="#FFE487"/>
<g filter="url(#filter0_f_1623_7774)">
<path d="M18.0496 44.705C17.7043 44.705 17.3828 44.455 17.3114 44.0978C17.228 43.6929 17.49 43.2881 17.8948 43.2048L39.8981 38.6327C40.303 38.5493 40.7078 38.8112 40.7911 39.2161C40.8745 39.6209 40.6125 40.0257 40.2077 40.1091L18.2044 44.6812C18.2044 44.6812 18.0972 44.6931 18.0496 44.6931V44.705Z" fill="#FFF3CA"/>
</g>
<path d="M106.252 106.433C106.252 106.433 112.015 102.23 110.634 107.183C109.586 110.946 104.645 115.958 103.204 114.923C101.763 113.887 103.014 110.243 103.014 110.243C103.014 110.243 100.835 112.101 99.4416 110.315C98.1795 108.695 99.8345 105.85 99.8345 105.85C99.8345 105.85 97.7389 108.434 96.3578 106.528C94.3336 103.719 101.192 97.7891 103.228 97.7891C105.943 97.7891 103.526 101.337 103.526 101.337C103.526 101.337 107.788 98.6106 108.467 101.29C109.145 103.969 106.252 106.433 106.252 106.433Z" fill="#BC6242"/>
<path d="M103.942 115.292C103.573 115.292 103.168 115.185 102.751 114.875C102.085 114.387 101.858 113.506 102.061 112.268C102.251 111.148 102.775 110.065 103.573 109.124L106.026 106.243C106.133 106.112 106.323 106.1 106.454 106.207C106.585 106.314 106.597 106.505 106.49 106.636L104.037 109.517C103.311 110.374 102.835 111.363 102.668 112.375C102.501 113.375 102.656 114.054 103.12 114.399C104.002 115.054 104.716 114.458 104.787 114.399C104.906 114.292 105.097 114.292 105.216 114.423C105.323 114.542 105.323 114.732 105.204 114.851C104.966 115.066 104.514 115.316 103.954 115.316L103.942 115.292Z" fill="#50325A"/>
<path d="M101.085 111.266C100.489 111.266 99.8463 111.075 99.251 110.539C97.3698 108.861 99.5129 105.812 99.6082 105.681L103.311 101.157C103.418 101.026 103.609 101.014 103.74 101.109C103.871 101.217 103.883 101.407 103.787 101.538L100.096 106.051C100.096 106.051 98.1913 108.777 99.6677 110.099C101.144 111.42 102.775 110.075 102.847 110.015C102.978 109.908 103.168 109.92 103.275 110.051C103.383 110.182 103.371 110.373 103.24 110.48C102.811 110.849 102.001 111.278 101.108 111.278L101.085 111.266Z" fill="#50325A"/>
<path d="M17.2507 106.433C17.2507 106.433 11.4879 102.23 12.8691 107.183C13.9168 110.946 18.8581 115.958 20.2988 114.923C21.7395 113.887 20.4893 110.243 20.4893 110.243C20.4893 110.243 22.6682 112.101 24.0612 110.315C25.3233 108.695 23.6683 105.85 23.6683 105.85C23.6683 105.85 25.7639 108.434 27.145 106.528C29.1692 103.719 22.311 97.7891 20.275 97.7891C17.5603 97.7891 19.9773 101.337 19.9773 101.337C19.9773 101.337 15.7147 98.6106 15.0361 101.29C14.3574 103.969 17.2507 106.433 17.2507 106.433Z" fill="#BC6242"/>
<path d="M19.5606 115.288C19.001 115.288 18.5485 115.038 18.3104 114.824C18.1913 114.705 18.1794 114.514 18.2985 114.395C18.4056 114.276 18.6081 114.264 18.7271 114.383C18.7986 114.455 19.513 115.05 20.394 114.383C20.8584 114.038 21.0132 113.359 20.8465 112.359C20.6798 111.347 20.2035 110.359 19.4772 109.501L17.0245 106.62C16.9173 106.489 16.9292 106.299 17.0602 106.191C17.1912 106.084 17.3817 106.096 17.4888 106.227L19.9416 109.109C20.7393 110.049 21.2632 111.133 21.4537 112.252C21.6561 113.502 21.4299 114.371 20.7631 114.859C20.3464 115.169 19.9416 115.276 19.5725 115.276L19.5606 115.288Z" fill="#50325A"/>
<path d="M22.4301 111.267C21.5371 111.267 20.7274 110.838 20.2988 110.469C20.1678 110.362 20.1559 110.171 20.2631 110.04C20.3702 109.909 20.5607 109.898 20.6917 110.005C20.7631 110.064 22.3943 111.398 23.8708 110.088C25.3472 108.778 23.4421 106.052 23.4302 106.028L19.7511 101.539C19.6439 101.408 19.6677 101.218 19.7987 101.11C19.9297 101.003 20.1202 101.027 20.2273 101.158L23.9184 105.671C24.0255 105.814 26.1568 108.874 24.2875 110.552C23.6922 111.088 23.0492 111.279 22.4539 111.279L22.4301 111.267Z" fill="#50325A"/>
<path d="M63.3568 132.42C63.3163 132.622 63.2113 132.865 63.0658 133.131C60.9885 136.769 56.2521 137.132 54.3203 137.116L55.1447 133.398L63.3648 132.412L63.3568 132.42Z" fill="#50325A"/>
<path d="M55.1456 115.875C55.1456 115.875 50.2152 125.033 51.274 130.488C52.3329 135.944 57.2633 135.508 60.2539 134.716C63.2445 133.924 64.7479 132.25 64.7479 132.25C64.7479 132.25 67.3909 133.398 69.4116 131.014C71.4403 128.637 70.5593 125.639 69.0559 124.847C67.5606 124.055 65.6208 125.025 65.6208 125.025L67.2939 122.381C67.2939 122.381 62.3635 107.857 55.1456 115.867V115.875Z" fill="#BC6242"/>
<path d="M65.6201 125.031C65.6201 125.031 61.9425 124.02 60.8513 120.852C59.7602 117.684 60.8513 115.833 60.8513 115.833C60.8513 115.833 59.4935 114.733 57.3192 115.307C55.145 115.881 54.0296 118.177 54.0296 118.177C54.0296 118.177 49.0749 113.594 51.1198 110.288C53.1647 106.982 56.8585 110.288 56.8585 110.288C56.8585 110.288 56.5918 106.853 62.0072 107.912C67.4226 108.97 67.4226 115.833 67.4226 115.833C67.4226 115.833 69.5321 113.852 71.1244 118.476C72.7167 123.099 69.6615 125.346 69.6615 125.346C69.6615 125.346 68.3036 124.465 65.6201 125.039V125.031Z" fill="#50325A"/>
<path d="M65.5804 129.468C65.4915 129.468 65.4026 129.428 65.346 129.355C65.241 129.226 65.2652 129.032 65.3945 128.927L68.5629 126.421C68.6923 126.316 68.8862 126.34 68.9913 126.47C69.0964 126.599 69.0721 126.793 68.9428 126.898L65.7744 129.404C65.7178 129.444 65.6532 129.468 65.5885 129.468H65.5804Z" fill="#50325A"/>
<path d="M68.7479 129.468C68.6994 129.468 68.6428 129.452 68.5943 129.428L66.7595 128.369C66.614 128.288 66.5655 128.102 66.6464 127.957C66.7272 127.811 66.9131 127.763 67.0586 127.844L68.8933 128.902C69.0388 128.983 69.0873 129.169 69.0065 129.315C68.9499 129.412 68.8449 129.468 68.7398 129.468H68.7479Z" fill="#50325A"/>
<path d="M54.6282 128.19C54.4584 128.19 54.3291 128.052 54.3291 127.882C54.3291 124.512 55.784 122.621 55.8486 122.548C55.9537 122.419 56.1396 122.394 56.277 122.499C56.4064 122.604 56.4306 122.79 56.3255 122.928C56.3094 122.944 54.9353 124.746 54.9353 127.89C54.9353 128.06 54.7979 128.198 54.6362 128.198L54.6282 128.19Z" fill="#50325A"/>
<path d="M56.7372 130.786C56.4462 130.786 56.1876 130.746 55.9936 130.681C55.832 130.633 55.743 130.463 55.7915 130.301C55.84 130.139 56.0098 130.051 56.1714 130.099C56.2361 130.115 57.691 130.536 58.6043 129.161C58.7013 129.024 58.8872 128.984 59.0246 129.081C59.162 129.17 59.2024 129.364 59.1054 129.501C58.4346 130.503 57.4727 130.778 56.7291 130.778L56.7372 130.786Z" fill="#50325A"/>
<path d="M61.0054 124.093C60.9084 124.093 60.8114 124.045 60.7549 123.956C60.4962 123.568 60.2376 123.366 59.9789 123.366C59.591 123.366 59.2272 123.794 59.1141 123.956C59.0252 124.093 58.8312 124.134 58.6938 124.045C58.5564 123.956 58.516 123.762 58.6049 123.625C58.6291 123.592 59.1787 122.76 59.9708 122.76C60.4477 122.76 60.8842 123.051 61.256 123.625C61.3449 123.762 61.3126 123.956 61.1671 124.045C61.1186 124.077 61.062 124.093 60.9973 124.093H61.0054Z" fill="#50325A"/>
<path d="M54.4989 123.681C54.3292 123.681 54.1999 123.543 54.1999 123.382C54.1999 123.147 54.1191 122.614 53.8685 122.493C53.6826 122.404 53.3512 122.517 52.939 122.824C52.8016 122.921 52.6157 122.897 52.5187 122.759C52.4217 122.622 52.4459 122.436 52.5833 122.339C53.2057 121.87 53.7311 121.741 54.1514 121.951C54.798 122.274 54.8142 123.269 54.8142 123.382C54.8142 123.551 54.6768 123.681 54.5151 123.681H54.4989Z" fill="#50325A"/>
<path d="M61.0063 121.317C60.9416 121.317 60.8689 121.293 60.8123 121.245L59.0664 119.79C58.9371 119.685 58.9209 119.491 59.026 119.361C59.1311 119.232 59.3251 119.216 59.4544 119.321L61.2002 120.776C61.3296 120.881 61.3457 121.075 61.2407 121.204C61.1841 121.277 61.0952 121.317 61.0063 121.317Z" fill="#50325A"/>
<path d="M53.3433 120.592C53.2301 120.592 53.1251 120.535 53.0766 120.43C53.0038 120.284 53.0604 120.099 53.2059 120.026L55.1457 119.032C55.2912 118.959 55.4771 119.015 55.5499 119.161C55.6226 119.306 55.566 119.492 55.4206 119.565L53.4807 120.559C53.4403 120.584 53.3918 120.592 53.3433 120.592Z" fill="#50325A"/>
<defs>
<filter id="filter0_f_1623_7774" x="15.8086" y="37.1299" width="26.4853" height="9.06245" filterUnits="userSpaceOnUse" color-interpolation-filters="sRGB">
<feFlood flood-opacity="0" result="BackgroundImageFix"/>
<feBlend mode="normal" in="SourceGraphic" in2="BackgroundImageFix" result="shape"/>
<feGaussianBlur stdDeviation="0.743639" result="effect1_foregroundBlur_1623_7774"/>
</filter>
</defs>
</svg>
