<svg width="26" height="26" viewBox="0 0 26 26" fill="none" xmlns="http://www.w3.org/2000/svg">
<g clip-path="url(#clip0_1259_750)">
<path d="M23.0966 16.7259C23.0389 16.5182 23.1658 16.2298 23.287 16.0221C23.324 15.9603 23.3644 15.9006 23.4081 15.8432C24.4444 14.3033 24.9987 12.4898 25.0004 10.6336C25.0177 5.3144 20.5293 0.999023 14.9793 0.999023C10.1389 0.999023 6.10044 4.29325 5.15429 8.66632C5.01274 9.31448 4.94118 9.97597 4.94083 10.6394C4.94083 15.9644 9.25621 20.3952 14.8062 20.3952C15.6889 20.3952 16.8774 20.1298 17.5293 19.9509C18.1812 19.7721 18.8274 19.5355 18.9947 19.4721C19.1662 19.4074 19.3479 19.3742 19.5312 19.374C19.7312 19.3732 19.9293 19.4125 20.1139 19.4894L23.385 20.649C23.4567 20.6794 23.5326 20.6988 23.61 20.7067C23.7324 20.7067 23.8498 20.6581 23.9364 20.5715C24.023 20.485 24.0716 20.3676 24.0716 20.2452C24.0676 20.1924 24.0579 20.1401 24.0427 20.0894L23.0966 16.7259Z" stroke="#8782AA" stroke-width="1.2" stroke-miterlimit="10" stroke-linecap="round"/>
<path d="M2.06503 11.6143C1.30836 12.9736 0.942321 14.5158 1.00738 16.0702C1.07244 17.6246 1.56607 19.1308 2.43369 20.4221C2.56696 20.6235 2.64196 20.7793 2.61888 20.8837C2.5958 20.9881 1.93061 24.4531 1.93061 24.4531C1.91461 24.5342 1.92068 24.6181 1.94818 24.696C1.97569 24.774 2.02361 24.8431 2.08696 24.8962C2.17148 24.9635 2.27658 24.9998 2.38465 24.9989C2.4424 24.999 2.49956 24.9872 2.55253 24.9642L5.79542 23.695C6.01861 23.607 6.26759 23.6112 6.48772 23.7066C7.58041 24.1323 8.78849 24.3989 9.99714 24.3989C11.619 24.4006 13.2124 23.9728 14.6154 23.1591" stroke="#8782AA" stroke-width="1.2" stroke-miterlimit="10" stroke-linecap="round"/>
</g>
<defs>
<clipPath id="clip0_1259_750">
<rect width="26" height="26" fill="white" transform="translate(0 -0.000976562)"/>
</clipPath>
</defs>
</svg>
