<svg width="125" height="148" viewBox="0 0 125 148" fill="none" xmlns="http://www.w3.org/2000/svg">
<path fill-rule="evenodd" clip-rule="evenodd" d="M103.017 19.3031C106.71 15.4217 109.314 10.8265 106.284 7.57141C101.44 2.36821 90.8089 10.6366 86.0991 15.4211L96.1912 25.0648C96.5137 24.8453 96.8513 24.608 97.1998 24.3546C93.97 27.8224 91.3176 31.6796 90.1368 33.5871L97.2799 43.7906C93.3529 47.327 89.6842 52.2364 87.445 55.7906L92.1553 72.612C100.678 64.4633 116.108 46.6857 109.649 40.7645C107.772 39.044 105.509 38.9608 103.127 39.892C109.898 32.8909 117.008 23.2543 112.339 19.0095C109.616 16.5332 106.285 17.2161 103.017 19.3031Z" fill="#FFBAC3"/>
<path d="M103.682 39.2598L93.123 48.8375" stroke="#50325A" stroke-width="3" stroke-linecap="round"/>
<path d="M103.682 18.5762L93.123 28.1539" stroke="#50325A" stroke-width="3" stroke-linecap="round"/>
<path d="M93.241 0.5L60.6032 0.5C57.1303 0.5 54.3149 3.31536 54.3149 6.78828L54.3149 74.2342C54.3149 77.7071 57.1303 80.5225 60.6032 80.5225H93.241C96.714 80.5225 99.5293 77.7071 99.5293 74.2342V6.78828C99.5293 3.31536 96.714 0.5 93.241 0.5Z" fill="#50325A"/>
<path d="M55.6047 1L88.2425 1C91.4393 1 94.0308 3.5915 94.0308 6.78828V74.2342C94.0308 77.431 91.4393 80.0225 88.2425 80.0225H55.6047C52.4079 80.0225 49.8164 77.431 49.8164 74.2342L49.8164 6.78828C49.8164 3.5915 52.4079 1 55.6047 1Z" fill="white" stroke="#50325A"/>
<circle cx="71.9241" cy="72.3462" r="4.00637" fill="#50325A"/>
<path d="M26.8801 60.5977C26.8801 65.7259 16.9525 86.8064 15.6171 92.0147L40.0559 112.444C41.6584 110.307 54.2836 96.4112 62.9373 95.4497C71.5911 94.4881 82.5686 84.652 85.7737 80.3785H55.7259C52.1856 80.3785 49.3157 77.5086 49.3157 73.9683V37.758C53.4556 29.0777 64.5399 12.9185 52.1202 10.9188C43.9658 9.60579 38.4985 29.7487 36.0947 35.3576C33.6909 40.9665 26.8801 54.1875 26.8801 60.5977Z" fill="#FFBAC3"/>
<circle cx="71.9226" cy="44.0498" r="7.21146" fill="#6966B1" stroke="#6966B1" stroke-width="1.60255"/>
<mask id="path-9-inside-1_2212_3275" fill="white">
<path d="M82.8384 46.2777C83.2819 46.3682 83.7177 46.0823 83.7777 45.6336C83.9804 44.1169 83.8905 42.5727 83.5101 41.0853C83.0619 39.3328 82.222 37.7048 81.0537 36.3238C79.8853 34.9427 78.419 33.8447 76.765 33.1122C75.111 32.3798 73.3124 32.0321 71.5046 32.0952C69.6967 32.1583 67.9268 32.6306 66.3279 33.4766C64.729 34.3226 63.3428 35.5203 62.2736 36.9794C61.2044 38.4385 60.4801 40.1212 60.1552 41.9007C59.8795 43.411 59.8975 44.9577 60.2055 46.4566C60.2966 46.8999 60.7513 47.1548 61.1873 47.0335C61.6234 46.9123 61.8752 46.4609 61.7889 46.0166C61.5445 44.7575 61.5363 43.4615 61.7675 42.1951C62.0479 40.6594 62.673 39.2073 63.5957 37.9481C64.5183 36.6889 65.7146 35.6554 67.0944 34.9253C68.4742 34.1952 70.0016 33.7876 71.5617 33.7332C73.1219 33.6787 74.674 33.9788 76.1014 34.6109C77.5287 35.2429 78.7942 36.1905 79.8024 37.3823C80.8106 38.5741 81.5354 39.9791 81.9222 41.4914C82.2412 42.7386 82.3235 44.0321 82.1674 45.3051C82.1123 45.7544 82.395 46.1871 82.8384 46.2777Z"/>
</mask>
<path d="M82.8384 46.2777C83.2819 46.3682 83.7177 46.0823 83.7777 45.6336C83.9804 44.1169 83.8905 42.5727 83.5101 41.0853C83.0619 39.3328 82.222 37.7048 81.0537 36.3238C79.8853 34.9427 78.419 33.8447 76.765 33.1122C75.111 32.3798 73.3124 32.0321 71.5046 32.0952C69.6967 32.1583 67.9268 32.6306 66.3279 33.4766C64.729 34.3226 63.3428 35.5203 62.2736 36.9794C61.2044 38.4385 60.4801 40.1212 60.1552 41.9007C59.8795 43.411 59.8975 44.9577 60.2055 46.4566C60.2966 46.8999 60.7513 47.1548 61.1873 47.0335C61.6234 46.9123 61.8752 46.4609 61.7889 46.0166C61.5445 44.7575 61.5363 43.4615 61.7675 42.1951C62.0479 40.6594 62.673 39.2073 63.5957 37.9481C64.5183 36.6889 65.7146 35.6554 67.0944 34.9253C68.4742 34.1952 70.0016 33.7876 71.5617 33.7332C73.1219 33.6787 74.674 33.9788 76.1014 34.6109C77.5287 35.2429 78.7942 36.1905 79.8024 37.3823C80.8106 38.5741 81.5354 39.9791 81.9222 41.4914C82.2412 42.7386 82.3235 44.0321 82.1674 45.3051C82.1123 45.7544 82.395 46.1871 82.8384 46.2777Z" stroke="#6966B1" stroke-width="3.20509" mask="url(#path-9-inside-1_2212_3275)"/>
<path d="M69.4598 120.752C73.7644 128.131 71.2534 138.174 69.4598 142.273L103.943 140.825C103.304 137.814 102.027 130.719 102.027 126.423C102.027 121.052 114.964 107.383 117.161 94.2013C119.358 81.0198 115.524 72.6599 109.963 72.6599C105.515 72.6599 104.161 75.5341 103.943 76.5538C103.507 74.1712 103.397 68.8075 97.5641 69.406C93.5293 69.8201 92.276 74.1712 92.167 76.5538C91.4582 74.1167 90.3558 69.2329 84.6436 69.406C80.3258 69.5368 78.8716 74.2257 78.6841 76.5538C79.5538 65.7506 80.3966 42.6875 72.6017 42.6875C64.3043 42.6875 65.0398 69.406 67.1544 81.9345C64.3359 74.6326 60.2843 59.5003 52.9341 61.9503C47.1692 63.872 54.0867 78.0915 56.3926 87.6996C58.6985 97.3077 64.0791 111.528 69.4598 120.752Z" fill="#FFBAC3"/>
<path d="M78.5203 80.5398V74.6914" stroke="#50325A" stroke-width="3" stroke-linecap="round"/>
<path d="M91.0886 80.5398V74.6914" stroke="#50325A" stroke-width="3" stroke-linecap="round"/>
<path d="M104.959 81.1174L104.216 76.3379" stroke="#50325A" stroke-width="3" stroke-linecap="round"/>
<path d="M122.353 133.388C123.249 138.807 113.325 140.041 105.534 141.328L103.924 130.73C108.13 129.861 121.457 127.968 122.353 133.388Z" fill="#7DBE91"/>
<path d="M69.9117 141.35C69.9117 141.35 98.7598 142.448 105.534 141.328M105.534 141.328C113.325 140.041 123.249 138.807 122.353 133.388C121.457 127.968 108.13 129.861 103.924 130.73L105.534 141.328Z" stroke="#50325A" stroke-width="3.43313" stroke-linecap="round" stroke-linejoin="round"/>
<path d="M3.54211 74.1352C-0.463585 77.8943 8.69428 85.9374 14.0979 91.6951L18.3584 80.4761C15.547 77.2293 7.5478 70.3761 3.54211 74.1352Z" fill="#7DBE91"/>
<path d="M40.345 112.332C40.345 112.332 18.7967 96.7017 14.0979 91.6951M14.0979 91.6951C8.69428 85.9374 -0.463585 77.8943 3.54211 74.1352C7.5478 70.3761 15.547 77.2293 18.3584 80.4761L14.0979 91.6951Z" stroke="#50325A" stroke-width="3.43313" stroke-linecap="round" stroke-linejoin="round"/>
</svg>
