<svg width="93" height="100" viewBox="0 0 93 100" fill="none" xmlns="http://www.w3.org/2000/svg">
<path d="M48.6281 0.130859L7.8957 0.130859C3.56145 0.130859 0.0478516 3.64446 0.0478516 7.97871L0.0478516 92.1522C0.0478516 96.4864 3.56145 100 7.8957 100H48.6281C52.9624 100 56.476 96.4864 56.476 92.1522L56.476 7.97871C56.476 3.64446 52.9624 0.130859 48.6281 0.130859Z" fill="#6966B1"/>
<path d="M55.3891 0.130859L14.6567 0.130859C10.3224 0.130859 6.80884 3.64446 6.80884 7.97871L6.80884 92.1521C6.80884 96.4864 10.3224 100 14.6567 100H55.3891C59.7234 100 63.237 96.4864 63.237 92.1521L63.237 7.97871C63.237 3.64446 59.7234 0.130859 55.3891 0.130859Z" fill="#EBF2F8"/>
<circle cx="35.0229" cy="87.8317" r="6.47038" fill="#6966B1"/>
<path d="M42.9993 55.4804C43.1055 55.9784 43.6058 56.2993 44.125 56.1978L46.6738 55.6928C47.1883 55.5913 47.5211 55.1051 47.4149 54.6072L46.2065 48.9006C46.1027 48.4027 45.5977 48.0817 45.0832 48.1855L42.5343 48.6882C42.0175 48.7921 41.6871 49.2782 41.7909 49.7738L43.0016 55.4827L42.9993 55.4804Z" fill="#49468F"/>
<path d="M31.0521 40.1332C31.0521 40.1332 35.9138 64.8711 39.6875 67.3892C39.6875 67.3892 43.4163 70.2142 49.0851 68.0028C49.0851 68.0028 42.883 45.0728 43.0741 40.2418L31.0521 40.1309V40.1332Z" fill="#96C8ED"/>
<path d="M46.8457 38.4355V42.103C46.8457 44.3899 44.9246 46.2449 42.5575 46.2449H33.4502C31.0831 46.2449 29.162 44.3899 29.162 42.103V38.4355H46.8433H46.8457Z" fill="#49468F"/>
<path d="M31.0526 19.0586V41.375C24.8717 41.0989 19.9534 36.2089 19.9534 30.2168C19.9534 24.2247 24.8717 19.3347 31.0526 19.0586Z" fill="#49468F"/>
<path d="M40.9718 19.043H30.9875L30.9873 41.3783H40.9718V19.043Z" fill="#49468F"/>
<path d="M86.1428 0.133219C84.7834 3.52222 83.778 15.7023 83.778 30.2142C83.778 44.726 84.7834 56.8873 86.1404 60.2857C81.2693 54.6853 64.742 41.3818 40.9741 41.3818V19.0394C64.7491 19.0394 81.2787 5.73121 86.1451 0.130859L86.1428 0.133219Z" fill="#96C8ED"/>
<path d="M83.0111 30.2134C83.0111 46.8233 84.413 60.2896 86.1429 60.2896C87.8728 60.2896 89.2746 46.8233 89.2746 30.2134C89.2746 13.6035 87.8704 0.134766 86.1429 0.134766C85.7676 0.134766 83.0111 13.6011 83.0111 30.2134Z" fill="#49468F"/>
<path d="M92.9653 31.126C92.9653 31.126 92.9582 31.1213 92.9558 31.1189C92.9558 31.0741 92.9559 31.0292 92.9535 30.9844C92.9582 31.0316 92.9629 31.0788 92.9677 31.126H92.9653Z" fill="#6F9EC0"/>
<path d="M83.7758 22.459C88.9135 22.7233 92.9988 26.8203 92.9988 31.8472C92.9988 36.8741 88.9159 40.9711 83.7758 41.2378V22.459Z" fill="#96C8ED"/>
<path d="M86.1428 0.133219C84.7835 3.52222 83.7781 15.7023 83.7781 30.2142C83.7781 44.726 84.7835 56.8873 86.1405 60.2857C85.0313 59.0113 83.3108 57.3333 81.0428 55.5066C79.1501 47.3598 78.1848 39.0619 78.1423 30.7617C78.0999 22.0933 79.0675 13.4226 81.0452 4.91228C83.3132 3.08326 85.0336 1.40764 86.1428 0.130859V0.133219Z" fill="#6966B1"/>
<path d="M86.9095 31.4865C86.9095 33.9079 88.0683 35.8714 89.4961 35.8714C90.924 35.8714 92.0827 33.9079 92.0827 31.4865C92.0827 29.0651 90.924 27.1016 89.4961 27.1016C88.0683 27.1016 86.9095 29.0628 86.9095 31.4865Z" fill="#AFD9F9"/>
</svg>
