<svg width="21" height="20" viewBox="0 0 21 20" fill="none" xmlns="http://www.w3.org/2000/svg">
<path fill-rule="evenodd" clip-rule="evenodd" d="M2.74313 3.50039C2.74313 2.06445 3.90719 0.900391 5.34313 0.900391H15.3431C16.7791 0.900391 17.9431 2.06445 17.9431 3.50039V16.5004C17.9431 17.9363 16.7791 19.1004 15.3431 19.1004H13.8431C13.5118 19.1004 13.2431 18.8318 13.2431 18.5004C13.2431 18.169 13.5118 17.9004 13.8431 17.9004H15.3431C16.1163 17.9004 16.7431 17.2736 16.7431 16.5004V3.50039C16.7431 2.72719 16.1163 2.10039 15.3431 2.10039H5.34313C4.56993 2.10039 3.94313 2.72719 3.94313 3.50039V16.5004C3.94313 17.2736 4.56993 17.9004 5.34313 17.9004H6.84313H10.3431C10.6745 17.9004 10.9431 18.169 10.9431 18.5004C10.9431 18.8318 10.6745 19.1004 10.3431 19.1004H6.84313H5.34313C3.90719 19.1004 2.74313 17.9363 2.74313 16.5004V3.50039ZM5.2613 5.00195C5.2613 4.67058 5.52993 4.40195 5.8613 4.40195H11.4637C11.795 4.40195 12.0637 4.67058 12.0637 5.00195C12.0637 5.33332 11.795 5.60195 11.4637 5.60195H5.8613C5.52993 5.60195 5.2613 5.33332 5.2613 5.00195ZM5.8613 7.20313C5.52993 7.20313 5.2613 7.47176 5.2613 7.80313C5.2613 8.1345 5.52993 8.40313 5.8613 8.40313H14.8251C15.1564 8.40313 15.4251 8.1345 15.4251 7.80313C15.4251 7.47176 15.1564 7.20313 14.8251 7.20313H5.8613ZM5.2613 10.6043C5.2613 10.2729 5.52993 10.0043 5.8613 10.0043H14.8251C15.1564 10.0043 15.4251 10.2729 15.4251 10.6043C15.4251 10.9357 15.1564 11.2043 14.8251 11.2043H5.8613C5.52993 11.2043 5.2613 10.9357 5.2613 10.6043ZM5.8613 12.8055C5.52993 12.8055 5.2613 13.0741 5.2613 13.4055C5.2613 13.7369 5.52993 14.0055 5.8613 14.0055H14.8251C15.1564 14.0055 15.4251 13.7369 15.4251 13.4055C15.4251 13.0741 15.1564 12.8055 14.8251 12.8055H5.8613Z" fill="#50325A"/>
</svg>
