<svg width="10" height="11" viewBox="0 0 10 11" fill="none" xmlns="http://www.w3.org/2000/svg">
<path d="M5 10.5C4.0111 10.5 3.0444 10.2068 2.22215 9.65735C1.3999 9.10794 0.759043 8.32705 0.380604 7.41342C0.00216642 6.49979 -0.0968502 5.49445 0.0960758 4.52455C0.289002 3.55465 0.765206 2.66373 1.46447 1.96447C2.16373 1.26521 3.05465 0.789002 4.02455 0.596076C4.99445 0.40315 5.99979 0.502166 6.91342 0.880604C7.82705 1.25904 8.60794 1.8999 9.15735 2.72215C9.70676 3.5444 10 4.5111 10 5.5C10 6.82608 9.47322 8.09785 8.53553 9.03553C7.59785 9.97322 6.32608 10.5 5 10.5ZM5 1.21429C4.15237 1.21429 3.32377 1.46564 2.61899 1.93656C1.9142 2.40748 1.36489 3.07682 1.04052 3.85993C0.716143 4.64304 0.631271 5.50476 0.796637 6.3361C0.962002 7.16745 1.37018 7.93109 1.96954 8.53046C2.56891 9.12983 3.33255 9.538 4.1639 9.70337C4.99525 9.86873 5.85696 9.78386 6.64007 9.45948C7.42318 9.13511 8.09252 8.5858 8.56344 7.88102C9.03436 7.17623 9.28571 6.34764 9.28571 5.5C9.28571 4.36336 8.83418 3.27327 8.03046 2.46954C7.22673 1.66582 6.13664 1.21429 5 1.21429Z" fill="#8782AA"/>
<path d="M6.89189 7.39429C6.75277 7.53342 6.5272 7.53342 6.38807 7.39429L5.22829 6.23452C4.85389 5.86011 4.64355 5.35231 4.64355 4.82283V2.64621C4.64355 2.44896 4.80345 2.28906 5.0007 2.28906C5.19794 2.28906 5.35784 2.44896 5.35784 2.64621V4.61316C5.35784 5.08714 5.54589 5.54177 5.88071 5.87726L6.89215 6.89072C7.03104 7.02989 7.03092 7.25526 6.89189 7.39429Z" fill="#8782AA"/>
</svg>
