<svg width="104" height="108" viewBox="0 0 104 108" fill="none" xmlns="http://www.w3.org/2000/svg">
<g filter="url(#filter0_d_2402_5158)">
<path d="M38.4 63.2V95C38.4 97.7614 40.6386 100 43.4 100H59.8C62.5614 100 64.8 97.7614 64.8 95V63.2H95C97.7614 63.2 100 60.9614 100 58.2V41.8C100 39.0386 97.7614 36.8 95 36.8H64.8V5C64.8 2.23858 62.5614 0 59.8 0H43.4C40.6386 0 38.4 2.23857 38.4 4.99999V36.8H5C2.23858 36.8 0 39.0386 0 41.8V58.2C0 60.9614 2.23857 63.2 5 63.2H38.4Z" fill="#8F87EE"/>
</g>
<defs>
<filter id="filter0_d_2402_5158" x="0" y="0" width="104" height="108" filterUnits="userSpaceOnUse" color-interpolation-filters="sRGB">
<feFlood flood-opacity="0" result="BackgroundImageFix"/>
<feColorMatrix in="SourceAlpha" type="matrix" values="0 0 0 0 0 0 0 0 0 0 0 0 0 0 0 0 0 0 127 0" result="hardAlpha"/>
<feOffset dx="4" dy="8"/>
<feComposite in2="hardAlpha" operator="out"/>
<feColorMatrix type="matrix" values="0 0 0 0 0.0980392 0 0 0 0 0.0823529 0 0 0 0 0.290196 0 0 0 1 0"/>
<feBlend mode="normal" in2="BackgroundImageFix" result="effect1_dropShadow_2402_5158"/>
<feBlend mode="normal" in="SourceGraphic" in2="effect1_dropShadow_2402_5158" result="shape"/>
</filter>
</defs>
</svg>
