<svg width="13" height="20" viewBox="0 0 13 20" fill="none" xmlns="http://www.w3.org/2000/svg">
<path fill-rule="evenodd" clip-rule="evenodd" d="M4.49938 0.0703125C3.60467 0.0703125 2.87937 0.795616 2.87937 1.69032C2.87937 2.01731 2.76808 2.33457 2.56381 2.5899L1.96948 3.33282C1.93935 3.37048 1.9145 3.41065 1.89482 3.45245C0.854235 3.79215 0.102386 4.77057 0.102386 5.92459V14.0739C0.102386 15.2275 0.853701 16.2056 1.89371 16.5457L2.22236 17.3673C2.31242 17.5924 2.35868 17.8327 2.35868 18.0752C2.35868 19.0985 3.1883 19.9282 4.21169 19.9282H8.18688C9.08159 19.9282 9.8069 19.2029 9.8069 18.3081C9.8069 17.9812 9.91818 17.6639 10.1224 17.4086L10.7168 16.6657C10.7469 16.628 10.7718 16.5878 10.7914 16.546C11.832 16.2063 12.5839 15.2279 12.5839 14.0739V13.0366V9.99924C12.5839 9.66787 12.3152 9.39924 11.9839 9.39924C11.6525 9.39924 11.3839 9.66787 11.3839 9.99924V13.0366V14.0739C11.3839 14.8471 10.7571 15.4739 9.98388 15.4739H2.70239C1.92919 15.4739 1.30239 14.8471 1.30239 14.0739V5.92459C1.30239 5.15139 1.92919 4.52459 2.70239 4.52459H9.98388C10.7571 4.52459 11.3839 5.15139 11.3839 5.92459V6.66749C11.3839 6.99886 11.6525 7.26749 11.9839 7.26749C12.3152 7.26749 12.5839 6.99886 12.5839 6.66749V5.92459C12.5839 4.77098 11.8326 3.79284 10.7926 3.45281L10.4639 2.63119C10.3738 2.40605 10.3276 2.1658 10.3276 1.92331C10.3276 0.89993 9.49796 0.0703125 8.47458 0.0703125H4.49938ZM3.33653 16.9216L3.23744 16.6739H9.17354C8.80661 17.1394 8.6069 17.715 8.6069 18.3081C8.6069 18.5401 8.41885 18.7282 8.18688 18.7282H4.21169C3.85104 18.7282 3.55868 18.4358 3.55868 18.0752C3.55868 17.68 3.48329 17.2885 3.33653 16.9216ZM9.44882 3.32459L9.34973 3.07685C9.20298 2.70997 9.12758 2.31846 9.12758 1.92331C9.12758 1.56267 8.83522 1.27031 8.47458 1.27031H4.49938C4.26741 1.27031 4.07937 1.45836 4.07937 1.69032C4.07937 2.28344 3.87965 2.85907 3.51273 3.32459H9.44882ZM5.15114 10.0424L5.64982 9.2113L6.13694 11.4033C6.27416 12.0208 7.09507 12.154 7.42052 11.6116L8.41846 9.94838H9.38046C9.71183 9.94838 9.98046 9.67975 9.98046 9.34838C9.98046 9.01701 9.71183 8.74838 9.38046 8.74838H8.13536C7.88948 8.74838 7.66163 8.87739 7.53512 9.08823L7.03644 9.91936L6.54932 7.72734C6.4121 7.10985 5.59119 6.97664 5.26575 7.51904L4.2678 9.18229H3.30581C2.97444 9.18229 2.70581 9.45091 2.70581 9.78229C2.70581 10.1137 2.97444 10.3823 3.30581 10.3823H4.5509C4.79678 10.3823 5.02464 10.2533 5.15114 10.0424Z" fill="#50325A"/>
</svg>
