<svg width="80" height="119" viewBox="0 0 80 119" fill="none" xmlns="http://www.w3.org/2000/svg">
<path d="M49.0803 18.3672L8.34785 18.3672C4.0136 18.3672 0.5 21.8808 0.5 26.215L0.5 110.388C0.5 114.723 4.0136 118.236 8.34785 118.236H49.0803C53.4145 118.236 56.9281 114.723 56.9281 110.388L56.9281 26.215C56.9281 21.8808 53.4145 18.3672 49.0803 18.3672Z" fill="#6966B1"/>
<path d="M55.842 18.3672L15.1096 18.3672C10.7753 18.3672 7.26172 21.8808 7.26172 26.215L7.26172 110.388C7.26172 114.723 10.7753 118.236 15.1096 118.236H55.842C60.1763 118.236 63.6899 114.723 63.6899 110.388L63.6899 26.215C63.6899 21.8808 60.1763 18.3672 55.842 18.3672Z" fill="#F0F1F6"/>
<circle cx="35.4743" cy="106.064" r="6.47038" fill="#6966B1"/>
<path d="M60.75 0.4375C63.2779 0.4375 65.7811 0.935416 68.1167 1.90282C70.4522 2.87022 72.5743 4.28817 74.3618 6.0757C76.1493 7.86322 77.5673 9.98533 78.5347 12.3208C79.5021 14.6564 80 17.1596 80 19.6875C80 22.2155 79.5021 24.7186 78.5347 27.0542C77.5673 29.3897 76.1493 31.5118 74.3618 33.2993C72.5743 35.0868 70.4522 36.5048 68.1167 37.4722C65.7811 38.4396 63.2779 38.9375 60.75 38.9375L60.75 19.6875V0.4375Z" fill="#7DBE91"/>
<path d="M60.75 38.9375C55.6446 38.9375 50.7483 36.9094 47.1382 33.2993C43.5281 29.6892 41.5 24.7929 41.5 19.6875C41.5 14.5821 43.5281 9.68578 47.1382 6.0757C50.7483 2.46563 55.6446 0.437505 60.75 0.4375L60.75 19.6875V38.9375Z" fill="#8CD2A2"/>
<path d="M51 17.9375C51 18.4898 51.4477 18.9375 52 18.9375C52.5523 18.9375 53 18.4898 53 17.9375H51ZM70.2071 12.5196C70.5976 12.1291 70.5976 11.4959 70.2071 11.1054L63.8431 4.74143C63.4526 4.35091 62.8195 4.35091 62.4289 4.74143C62.0384 5.13196 62.0384 5.76512 62.4289 6.15565L68.0858 11.8125L62.4289 17.4694C62.0384 17.8599 62.0384 18.493 62.4289 18.8836C62.8195 19.2741 63.4526 19.2741 63.8431 18.8836L70.2071 12.5196ZM58.125 12.8125H69.5V10.8125H58.125V12.8125ZM53 17.9375C53 15.107 55.2945 12.8125 58.125 12.8125V10.8125C54.19 10.8125 51 14.0025 51 17.9375H53Z" fill="white"/>
<path d="M70.5 21.4375C70.5 20.8852 70.0523 20.4375 69.5 20.4375C68.9477 20.4375 68.5 20.8852 68.5 21.4375H70.5ZM51.2929 26.8554C50.9024 27.2459 50.9024 27.8791 51.2929 28.2696L57.6569 34.6336C58.0474 35.0241 58.6805 35.0241 59.0711 34.6336C59.4616 34.243 59.4616 33.6099 59.0711 33.2194L53.4142 27.5625L59.0711 21.9056C59.4616 21.5151 59.4616 20.882 59.0711 20.4914C58.6805 20.1009 58.0474 20.1009 57.6569 20.4914L51.2929 26.8554ZM63.375 26.5625L52 26.5625V28.5625L63.375 28.5625V26.5625ZM68.5 21.4375C68.5 24.268 66.2055 26.5625 63.375 26.5625V28.5625C67.31 28.5625 70.5 25.3725 70.5 21.4375H68.5Z" fill="white"/>
</svg>
