<svg width="360" height="418" viewBox="0 0 360 418" fill="none" xmlns="http://www.w3.org/2000/svg">
<path d="M555.935 -0.0019507H528.101C528.101 0.406279 528.435 0.740285 528.843 0.740285H555.898C555.49 15.3252 543.502 27.0897 528.843 27.0897C528.435 27.0897 528.101 27.4237 528.101 27.8319C528.101 42.788 515.965 54.9235 501.009 54.9235C486.313 54.9235 474.326 43.1591 473.955 28.5741H501.009C501.418 28.5741 501.752 28.2401 501.752 27.8319C501.752 14.2861 492.288 2.92988 479.633 -0.0019507H473.918H472.433H466.718C456.141 2.44743 447.791 10.7976 445.342 21.3744C442.892 10.7976 434.542 2.44743 423.965 -0.0019507H418.25H416.766C416.766 14.6943 405.001 26.6814 390.379 27.0897C390.045 13.8779 380.693 2.89277 368.26 -0.0019507H362.582H361.098H355.383C357.238 0.443391 359.131 0.666062 361.098 0.740285C360.727 15.3252 348.703 27.0897 334.043 27.0897C333.635 27.0897 333.301 27.4237 333.301 27.8319C333.301 42.5282 321.537 54.5153 306.915 54.9235C306.581 41.7117 297.228 30.7266 284.796 27.8319C297.451 24.9001 306.915 13.5439 306.915 -0.0019507H305.43H297.637H296.152H288.359H286.874H279.081H277.596H269.803H268.318H260.525H259.04H251.247H249.762V27.1268C234.584 27.4979 222.337 39.7819 221.966 54.9235C207.603 54.5524 195.987 42.9364 195.616 28.5741H222.671C223.079 28.5741 223.413 28.2401 223.413 27.8319C223.413 14.2861 213.95 2.92988 201.294 -0.0019507H195.579H194.095H188.38C190.235 0.443391 192.128 0.666062 194.095 0.740285V18.7766C190.977 9.42445 183.147 2.26187 173.461 -0.0019507H160.546C149.969 2.44743 141.619 10.7976 139.169 21.3744C136.72 10.7976 128.37 2.44743 117.793 -0.0019507H110.593V8.49665C106.251 8.12553 102.8 4.45147 102.8 -0.0019507H101.315C101.315 5.26793 105.398 9.61001 110.593 9.98112V17.7746C101.13 17.3664 93.5217 9.53578 93.5217 -0.0019507H92.0373C92.0373 10.3894 100.313 18.888 110.593 19.2591V27.0526C96.2309 26.6814 84.652 15.0654 84.2438 0.703174C86.2107 0.666062 88.1034 0.406279 89.959 -0.0390625H84.2438H82.7593H77.0441C78.8997 0.406279 80.7924 0.62895 82.7593 0.703174C82.3882 15.2881 70.364 27.0526 55.7048 27.0526C55.6677 27.0526 55.5935 27.0526 55.5564 27.0526C55.2224 27.1268 54.9626 27.4237 54.9626 27.7948V54.8493C40.6003 54.4782 29.0214 42.8622 28.6503 28.4999C44.0517 28.0917 56.4842 15.4366 56.4842 -0.0390625H54.9997C54.9997 14.6572 43.2352 26.6443 28.6503 27.0154V19.222C38.8561 18.888 47.132 10.3894 47.132 -0.0019507H45.6475C45.6475 9.57289 38.0396 17.4035 28.5761 17.7746V9.98112C33.7717 9.61001 37.854 5.26793 37.854 -0.0019507H36.3696C36.3696 4.45147 32.9182 8.12553 28.5761 8.49665V-0.0019507H0.742236H0V0.740285V28.5741C0.40823 28.5741 0.742236 28.2401 0.742236 27.8319V0.740285C15.1045 1.1114 26.6834 12.7274 27.0916 27.0897C13.8798 27.4608 2.89472 36.813 0 49.2083V56.408C14.9189 56.408 27.0916 68.5807 27.0916 83.4996C27.0916 83.9078 27.4256 84.2418 27.8339 84.2418C42.5301 84.2418 54.5172 96.0063 54.9255 110.628C41.7137 110.962 30.7286 120.315 27.8339 132.747C24.9391 120.315 13.954 110.962 0.742236 110.628C0.705124 108.661 0.445342 106.732 0 104.876V110.591V112.076V117.791C0.445342 115.935 0.668012 114.043 0.742236 112.076C15.3272 112.484 27.0916 124.471 27.0916 139.13C27.0916 139.538 27.4256 139.872 27.8339 139.872H46.6124C35.516 143.584 27.4627 153.938 27.1287 166.222C12.5067 165.851 0.742236 153.864 0.742236 139.167C0.742236 138.759 0.40823 138.425 0 138.425V160.544V167.743H8.4986C8.12749 172.085 4.45342 175.537 0 175.537V177.021C5.26988 177.021 9.61196 172.939 9.98308 167.743H17.7766C17.3683 177.207 9.53773 184.815 0 184.815V186.299C10.3913 186.299 18.8899 178.023 19.261 167.743H27.0545C26.6463 182.328 14.6592 194.093 0 194.093V195.577C15.5127 195.577 28.1679 183.182 28.539 167.743C42.9012 168.115 54.5172 179.731 54.8884 194.056L27.8339 194.093C27.4627 194.093 27.1658 194.353 27.0916 194.687C27.0916 194.724 27.0916 194.798 27.0916 194.835C27.0916 209.754 14.9561 221.927 0 221.927V223.411C14.6963 223.411 26.6463 235.176 27.0545 249.76H19.261C18.8899 239.481 10.3913 231.205 0 231.205V232.689C9.57485 232.689 17.4054 240.297 17.7766 249.76H9.98308C9.61196 244.565 5.26988 240.483 0 240.483V241.967C4.45342 241.967 8.12749 245.418 8.4986 249.76H0V256.96V279.079C0.40823 279.079 0.742236 278.745 0.742236 278.337V259.558C3.85963 268.873 11.6902 276.073 21.3764 278.337C10.7995 280.786 2.44938 289.136 0 299.713V312.628C2.26382 322.314 9.4264 330.108 18.7786 333.262H0V340.462C2.93183 353.117 14.288 362.58 27.8339 362.58C28.2421 362.58 28.5761 362.246 28.5761 361.838V334.784C42.9384 335.155 54.5172 346.771 54.9255 361.133C39.7839 361.541 27.4998 373.788 27.1287 388.93H0V416.764V417.506H0.742236H28.5761C28.5761 417.098 28.2421 416.764 27.8339 416.764H0.742236C1.15047 402.179 13.1376 390.414 27.7967 390.414C28.0936 390.414 28.3534 390.229 28.4648 389.969C28.5019 389.895 28.539 389.783 28.539 389.672C28.539 374.716 40.6745 362.58 55.6306 362.58C70.3269 362.58 82.314 374.345 82.6851 388.93H55.6677C55.2595 388.93 54.9255 389.264 54.9255 389.672C54.9255 403.218 64.389 414.574 77.0441 417.506H89.959C100.536 415.056 108.886 406.706 111.335 396.129C113.785 406.706 122.135 415.056 132.712 417.506H138.427H139.911C139.911 402.81 151.676 390.822 166.298 390.414C166.632 403.626 175.984 414.611 188.417 417.506H195.579H201.294C199.439 417.06 197.546 416.838 195.616 416.764C196.025 402.179 208.012 390.414 222.671 390.414C223.079 390.414 223.413 390.08 223.413 389.672C223.413 374.976 235.177 362.989 249.8 362.58C250.134 375.792 259.486 386.777 271.918 389.672C259.263 392.604 249.8 403.96 249.8 417.506H251.284H259.077H260.562H268.355H269.84H277.633H306.952V390.414C322.13 390.043 334.377 377.759 334.748 362.617C349.111 362.989 360.727 374.605 361.098 388.967H334.006C333.598 388.967 333.264 389.301 333.264 389.709C333.264 403.255 342.728 414.611 355.383 417.543H362.582H368.298C366.442 417.098 364.549 416.875 362.582 416.801V398.764C365.7 408.079 373.53 415.279 383.216 417.543H396.131C406.708 415.094 415.058 406.743 417.508 396.167C419.957 406.743 428.307 415.094 438.884 417.543H446.084V409.044C450.426 409.415 453.877 413.09 453.877 417.543H455.362C455.362 412.273 451.28 407.931 446.084 407.56V399.766C455.547 400.175 463.155 408.005 463.155 417.543H464.64C464.64 407.152 456.364 398.653 446.084 398.282V390.488C460.446 390.86 472.025 402.476 472.433 416.838C470.466 416.875 468.574 417.135 466.755 417.58H472.47H473.955H479.67C477.814 417.135 475.922 416.912 473.992 416.838C474.4 402.253 486.387 390.488 501.046 390.488C501.158 390.488 501.232 390.451 501.343 390.414C501.603 390.303 501.789 390.043 501.789 389.746V362.692C516.151 363.063 527.73 374.679 528.101 389.041C512.7 389.449 500.267 402.104 500.267 417.58H501.752C501.752 402.884 513.516 390.897 528.101 390.526V398.319C517.821 398.727 509.545 407.189 509.545 417.58H511.03C511.03 408.005 518.637 400.175 528.101 399.804V407.597C522.905 407.968 518.823 412.31 518.823 417.58H520.307C520.307 413.127 523.759 409.453 528.101 409.081V417.58H555.935H556.677V416.838V389.004C556.269 389.004 555.935 389.338 555.935 389.746V416.838C541.573 416.43 529.994 404.851 529.623 390.488C542.834 390.154 553.819 380.802 556.714 368.37V361.096C541.795 361.096 529.623 348.923 529.623 334.004C529.623 333.596 529.289 333.262 528.88 333.262C514.184 333.262 502.197 321.498 501.789 306.876C515 306.542 525.986 297.189 528.88 284.757C531.775 297.189 542.76 306.542 555.972 306.876C556.009 308.842 556.269 310.772 556.714 312.628V306.913V305.428V299.676C556.269 301.531 556.046 303.424 555.972 305.391C541.387 304.983 529.623 292.996 529.623 278.337C529.623 277.928 529.289 277.594 528.88 277.594H510.102C521.198 273.883 529.251 263.529 529.585 251.245C544.208 251.616 555.972 263.64 555.972 278.337C555.972 278.745 556.306 279.079 556.714 279.079V249.76H548.216C548.587 245.418 552.261 241.967 556.714 241.967V240.483C551.444 240.483 547.102 244.565 546.731 249.76H538.938C539.346 240.297 547.176 232.689 556.714 232.689V231.205C546.323 231.205 537.824 239.481 537.453 249.76H529.66C530.068 235.176 542.055 223.411 556.714 223.411V221.927C541.201 221.927 528.546 234.322 528.175 249.76C513.813 249.389 502.197 237.773 501.826 223.448H528.88C529.251 223.448 529.548 223.188 529.623 222.854C529.623 222.817 529.623 222.743 529.623 222.706C529.623 207.787 541.758 195.614 556.714 195.614V194.13C542.018 194.13 530.068 182.365 529.66 167.781H537.453C537.861 178.06 546.323 186.336 556.714 186.336V184.852C547.139 184.852 539.309 177.244 538.938 167.781H546.731C547.102 172.976 551.444 177.058 556.714 177.058V175.574C552.261 175.574 548.587 172.123 548.216 167.781H556.714V160.581V138.425C556.306 138.425 555.972 138.759 555.972 139.167V157.946C552.855 148.631 545.024 141.431 535.338 139.167C545.915 136.718 554.265 128.368 556.714 117.791V104.876C554.45 95.1898 547.288 87.3592 537.936 84.2418H556.714V77.0422C553.782 64.387 542.426 54.9235 528.88 54.9235C528.472 54.9235 528.138 55.2575 528.138 55.6658V82.7203C513.776 82.3491 502.197 70.7331 501.789 56.3709C516.93 55.9627 529.177 43.7158 529.585 28.5741H556.714V0.740285V-0.0019507H555.935ZM0.742236 166.259V148.26C3.59984 156.721 10.28 163.401 18.7415 166.259H0.742236ZM0.742236 408.413V390.414H18.7415C10.28 393.272 3.59984 399.952 0.742236 408.413ZM555.935 251.245V269.244C553.077 260.783 546.397 254.103 537.936 251.245H555.935ZM501.752 112.076C516.114 112.447 527.693 124.063 528.101 138.425H501.752V112.076ZM501.752 139.947C516.114 140.318 527.693 151.934 528.064 166.259H520.27C519.899 156.202 511.772 148.111 501.752 147.74V139.947ZM528.101 167.743V194.093C513.739 193.722 502.16 182.106 501.752 167.743H528.101ZM501.752 149.225C510.992 149.596 518.415 157.055 518.786 166.259H510.992C510.621 161.323 506.687 157.389 501.752 157.018V149.225ZM501.752 158.503C505.871 158.874 509.137 162.14 509.508 166.259H501.752V158.503ZM482.453 139.91C482.862 139.91 483.196 139.576 483.196 139.167C483.196 129.592 490.804 121.762 500.267 121.391V129.184C495.071 129.555 490.989 133.897 490.989 139.167C490.989 139.576 491.323 139.91 491.731 139.91C492.14 139.91 492.474 139.576 492.474 139.167C492.474 134.714 495.925 131.04 500.267 130.669V138.462C488.02 138.759 477.629 146.849 473.918 157.946V139.167C473.918 124.471 485.682 112.484 500.267 112.113V119.906C489.987 120.315 481.711 128.776 481.711 139.167C481.711 139.576 482.045 139.91 482.453 139.91ZM500.267 148.445V157.723V166.259H473.918C474.289 151.897 485.905 140.318 500.267 139.91V148.445ZM483.233 306.913H491.026C491.397 311.849 495.331 315.782 500.267 316.154V323.947C491.026 323.576 483.604 316.154 483.233 306.913ZM500.267 325.469V333.262C485.905 332.891 474.326 321.275 473.955 306.913H481.748C482.119 316.97 490.21 325.06 500.267 325.469ZM492.511 306.913H500.267V314.669C496.148 314.298 492.882 311.032 492.511 306.913ZM482.268 305.428C490.729 302.571 497.41 295.89 500.267 287.429V305.428H482.268ZM473.176 305.428C458.219 305.428 446.084 293.293 446.084 278.337C446.084 264.791 436.62 253.435 423.965 250.503C436.398 247.608 445.713 236.623 446.084 223.411C460.706 223.782 472.47 235.806 472.47 250.503C472.47 250.911 472.804 251.245 473.213 251.245C488.169 251.245 500.304 263.381 500.304 278.337C500.267 293.293 488.132 305.428 473.176 305.428ZM417.508 305.428C417.1 305.428 416.766 305.762 416.766 306.17V314.669C412.423 314.298 408.972 310.624 408.972 306.17C408.972 305.762 408.638 305.428 408.23 305.428C407.822 305.428 407.488 305.762 407.488 306.17C407.488 311.44 411.57 315.782 416.766 316.154V323.947C407.302 323.539 399.694 315.708 399.694 306.17C399.694 305.762 399.36 305.428 398.952 305.428C398.544 305.428 398.21 305.762 398.21 306.17C398.21 316.562 406.486 325.06 416.766 325.431V333.225C402.181 332.817 390.416 320.83 390.416 306.17C390.416 291.251 402.552 279.079 417.508 279.079C417.916 279.079 418.25 278.745 418.25 278.337V269.838C422.592 270.209 426.044 273.883 426.044 278.337C426.044 278.745 426.378 279.079 426.786 279.079C427.194 279.079 427.528 278.745 427.528 278.337C427.528 273.067 423.446 268.725 418.25 268.353V260.56C427.714 260.968 435.321 268.799 435.321 278.337C435.321 278.745 435.655 279.079 436.064 279.079C436.472 279.079 436.806 278.745 436.806 278.337C436.806 267.945 428.53 259.447 418.25 259.076V251.282C432.835 251.69 444.599 263.677 444.599 278.337C444.599 293.293 432.464 305.428 417.508 305.428ZM418.25 315.263C421.108 323.724 427.788 330.404 436.249 333.262H418.25V315.263ZM361.84 305.428C347.144 305.428 335.157 293.664 334.748 279.042C350.15 278.633 362.582 265.978 362.582 250.503C362.582 250.094 362.248 249.76 361.84 249.76H334.786C335.194 235.176 347.181 223.411 361.84 223.411C376.796 223.411 388.932 235.547 388.932 250.503C388.932 250.725 389.006 250.911 389.154 251.022C389.303 251.171 389.488 251.245 389.674 251.245C404.37 251.245 416.357 263.009 416.728 277.594H389.637C389.229 277.594 388.895 277.928 388.895 278.337V306.17C388.895 319.716 398.358 331.072 411.013 334.004C401.327 336.231 393.496 343.431 390.379 352.783V334.004C390.416 318.232 377.613 305.428 361.84 305.428ZM333.264 260.486V268.279C323.8 267.871 316.193 260.04 316.193 250.503C316.193 250.094 315.859 249.76 315.45 249.76C315.042 249.76 314.708 250.094 314.708 250.503C314.708 260.894 322.984 269.393 333.264 269.764V277.557C318.679 277.149 306.915 265.162 306.915 250.503V223.411H333.264V250.503V259.001C328.922 258.63 325.471 254.956 325.471 250.503C325.471 250.094 325.137 249.76 324.728 249.76C324.32 249.76 323.986 250.094 323.986 250.503C323.986 255.773 328.068 260.115 333.264 260.486ZM278.339 223.411C290.919 223.411 301.645 215.247 305.43 203.89V222.669C305.43 237.625 293.295 249.76 278.339 249.76H250.505C236.959 249.76 225.603 259.224 222.671 271.879C220.444 262.193 213.244 254.362 203.892 251.245H222.671C238.443 251.245 251.247 238.441 251.247 222.669C251.247 207.713 263.382 195.577 278.339 195.577C278.747 195.577 279.081 195.243 279.081 194.835C279.081 194.427 278.747 194.093 278.339 194.093C265.758 194.093 255.032 202.257 251.247 213.614V194.835C251.247 179.879 263.382 167.743 278.339 167.743H306.172C319.718 167.743 331.074 158.28 334.006 145.625C336.233 155.311 343.433 163.142 352.785 166.259H334.006C318.234 166.259 305.43 179.062 305.43 194.835C305.43 209.791 293.295 221.927 278.339 221.927C277.93 221.927 277.596 222.261 277.596 222.669C277.596 223.077 277.93 223.411 278.339 223.411ZM288.322 251.245H296.115C295.744 260.486 288.285 267.908 279.044 268.316V260.523C284.017 260.115 287.951 256.181 288.322 251.245ZM279.081 259.001V251.245H286.837C286.466 255.364 283.2 258.63 279.081 259.001ZM297.637 251.245H305.43C305.059 265.607 293.443 277.186 279.081 277.594V269.801C289.138 269.393 297.228 261.302 297.637 251.245ZM287.431 249.76C295.892 246.903 302.573 240.223 305.43 231.761V249.76H287.431ZM277.596 251.245V269.244C274.739 260.783 268.059 254.103 259.597 251.245H277.596ZM223.413 279.079H241.412C232.951 281.936 226.271 288.617 223.413 297.078V279.079ZM194.095 259.781V269.059V277.594H167.745C168.116 263.232 179.732 251.653 194.095 251.245V259.781ZM148.225 333.262C156.686 330.404 163.403 323.724 166.261 315.226V333.262H148.225ZM166.261 334.747V352.746C163.403 344.284 156.723 337.604 148.262 334.747H166.261ZM139.169 277.594C138.761 277.594 138.427 277.928 138.427 278.337C138.427 293.256 126.291 305.428 111.335 305.428C96.6391 305.428 84.652 293.664 84.2809 279.079H92.0744C92.4826 289.359 100.944 297.635 111.335 297.635C111.744 297.635 112.078 297.301 112.078 296.892C112.078 296.484 111.744 296.15 111.335 296.15C101.761 296.15 93.93 288.542 93.5589 279.079H101.352C101.723 284.274 106.066 288.357 111.335 288.357C111.744 288.357 112.078 288.023 112.078 287.615C112.078 287.206 111.744 286.872 111.335 286.872C106.882 286.872 103.208 283.421 102.837 279.079H111.335C111.744 279.079 112.078 278.745 112.078 278.337C112.078 263.64 123.842 251.653 138.427 251.245C138.761 264.457 148.113 275.442 160.546 278.337C150.859 280.563 143.029 287.763 139.911 297.115V278.337C139.911 277.928 139.577 277.594 139.169 277.594ZM138.427 287.429V305.428H120.428C128.889 302.571 135.569 295.89 138.427 287.429ZM74.2236 277.594C73.8154 277.594 73.4814 277.928 73.4814 278.337C73.4814 287.911 65.8735 295.742 56.4099 296.113V288.32C61.6056 287.949 65.6879 283.606 65.6879 278.337C65.6879 277.928 65.3539 277.594 64.9457 277.594C64.5374 277.594 64.2034 277.928 64.2034 278.337C64.2034 282.79 60.752 286.464 56.4099 286.835V279.042C68.6568 278.745 79.0481 270.654 82.7593 259.558V278.337C82.7593 293.033 70.9949 305.02 56.4099 305.391V297.598C66.6899 297.189 74.9658 288.728 74.9658 278.337C74.9658 277.928 74.6318 277.594 74.2236 277.594ZM56.4099 269.059V259.781V251.245H82.7593C82.3882 265.607 70.7722 277.186 56.4099 277.594V269.059ZM64.723 249.76C76.0421 245.975 84.2438 235.25 84.2438 222.669C84.2438 207.156 71.8484 194.501 56.4099 194.13C56.7811 179.768 68.3971 168.152 82.7593 167.781V175.574C72.4794 175.982 64.2034 184.444 64.2034 194.835C64.2034 195.243 64.5374 195.577 64.9457 195.577C65.3539 195.577 65.6879 195.243 65.6879 194.835C65.6879 185.26 73.2958 177.43 82.7593 177.058V184.852C77.5637 185.223 73.4814 189.565 73.4814 194.835C73.4814 195.243 73.8154 195.577 74.2236 195.577C74.6318 195.577 74.9658 195.243 74.9658 194.835C74.9658 190.382 78.4172 186.708 82.7593 186.336V194.835C82.7593 208.381 92.2228 219.737 104.878 222.669C92.4455 225.564 83.0933 236.549 82.7593 249.76H64.723ZM73.4443 110.591H65.6508C65.2797 105.655 61.3458 101.722 56.4099 101.35V93.5569C65.6508 93.928 73.0731 101.35 73.4443 110.591ZM56.4099 92.0724V84.279C70.7722 84.6501 82.3511 96.2661 82.7222 110.591H74.9287C74.5576 100.534 66.4672 92.4436 56.4099 92.0724ZM64.1663 110.591H56.4099V102.835C60.5294 103.206 63.7952 106.472 64.1663 110.591ZM74.4092 112.076C65.9477 114.933 59.2676 121.613 56.4099 130.075V112.076H74.4092ZM83.5016 112.076C98.4205 112.076 110.593 124.211 110.593 139.167C110.593 152.713 120.057 164.069 132.712 167.001C120.279 169.896 110.964 180.881 110.593 194.093C95.9711 193.722 84.2067 181.697 84.2067 167.001C84.2067 166.593 83.8727 166.259 83.4644 166.259C68.5455 166.259 56.3728 154.123 56.3728 139.167C56.4099 124.211 68.5455 112.076 83.5016 112.076ZM139.169 112.076C139.577 112.076 139.911 111.742 139.911 111.333V102.835C144.254 103.206 147.705 106.88 147.705 111.333C147.705 111.742 148.039 112.076 148.447 112.076C148.855 112.076 149.189 111.742 149.189 111.333C149.189 106.064 145.107 101.722 139.911 101.35V93.5569C149.375 93.9651 156.983 101.796 156.983 111.333C156.983 111.742 157.317 112.076 157.725 112.076C158.133 112.076 158.467 111.742 158.467 111.333C158.467 100.942 150.191 92.4436 139.911 92.0724V84.279C154.496 84.6872 166.261 96.6743 166.261 111.333C166.261 126.252 154.088 138.425 139.169 138.425C138.872 138.425 138.613 138.611 138.501 138.87C138.464 138.945 138.427 139.056 138.427 139.167V147.666C134.085 147.295 130.634 143.621 130.634 139.167C130.634 138.759 130.3 138.425 129.891 138.425C129.483 138.425 129.149 138.759 129.149 139.167C129.149 144.437 133.231 148.779 138.427 149.15V156.944C128.964 156.536 121.356 148.705 121.356 139.167C121.356 138.759 121.022 138.425 120.613 138.425C120.205 138.425 119.871 138.759 119.871 139.167C119.871 149.559 128.147 158.057 138.427 158.428V166.222C123.842 165.814 112.078 153.826 112.078 139.167C112.078 124.211 124.213 112.076 139.169 112.076ZM112.078 130.075V112.076H130.077C121.615 114.933 114.935 121.613 112.078 130.075ZM138.427 102.241C135.569 93.7796 128.889 87.0995 120.428 84.2418H138.427V102.241ZM166.261 120.426V138.425H148.262C156.723 135.567 163.403 128.887 166.261 120.426ZM167.745 221.927V194.835C167.745 194.427 167.411 194.093 167.003 194.093C151.231 194.093 138.427 206.896 138.427 222.669C138.427 223.077 138.761 223.411 139.169 223.411H157.948C146.851 227.122 138.798 237.476 138.464 249.723C123.879 249.352 112.115 237.328 112.115 222.669C112.115 207.713 124.25 195.577 139.206 195.577C139.243 195.577 139.318 195.577 139.355 195.577C139.392 195.577 139.429 195.577 139.429 195.54H139.466C139.503 195.54 139.54 195.503 139.54 195.503C139.54 195.503 139.577 195.503 139.577 195.466C139.615 195.429 139.652 195.429 139.689 195.392C139.689 195.392 139.689 195.392 139.689 195.355C139.726 195.317 139.726 195.28 139.763 195.28L139.8 195.243C139.8 195.206 139.837 195.206 139.837 195.169C139.837 195.132 139.837 195.132 139.874 195.095C139.874 195.058 139.874 195.058 139.911 195.021C139.911 194.983 139.911 194.909 139.911 194.872V167.781H166.298C166.669 182.959 178.953 195.206 194.095 195.577C193.687 209.902 182.108 221.518 167.745 221.927ZM194.095 203.927V221.927H176.096C184.557 219.069 191.237 212.389 194.095 203.927ZM167.745 231.761C170.603 240.223 177.283 246.903 185.745 249.76H167.745V231.761ZM166.261 195.577V221.927H139.911C140.32 207.564 151.899 195.985 166.261 195.577ZM111.335 249.76C110.927 249.76 110.593 250.094 110.593 250.503V277.557C96.0082 277.149 84.2438 265.162 84.2438 250.503C84.2438 235.806 96.0082 223.819 110.63 223.411C110.964 235.658 119.018 246.012 130.114 249.76H111.335ZM130.077 251.245C121.615 254.103 114.935 260.783 112.078 269.244V251.245H130.077ZM110.593 204.818V212.612C101.352 212.24 93.93 204.781 93.5589 195.577H101.352C101.723 200.513 105.657 204.447 110.593 204.818ZM102.837 195.577H110.593V203.334C106.474 202.963 103.208 199.697 102.837 195.577ZM102.057 194.093H92.7795H84.2438V176.094C87.1014 184.555 93.7815 191.235 102.243 194.093H102.057ZM92.0373 195.577C92.4084 205.635 100.536 213.725 110.556 214.096V221.89C96.1938 221.518 84.6149 209.902 84.2438 195.577H92.0373ZM130.077 195.577C121.615 198.435 114.935 205.115 112.078 213.576V195.577H130.077ZM112.078 194.093C112.449 179.73 124.065 168.152 138.427 167.743V194.093H112.078ZM139.911 166.259V148.26C142.769 156.721 149.449 163.401 157.911 166.259H139.911ZM77.0441 167.001C67.3579 169.228 59.5273 176.428 56.4099 185.78V167.001V148.223C59.5273 157.575 67.3579 164.774 77.0441 167.001ZM82.7593 221.927H56.4099V195.577C70.7722 195.985 82.3511 207.564 82.7593 221.927ZM84.2438 259.595C87.1014 268.057 93.7815 274.737 102.243 277.594H102.057H92.7795H84.2438V259.595ZM166.261 279.079V305.428H139.911C140.32 291.066 151.899 279.487 166.261 279.079ZM139.911 250.503C139.911 235.806 151.676 223.819 166.261 223.448V231.242C155.981 231.65 147.705 240.111 147.705 250.503C147.705 261.154 156.352 269.801 167.003 269.801C167.411 269.801 167.745 269.467 167.745 269.059C167.745 268.65 167.411 268.316 167.003 268.316C157.168 268.316 149.189 260.337 149.189 250.503C149.189 240.928 156.797 233.097 166.261 232.726V240.52C161.065 240.891 156.983 245.233 156.983 250.503C156.983 256.032 161.473 260.523 167.003 260.523C167.411 260.523 167.745 260.189 167.745 259.781C167.745 259.372 167.411 259.038 167.003 259.038C162.29 259.038 158.467 255.216 158.467 250.503C158.467 246.049 161.919 242.375 166.261 242.004V250.503C166.261 250.911 166.595 251.245 167.003 251.245H185.782C174.685 254.956 166.632 265.31 166.298 277.594C151.676 277.186 139.911 265.199 139.911 250.503ZM167.745 279.079H185.782C177.32 281.936 170.603 288.617 167.745 297.115V279.079ZM167.745 306.913H194.095C193.724 321.275 182.108 332.854 167.745 333.262V306.913ZM186.338 305.428C186.709 301.309 189.975 298.043 194.095 297.672V305.428H186.338ZM184.854 305.428H177.06C177.432 296.187 184.891 288.765 194.095 288.394V296.187C189.159 296.558 185.225 300.492 184.854 305.428ZM175.576 305.428H167.782C168.154 291.066 179.77 279.487 194.095 279.116V286.909C184.037 287.281 175.947 295.371 175.576 305.428ZM167.782 223.411H194.095V249.76C179.732 249.352 168.154 237.773 167.782 223.411ZM167.745 167.001C167.745 166.593 167.411 166.259 167.003 166.259C152.307 166.259 140.32 154.494 139.949 139.91H167.04C167.448 139.91 167.782 139.576 167.782 139.167V111.333C167.782 97.7877 158.319 86.4314 145.664 83.4996C155.35 81.2729 163.181 74.0732 166.298 64.721V83.4996C166.298 99.2721 179.102 112.076 194.874 112.076C209.57 112.076 221.557 123.84 221.966 138.462C206.564 138.87 194.132 151.526 194.132 167.001C194.132 167.409 194.466 167.743 194.874 167.743H221.929C221.52 182.328 209.533 194.093 194.874 194.093C179.881 194.093 167.745 181.957 167.745 167.001ZM223.413 157.018V149.225C232.877 149.633 240.484 157.463 240.484 167.001C240.484 167.409 240.818 167.743 241.227 167.743C241.635 167.743 241.969 167.409 241.969 167.001C241.969 156.61 233.693 148.111 223.413 147.74V139.947C237.998 140.355 249.762 152.342 249.762 167.001V194.093H223.413V167.001V158.503C227.755 158.874 231.207 162.548 231.207 167.001C231.207 167.409 231.541 167.743 231.949 167.743C232.357 167.743 232.691 167.409 232.691 167.001C232.691 161.731 228.609 157.389 223.413 157.018ZM249.762 195.577V221.927C235.4 221.556 223.821 209.94 223.413 195.577H249.762ZM249.762 223.411C249.391 237.773 237.775 249.389 223.413 249.76C223.005 234.619 210.758 222.372 195.616 221.964C195.987 207.601 207.603 195.985 221.966 195.614C222.337 210.756 234.584 223.003 249.762 223.411ZM213.616 195.577C205.154 198.435 198.437 205.115 195.579 213.614V195.577H213.616ZM203.929 194.093C212.391 191.235 219.071 184.555 221.929 176.094V194.093H203.929ZM195.579 223.411C209.941 223.782 221.52 235.398 221.929 249.76H195.579V223.411ZM221.929 148.445V157.723V166.259H195.579C195.95 151.897 207.566 140.318 221.929 139.91V148.445ZM195.579 296.892V287.615V279.079C209.941 279.45 221.52 291.066 221.929 305.428H195.579V296.892ZM195.579 277.631V269.838C199.921 270.209 203.373 273.883 203.373 278.337C203.373 278.745 203.707 279.079 204.115 279.079C204.523 279.079 204.857 278.745 204.857 278.337C204.857 273.067 200.775 268.725 195.579 268.353V260.56C205.043 260.968 212.651 268.799 212.651 278.337C212.651 278.745 212.985 279.079 213.393 279.079C213.801 279.079 214.135 278.745 214.135 278.337C214.135 267.945 205.859 259.447 195.579 259.076V251.282C210.164 251.69 221.929 263.677 221.929 278.337V297.115C218.217 286.019 207.826 277.928 195.579 277.631ZM268.355 166.259H260.562C260.933 157.018 268.393 149.596 277.633 149.188V156.981C272.66 157.389 268.727 161.323 268.355 166.259ZM277.596 158.503V166.259H269.84C270.211 162.14 273.477 158.874 277.596 158.503ZM259.077 166.259H251.284C251.655 151.897 263.271 140.318 277.633 139.91V147.703C267.539 148.111 259.449 156.202 259.077 166.259ZM269.246 167.743C260.785 170.601 254.105 177.281 251.247 185.743V167.743H269.246ZM279.081 166.259V148.26C281.938 156.721 288.618 163.401 297.08 166.259H279.081ZM333.264 138.425H315.265C323.726 135.567 330.406 128.887 333.264 120.426V138.425ZM361.098 139.91V147.703C356.756 147.332 353.304 143.658 353.304 139.204C353.304 138.796 352.97 138.462 352.562 138.462C352.154 138.462 351.82 138.796 351.82 139.204C351.82 144.474 355.902 148.816 361.098 149.188V156.981C351.634 156.573 344.026 148.742 344.026 139.204C344.026 138.796 343.692 138.462 343.284 138.462C342.876 138.462 342.542 138.796 342.542 139.204C342.542 149.596 350.818 158.094 361.098 158.465V166.259C346.513 165.851 334.748 153.864 334.748 139.204V120.426C338.46 131.522 348.851 139.576 361.098 139.91ZM334.748 112.076H361.098V138.425C346.736 138.017 335.157 126.438 334.748 112.076ZM343.062 221.927C351.523 219.069 358.24 212.389 361.098 203.89V221.927H343.062ZM352.748 223.411C344.286 226.269 337.606 232.949 334.748 241.41V223.411H352.748ZM361.098 167.743V194.093C346.736 193.722 335.157 182.106 334.748 167.743H361.098ZM306.915 195.577C321.277 195.948 332.856 207.564 333.264 221.927H306.915V195.577ZM306.952 194.13C307.323 179.768 318.939 168.152 333.301 167.781C333.709 182.922 345.956 195.169 361.098 195.577C360.727 209.94 349.111 221.556 334.748 221.927C334.34 206.748 322.093 194.501 306.952 194.13ZM334.748 269.059V259.781V251.245H361.098C360.727 265.607 349.111 277.186 334.748 277.594V269.059ZM362.582 157.723V148.445V139.91H388.932C388.561 154.272 376.945 165.851 362.582 166.259V157.723ZM408.453 84.2418C399.991 87.0995 393.274 93.7796 390.416 102.278V84.2418H408.453ZM390.416 82.7574V64.7581C393.274 73.2196 399.954 79.8998 408.415 82.7574H390.416ZM417.508 139.91C417.916 139.91 418.25 139.576 418.25 139.167C418.25 124.248 430.386 112.076 445.342 112.076C460.038 112.076 472.025 123.84 472.396 138.425H464.603C464.194 128.145 455.733 119.869 445.342 119.869C444.933 119.869 444.599 120.203 444.599 120.611C444.599 121.02 444.933 121.354 445.342 121.354C454.917 121.354 462.747 128.962 463.118 138.425H455.325C454.954 133.229 450.612 129.147 445.342 129.147C444.933 129.147 444.599 129.481 444.599 129.889C444.599 130.298 444.933 130.632 445.342 130.632C449.795 130.632 453.469 134.083 453.84 138.425H445.342C444.933 138.425 444.599 138.759 444.599 139.167C444.599 153.864 432.835 165.851 418.25 166.259C417.916 153.047 408.564 142.062 396.131 139.204C405.818 136.978 413.648 129.778 416.766 120.463V139.167C416.766 139.576 417.1 139.91 417.508 139.91ZM418.25 130.075V112.076H436.249C427.788 114.933 421.108 121.613 418.25 130.075ZM446.084 212.686V204.892C455.325 205.263 462.747 212.723 463.118 221.927H455.325C454.954 216.991 451.02 213.057 446.084 212.686ZM453.84 221.927H446.084V214.17C450.203 214.541 453.469 217.807 453.84 221.927ZM454.62 223.411H463.898H472.433V241.41C469.576 232.949 462.896 226.269 454.434 223.411H454.62ZM464.64 221.927C464.269 211.869 456.141 203.779 446.121 203.408V195.614C460.483 195.985 472.062 207.601 472.433 221.927H464.64ZM446.047 194.093C445.713 181.846 437.66 171.492 426.563 167.743H445.342C445.75 167.743 446.084 167.409 446.084 167.001V139.947C460.669 140.355 472.433 152.342 472.433 167.001C472.433 181.697 460.669 193.685 446.047 194.093ZM426.6 221.927C435.062 219.069 441.742 212.389 444.599 203.927V221.927H426.6ZM444.599 223.411C444.228 237.773 432.612 249.352 418.25 249.76V223.411H444.599ZM417.508 221.927C417.471 221.927 417.396 221.927 417.359 221.927C417.322 221.927 417.285 221.927 417.248 221.964H417.211C417.174 221.964 417.137 222.001 417.1 222.001H417.062C416.988 222.038 416.914 222.112 416.877 222.186V222.224C416.84 222.261 416.84 222.298 416.84 222.335V222.372C416.84 222.409 416.803 222.446 416.803 222.483C416.803 222.52 416.803 222.595 416.803 222.632V249.723H390.416C390.045 234.545 377.761 222.298 362.619 221.927C362.991 207.564 374.607 195.948 388.969 195.577V222.669C388.969 223.077 389.303 223.411 389.711 223.411C405.484 223.411 418.287 210.608 418.287 194.835C418.287 194.427 417.953 194.093 417.545 194.093H398.766C409.863 190.382 417.916 180.027 418.25 167.743C432.835 168.115 444.599 180.139 444.599 194.798C444.599 209.791 432.464 221.927 417.508 221.927ZM416.766 259.781V269.059V269.244C413.908 260.783 407.228 254.103 398.766 251.245H416.766V259.781ZM388.932 185.743C386.074 177.281 379.394 170.601 370.932 167.743H388.932V185.743ZM390.416 221.927V195.577H416.766C416.357 209.94 404.778 221.518 390.416 221.927ZM426.6 166.259C435.062 163.401 441.742 156.721 444.599 148.26V166.259H426.6ZM472.433 157.909C469.576 149.447 462.896 142.767 454.434 139.91H454.62H463.898H472.433V157.909ZM390.416 138.425V112.076H416.766C416.357 126.438 404.778 138.017 390.416 138.425ZM416.766 167.001C416.766 181.697 405.001 193.685 390.416 194.093V186.299C400.696 185.891 408.972 177.43 408.972 167.038C408.972 156.387 400.325 147.74 389.674 147.74C389.266 147.74 388.932 148.074 388.932 148.482C388.932 148.891 389.266 149.225 389.674 149.225C399.509 149.225 407.488 157.204 407.488 167.038C407.488 176.613 399.88 184.444 390.416 184.815V177.021C395.612 176.65 399.694 172.308 399.694 167.038C399.694 161.509 395.204 157.018 389.674 157.018C389.266 157.018 388.932 157.352 388.932 157.76C388.932 158.169 389.266 158.503 389.674 158.503C394.387 158.503 398.21 162.325 398.21 167.038C398.21 171.492 394.758 175.166 390.416 175.537V167.001C390.416 166.593 390.082 166.259 389.674 166.259H370.895C381.992 162.548 390.045 152.194 390.379 139.91C405.001 140.318 416.766 152.305 416.766 167.001ZM388.932 138.425H370.895C379.357 135.567 386.074 128.887 388.932 120.389V138.425ZM388.932 110.591H362.582C362.953 96.229 374.569 84.6501 388.932 84.2418V110.591ZM370.339 112.076C369.968 116.195 366.702 119.461 362.582 119.832V112.076H370.339ZM371.823 112.076H379.617C379.246 121.317 371.786 128.739 362.582 129.11V121.317C367.518 120.945 371.452 117.012 371.823 112.076ZM381.138 112.076H388.932C388.561 126.438 376.945 138.017 362.619 138.388V130.594C372.64 130.223 380.73 122.133 381.138 112.076ZM388.932 194.093H362.582V167.781C376.945 168.152 388.523 179.73 388.932 194.093ZM380.582 195.577C372.12 198.435 365.44 205.115 362.582 213.576V195.577H380.582ZM408.415 279.079C399.954 281.936 393.274 288.617 390.416 297.078V279.079H408.415ZM444.599 287.429V305.428H426.6C435.062 302.571 441.742 295.89 444.599 287.429ZM479.633 250.503C489.319 248.276 497.15 241.076 500.267 231.724V250.503V269.281C497.15 259.929 489.319 252.729 479.633 250.503ZM500.267 221.927C485.905 221.556 474.326 209.94 473.918 195.577H500.267V221.927ZM472.433 194.835C472.433 210.348 484.829 223.003 500.267 223.374C499.896 237.736 488.28 249.352 473.918 249.723V241.93C484.198 241.522 492.474 233.06 492.474 222.669C492.474 222.261 492.14 221.927 491.731 221.927C491.323 221.927 490.989 222.261 490.989 222.669C490.989 232.244 483.381 240.074 473.918 240.445V232.652C479.113 232.281 483.196 227.939 483.196 222.669C483.196 222.261 482.862 221.927 482.453 221.927C482.045 221.927 481.711 222.261 481.711 222.669C481.711 227.122 478.26 230.796 473.918 231.167V222.669C473.918 209.123 464.454 197.767 451.799 194.835C464.232 191.94 473.584 180.955 473.918 167.743H491.954C480.635 171.529 472.433 182.254 472.433 194.835ZM491.917 54.9235H473.918V36.9243C476.775 45.3858 483.455 52.0659 491.917 54.9235ZM500.267 56.408V74.4443C497.41 65.9828 490.729 59.2656 482.231 56.408H500.267ZM473.918 18.554V9.276V0.740285C488.28 1.1114 499.859 12.7274 500.267 27.0897H473.918V18.554ZM473.881 56.408C488.243 56.7791 499.859 68.3951 500.23 82.7574C485.088 83.1656 472.841 95.4125 472.433 110.554C458.071 110.183 446.455 98.567 446.084 84.2047C461.263 83.8336 473.51 71.5867 473.881 56.408ZM500.267 84.2418V110.591H473.918C474.326 96.229 485.905 84.6501 500.267 84.2418ZM446.084 82.7574V56.408H472.433C472.025 70.7703 460.446 82.3491 446.084 82.7574ZM446.084 27.8319C446.084 13.1356 457.848 1.14852 472.433 0.740285V8.53376C462.153 8.94199 453.877 17.4035 453.877 27.7948C453.877 28.203 454.211 28.537 454.62 28.537C455.028 28.537 455.362 28.203 455.362 27.7948C455.362 18.2199 462.97 10.3894 472.433 10.0182V17.8117C467.238 18.1828 463.155 22.5249 463.155 27.7948C463.155 28.203 463.489 28.537 463.898 28.537C464.306 28.537 464.64 28.203 464.64 27.7948C464.64 23.3414 468.091 19.6673 472.433 19.2962V27.7948V54.8864H446.084V27.8319ZM418.25 0.740285C432.612 1.1114 444.191 12.7274 444.562 27.0897H436.769C436.398 17.0324 428.27 8.94199 418.25 8.53376V0.740285ZM444.599 28.5741V46.5734C441.742 38.1119 435.062 31.4317 426.6 28.5741H444.599ZM418.25 10.0182C427.491 10.3894 434.913 17.8488 435.284 27.0897H427.491C427.12 22.1538 423.186 18.2199 418.25 17.8488V10.0182ZM418.25 19.3333C422.369 19.7044 425.635 22.9703 426.006 27.0897H418.25V19.3333ZM416.766 9.09044V27.0897H398.766C407.228 24.2321 413.908 17.5519 416.766 9.09044ZM398.247 28.5741C398.655 38.8541 407.116 47.13 417.508 47.13C417.916 47.13 418.25 46.796 418.25 46.3878C418.25 45.9796 417.916 45.6456 417.508 45.6456C407.933 45.6456 400.102 38.0376 399.731 28.5741H407.525C407.896 33.7698 412.238 37.8521 417.508 37.8521C417.916 37.8521 418.25 37.5181 418.25 37.1099C418.25 36.7016 417.916 36.3676 417.508 36.3676C413.054 36.3676 409.38 32.9162 409.009 28.5741H417.508C432.427 28.5741 444.599 40.7468 444.599 55.6658V74.4443C440.814 63.1252 430.089 54.9235 417.508 54.9235C402.812 54.9235 390.824 43.1591 390.453 28.5741H398.247ZM417.508 56.408C432.464 56.408 444.599 68.5807 444.599 83.4996C444.599 99.2721 457.403 112.076 473.176 112.076H491.954C482.639 115.193 475.439 123.024 473.176 132.71C470.244 120.055 458.887 110.591 445.342 110.591H417.508H409.009C409.38 106.249 413.054 102.798 417.508 102.798C417.916 102.798 418.25 102.464 418.25 102.056C418.25 101.647 417.916 101.313 417.508 101.313C412.238 101.313 407.896 105.396 407.525 110.591H399.731C400.139 101.128 407.97 93.5198 417.508 93.5198C417.916 93.5198 418.25 93.1858 418.25 92.7776C418.25 92.3693 417.916 92.0353 417.508 92.0353C407.116 92.0353 398.618 100.311 398.247 110.591H390.453C390.862 96.0063 402.812 84.2418 417.508 84.2418C417.916 84.2418 418.25 83.9078 418.25 83.4996C418.25 83.0914 417.916 82.7574 417.508 82.7574C402.589 82.7574 390.416 70.5847 390.416 55.6658C390.416 55.6286 390.416 55.5544 390.416 55.5173C390.342 55.1833 390.045 54.9235 389.674 54.9235H362.619C362.991 40.5613 374.607 28.9824 388.969 28.6112C389.34 44.0126 401.995 56.408 417.508 56.408ZM362.582 0.740285C376.945 1.1114 388.523 12.7274 388.932 27.0897H362.582V0.740285ZM362.582 28.5741H380.582C372.12 31.4317 365.44 38.1119 362.582 46.5734V28.5741ZM362.582 56.408H388.932C388.561 70.7703 376.945 82.3491 362.582 82.7574V56.408ZM361.84 84.2418C374.421 84.2418 385.146 76.0772 388.932 64.721V82.7574C373.753 83.1285 361.506 95.4125 361.135 110.554C346.773 110.183 335.157 98.567 334.786 84.2047H342.579C342.987 94.4847 351.449 102.761 361.84 102.761C362.248 102.761 362.582 102.427 362.582 102.018C362.582 101.61 362.248 101.276 361.84 101.276C352.265 101.276 344.435 93.6682 344.064 84.2047H351.857C352.228 89.4004 356.57 93.4827 361.84 93.4827C362.248 93.4827 362.582 93.1487 362.582 92.7404C362.582 92.3322 362.248 91.9982 361.84 91.9982C357.387 91.9982 353.713 88.5468 353.341 84.2047H361.84V84.2418ZM334.748 82.7574C335.12 68.3951 346.736 56.8162 361.098 56.408V82.7574H334.748ZM361.098 9.05333V27.8319V46.6105C357.98 37.2954 350.15 30.0957 340.464 27.8319C350.15 25.6052 357.98 18.4055 361.098 9.05333ZM334.748 55.6658V47.1672C339.091 47.5383 342.542 51.2123 342.542 55.6658C342.542 56.074 342.876 56.408 343.284 56.408C343.692 56.408 344.026 56.074 344.026 55.6658C344.026 50.3959 339.944 46.0538 334.748 45.6827V37.8892C344.212 38.2974 351.82 46.128 351.82 55.6658C351.82 56.074 352.154 56.408 352.562 56.408C352.97 56.408 353.304 56.074 353.304 55.6658C353.304 45.2745 345.028 36.7758 334.748 36.4047V28.6112C349.111 28.9824 360.69 40.5984 361.098 54.9606C345.696 55.3689 333.264 68.024 333.264 83.4996C333.264 96.0805 341.466 106.806 352.785 110.591H334.748C334.414 97.3794 325.062 86.3943 312.63 83.4996C325.285 80.5678 334.748 69.2116 334.748 55.6658ZM333.264 36.9243V54.9235H324.728H315.45H315.265C323.726 52.0659 330.406 45.3858 333.264 36.9243ZM306.915 56.408H314.671C314.3 60.5274 311.034 63.7932 306.915 64.1644V56.408ZM306.915 65.6488C311.85 65.2777 315.784 61.3439 316.155 56.408H323.949C323.578 65.6488 316.118 73.0712 306.915 73.4423V65.6488ZM306.915 74.9268C316.972 74.5557 325.062 66.4282 325.433 56.408H333.227C332.856 70.7703 321.24 82.3491 306.915 82.7203V74.9268ZM333.264 111.333C333.264 126.03 321.5 138.017 306.915 138.425V111.333C306.915 110.925 306.581 110.591 306.172 110.591H287.394C298.49 106.88 306.544 96.5259 306.878 84.2418C321.5 84.6501 333.264 96.6372 333.264 111.333ZM305.43 112.076V130.075C302.573 121.613 295.892 114.933 287.431 112.076H305.43ZM305.43 74.4072C302.573 65.9457 295.892 59.2656 287.431 56.408H305.43V74.4072ZM305.43 54.9235H279.081V28.5741C293.443 28.9824 305.022 40.5613 305.43 54.9235ZM251.247 0.740285H269.246C260.785 3.59789 254.105 10.278 251.247 18.7395V0.740285ZM250.505 28.5741C250.727 28.5741 250.913 28.4999 251.024 28.3515C251.173 28.203 251.247 28.0175 251.247 27.8319C251.247 12.8758 263.382 0.740285 278.339 0.740285H286.837C286.466 5.08237 282.792 8.53376 278.339 8.53376C277.93 8.53376 277.596 8.86777 277.596 9.276C277.596 9.68423 277.93 10.0182 278.339 10.0182C283.608 10.0182 287.951 5.93594 288.322 0.740285H296.115C295.707 10.2038 287.876 17.8117 278.339 17.8117C277.93 17.8117 277.596 18.1457 277.596 18.554C277.596 18.9622 277.93 19.2962 278.339 19.2962C288.73 19.2962 297.228 11.0203 297.6 0.740285H305.393C304.985 15.3252 292.998 27.0897 278.339 27.0897C277.93 27.0897 277.596 27.4237 277.596 27.8319V55.6658C277.596 56.074 277.93 56.408 278.339 56.408C293.295 56.408 305.43 68.5436 305.43 83.4996C305.43 98.4557 293.295 110.591 278.339 110.591C278.042 110.591 277.782 110.777 277.671 111.037C277.633 111.111 277.596 111.222 277.596 111.333C277.596 111.742 277.93 112.076 278.339 112.076C293.295 112.076 305.43 124.211 305.43 139.167C305.43 139.576 305.764 139.91 306.172 139.91H314.671C314.3 144.252 310.626 147.703 306.172 147.703C305.764 147.703 305.43 148.037 305.43 148.445C305.43 148.854 305.764 149.188 306.172 149.188C311.442 149.188 315.784 145.105 316.155 139.91H323.949C323.541 149.373 315.71 156.981 306.172 156.981C305.764 156.981 305.43 157.315 305.43 157.723C305.43 158.131 305.764 158.465 306.172 158.465C316.564 158.465 325.062 150.19 325.433 139.91H333.227C332.819 154.494 320.832 166.259 306.172 166.259C291.253 166.259 279.081 154.123 279.081 139.167C279.081 125.622 269.617 114.265 256.962 111.333C269.617 108.402 279.081 97.0454 279.081 83.4996C279.081 67.7271 266.277 54.9235 250.505 54.9235C250.096 54.9235 249.762 55.2575 249.762 55.6658V82.7203C235.178 82.312 223.413 70.3249 223.413 55.6658C223.413 40.7097 235.549 28.5741 250.505 28.5741ZM277.596 82.7574H269.061H259.783H251.247V56.408C265.609 56.8162 277.188 68.3951 277.596 82.7574ZM223.413 64.7581C226.271 73.2196 232.951 79.8998 241.412 82.7574H223.413V64.7581ZM223.413 84.2418H250.505H259.003C258.632 88.5839 254.958 92.0353 250.505 92.0353C250.096 92.0353 249.762 92.3693 249.762 92.7776C249.762 93.1858 250.096 93.5198 250.505 93.5198C255.775 93.5198 260.117 89.4375 260.488 84.2418H268.281C267.873 93.7054 260.042 101.313 250.505 101.313C250.096 101.313 249.762 101.647 249.762 102.056C249.762 102.464 250.096 102.798 250.505 102.798C260.896 102.798 269.395 94.5218 269.766 84.2418H277.559C277.151 98.8268 265.164 110.591 250.505 110.591H223.413V84.2418ZM249.762 112.076V130.075C246.905 121.613 240.225 114.933 231.763 112.076H249.762ZM222.671 112.076C237.627 112.076 249.762 124.211 249.762 139.167C249.762 139.576 250.096 139.91 250.505 139.91C250.913 139.91 251.247 139.576 251.247 139.167V130.669C255.589 131.04 259.04 134.714 259.04 139.167C259.04 139.576 259.374 139.91 259.783 139.91C260.191 139.91 260.525 139.576 260.525 139.167C260.525 133.897 256.443 129.555 251.247 129.184V121.391C260.71 121.799 268.318 129.63 268.318 139.167C268.318 139.576 268.652 139.91 269.061 139.91C269.469 139.91 269.803 139.576 269.803 139.167C269.803 128.776 261.527 120.277 251.247 119.906V112.113C265.609 112.484 277.188 124.1 277.596 138.462C264.384 138.796 253.399 148.148 250.505 160.581C247.61 148.148 236.625 138.796 223.413 138.462C223.116 126.178 215.026 115.824 203.929 112.113H222.671V112.076ZM195.579 110.591C195.95 96.229 207.566 84.6501 221.929 84.2418V110.591H195.579ZM221.929 74.4443C219.071 65.9828 212.391 59.2656 203.892 56.408H221.929V74.4443ZM195.579 0.740285C209.941 1.1114 221.52 12.7274 221.929 27.0897H195.579V0.740285ZM195.579 36.9243C198.437 45.3858 205.117 52.0659 213.578 54.9235H195.579V36.9243ZM195.542 56.408C209.904 56.7791 221.52 68.3951 221.891 82.7574C206.75 83.1656 194.503 95.4125 194.095 110.554C179.732 110.183 168.116 98.567 167.745 84.2047C182.924 83.8336 195.171 71.5867 195.542 56.408ZM167.745 82.7574V56.408H194.095C193.687 70.7703 182.108 82.3491 167.745 82.7574ZM194.095 54.9235H167.782C168.154 40.5613 179.77 28.9824 194.095 28.6112V54.9235ZM167.745 46.5734V28.5741H185.745C177.283 31.4317 170.603 38.1119 167.745 46.5734ZM167.003 0.740285C181.699 0.740285 193.687 12.5047 194.058 27.0897H186.264C185.893 16.8097 177.394 8.53376 167.003 8.53376C156.352 8.53376 147.705 17.1808 147.705 27.8319C147.705 28.2401 148.039 28.5741 148.447 28.5741C148.855 28.5741 149.189 28.2401 149.189 27.8319C149.189 17.9973 157.168 10.0182 167.003 10.0182C176.578 10.0182 184.409 17.6262 184.78 27.0897H176.986C176.615 21.894 172.273 17.8117 167.003 17.8117C161.473 17.8117 156.983 22.3022 156.983 27.8319C156.983 28.2401 157.317 28.5741 157.725 28.5741C158.133 28.5741 158.467 28.2401 158.467 27.8319C158.467 23.1187 162.29 19.2962 167.003 19.2962C171.457 19.2962 175.131 22.7476 175.502 27.0897H167.003C166.595 27.0897 166.261 27.4237 166.261 27.8319V46.6105C162.55 35.514 152.196 27.4608 139.911 27.1268C140.32 12.5047 152.307 0.740285 167.003 0.740285ZM139.911 28.5741C154.274 28.9453 165.853 40.5613 166.261 54.9235H157.725H148.447H139.911V28.5741ZM139.874 56.408H147.668C147.297 60.7501 143.623 64.2015 139.169 64.2015C138.761 64.2015 138.427 64.5355 138.427 64.9437C138.427 65.3519 138.761 65.6859 139.169 65.6859C144.439 65.6859 148.781 61.6036 149.152 56.408H156.946C156.538 65.8715 148.707 73.4794 139.169 73.4794C138.761 73.4794 138.427 73.8134 138.427 74.2217C138.427 74.6299 138.761 74.9639 139.169 74.9639C149.561 74.9639 158.059 66.688 158.43 56.408H166.224C165.816 70.9929 153.828 82.7574 139.169 82.7574H120.391C131.487 79.0462 139.577 68.6549 139.874 56.408ZM112.078 82.7574V56.408H138.427C138.019 70.7703 126.44 82.3491 112.078 82.7574ZM138.427 46.6105C135.569 38.149 128.889 31.4317 120.391 28.5741H138.427V46.6105ZM112.078 0.740285C126.44 1.1114 138.019 12.7274 138.427 27.0897H112.078V0.740285ZM112.078 28.6112C126.44 28.9824 138.019 40.5984 138.427 54.9235H130.634C130.262 44.8662 122.135 36.7758 112.078 36.4047V28.6112ZM112.078 37.8892C121.318 38.2603 128.741 45.7198 129.149 54.9235H121.356C120.984 49.9877 117.051 46.0538 112.115 45.6827V37.8892H112.078ZM112.078 47.1672C116.197 47.5383 119.463 50.8041 119.834 54.9235H112.078V47.1672ZM111.335 84.2418C126.032 84.2418 138.019 96.0063 138.427 110.591H111.335C110.927 110.591 110.593 110.925 110.593 111.333V130.112C106.882 119.016 96.5278 110.962 84.2438 110.628C84.652 96.0063 96.6391 84.2418 111.335 84.2418ZM84.2438 9.05333C87.1014 17.5148 93.7815 24.2321 102.28 27.0897H84.2438V9.05333ZM110.593 28.5741V54.9235C96.2309 54.5524 84.652 42.9364 84.2438 28.5741H110.593ZM82.7593 9.09044V27.0897H64.7601C73.2216 24.2321 79.9017 17.5519 82.7593 9.09044ZM82.7593 28.5741C83.1304 43.7529 95.4144 55.9998 110.556 56.3709C110.185 70.7331 98.5689 82.3491 84.2067 82.7203V74.9268C94.4866 74.5186 102.763 66.0571 102.763 55.6658C102.763 55.2575 102.429 54.9235 102.02 54.9235C101.612 54.9235 101.278 55.2575 101.278 55.6658C101.278 65.2406 93.6702 73.0712 84.2067 73.4423V65.6488C89.4023 65.2777 93.4846 60.9356 93.4846 55.6658C93.4846 55.2575 93.1506 54.9235 92.7424 54.9235C92.3342 54.9235 92.0002 55.2575 92.0002 55.6658C92.0002 60.1192 88.5488 63.7932 84.2067 64.1644V55.6658C84.2067 43.0849 76.0421 32.3595 64.6859 28.5741H82.7593ZM56.4099 28.5741C70.7722 28.9453 82.3511 40.5613 82.7593 54.9235H56.4099V28.5741ZM82.7593 56.408V82.7574C68.3971 82.3863 56.8182 70.7703 56.4099 56.408H82.7593ZM28.5761 36.9243C31.4337 45.3858 38.1138 52.0659 46.5753 54.9235H28.5761V36.9243ZM9.09239 0.740285H27.0916V18.7395C24.234 10.278 17.5539 3.59789 9.09239 0.740285ZM27.0916 28.5741V54.9235H0.742236C1.15047 40.5613 12.7293 28.9824 27.0916 28.5741ZM9.05528 56.408H27.8339H46.6124C37.2974 59.5254 30.0977 67.356 27.8339 77.0422C25.6071 67.356 18.4075 59.5254 9.05528 56.408ZM28.6132 82.7574C28.9843 68.3951 40.6003 56.8162 54.9626 56.408C55.3708 71.8094 68.0259 84.2418 83.5016 84.2418C96.0825 84.2418 106.808 76.0772 110.593 64.721V82.7574C97.3814 83.0914 86.3963 92.4436 83.5016 104.876C80.5697 92.2209 69.2135 82.7574 55.6677 82.7574H47.1691C47.5402 78.4153 51.2143 74.9639 55.6677 74.9639C56.0759 74.9639 56.4099 74.6299 56.4099 74.2217C56.4099 73.8134 56.0759 73.4794 55.6677 73.4794C50.3978 73.4794 46.0557 77.5617 45.6846 82.7574H37.8912C38.2994 73.2939 46.13 65.6859 55.6677 65.6859C56.0759 65.6859 56.4099 65.3519 56.4099 64.9437C56.4099 64.5355 56.0759 64.2015 55.6677 64.2015C45.2764 64.2015 36.7778 72.4774 36.4067 82.7574H28.6132ZM36.9262 84.2418H54.9255V92.7776V102.056V102.241C52.0679 93.7796 45.3877 87.0995 36.9262 84.2418ZM28.5761 138.425C28.9472 124.063 40.5632 112.484 54.9255 112.076V138.425H28.5761ZM54.9255 139.91V166.259H28.5761C28.9843 151.897 40.5632 140.318 54.9255 139.91ZM36.9262 167.743H54.9255V185.743C52.0679 177.281 45.3877 170.601 36.9262 167.743ZM54.9255 195.577V221.927C40.5632 221.556 28.9843 209.94 28.5761 195.577H54.9255ZM28.5761 259.558C31.4337 268.02 38.1138 274.737 46.6124 277.594H28.5761V259.558ZM27.0916 203.927V221.927H9.09239C17.5539 219.069 24.234 212.389 27.0916 203.927ZM9.05528 223.411H27.0916V241.447C24.234 232.949 17.5539 226.269 9.05528 223.411ZM0.742236 251.245H27.0916V277.594C12.7293 277.186 1.15047 265.607 0.742236 251.245ZM27.0916 361.096C12.7293 360.725 1.15047 349.109 0.742236 334.747H27.0916V361.096ZM27.8339 305.428C27.4256 305.428 27.0916 305.762 27.0916 306.17V314.669C22.7495 314.298 19.2981 310.624 19.2981 306.17C19.2981 301.457 23.1207 297.635 27.8339 297.635C28.2421 297.635 28.5761 297.301 28.5761 296.892C28.5761 296.484 28.2421 296.15 27.8339 296.15C22.3042 296.15 17.8137 300.641 17.8137 306.17C17.8137 311.44 21.896 315.782 27.0916 316.154V323.947C17.6281 323.539 10.0202 315.745 10.0202 306.17C10.0202 296.336 17.9992 288.357 27.8339 288.357C28.2421 288.357 28.5761 288.023 28.5761 287.615C28.5761 287.206 28.2421 286.872 27.8339 286.872C17.1828 286.872 8.53572 295.519 8.53572 306.17C8.53572 316.562 16.8116 325.06 27.0916 325.431V333.225C12.5067 332.854 0.742236 320.867 0.742236 306.17C0.742236 291.474 12.5067 279.487 27.1287 279.079C27.4627 291.326 35.516 301.68 46.6124 305.428H27.8339ZM28.5761 306.913H46.5753C38.1138 309.77 31.4337 316.45 28.5761 324.912V306.913ZM54.9255 352.746C52.0679 344.284 45.3877 337.604 36.9262 334.747H54.9255V352.746ZM54.9255 333.262H28.5761C28.9472 318.9 40.5632 307.321 54.8884 306.95V333.262H54.9255ZM54.9255 287.615V296.892V305.428C40.5632 305.057 28.9843 293.441 28.5761 279.079H54.9255V287.615ZM54.9255 277.557C40.5632 277.186 28.9843 265.57 28.6132 251.245H36.4067C36.7778 261.302 44.9053 269.393 54.9255 269.764V277.557ZM28.5761 249.76V223.411C42.9384 223.782 54.5172 235.398 54.9255 249.76H28.5761ZM54.9255 268.279C45.6846 267.908 38.2623 260.449 37.8912 251.245H45.6846C46.0557 256.181 49.9896 260.115 54.9255 260.486V268.279ZM54.9255 259.001C50.8061 258.63 47.5402 255.364 47.1691 251.245H54.9255V259.001ZM28.5761 221.927V203.89C32.3615 215.209 43.0868 223.411 55.6677 223.411H64.1663C63.7952 227.753 60.1211 231.205 55.6677 231.205C55.2595 231.205 54.9255 231.539 54.9255 231.947C54.9255 232.355 55.2595 232.689 55.6677 232.689C60.9376 232.689 65.2797 228.607 65.6508 223.411H73.4443C73.036 232.875 65.2054 240.483 55.6677 240.483C55.2595 240.483 54.9255 240.817 54.9255 241.225C54.9255 241.633 55.2595 241.967 55.6677 241.967C66.059 241.967 74.5576 233.691 74.9287 223.411H82.7222C82.3511 237.773 70.7351 249.352 56.3728 249.76C56.0017 234.582 43.7177 222.335 28.5761 221.927ZM82.7593 306.913C82.3882 321.275 70.7722 332.854 56.4099 333.262V306.913H82.7593ZM56.4099 343.06C59.2676 351.521 65.9477 358.238 74.4463 361.096H56.4099V343.06ZM64.7601 362.58H82.7593V380.58C79.9017 372.118 73.2216 365.438 64.7601 362.58ZM82.7593 398.95V408.228V416.764C68.3971 416.392 56.8182 404.776 56.4099 390.414H82.7593V398.95ZM56.4099 334.709C71.5516 334.301 83.7985 322.054 84.2067 306.913C98.5689 307.284 110.185 318.9 110.556 333.262C95.4144 333.67 83.1675 345.917 82.7593 361.059C68.3971 360.688 56.8182 349.109 56.4099 334.709ZM110.593 389.672C110.593 404.368 98.8287 416.355 84.2438 416.764V408.97C94.5238 408.562 102.8 400.1 102.8 389.709C102.8 389.301 102.466 388.967 102.057 388.967C101.649 388.967 101.315 389.301 101.315 389.709C101.315 399.284 93.7073 407.115 84.2438 407.486V399.692C89.4394 399.321 93.5217 394.979 93.5217 389.709C93.5217 389.301 93.1877 388.967 92.7795 388.967C92.3713 388.967 92.0373 389.301 92.0373 389.709C92.0373 394.163 88.5859 397.837 84.2438 398.208V389.709V362.617H110.593V389.672ZM110.593 361.096H84.2438C84.6149 346.734 96.2309 335.155 110.593 334.747V361.096ZM138.427 416.764C124.065 416.392 112.486 404.776 112.078 390.414H119.871C120.242 400.472 128.37 408.562 138.427 408.97V416.764ZM112.078 388.93V370.931C114.935 379.392 121.615 386.072 130.077 388.93H112.078ZM138.427 407.486C129.186 407.115 121.764 399.655 121.356 390.414H129.149C129.52 395.35 133.454 399.284 138.39 399.655V407.486H138.427ZM138.427 398.171C134.308 397.799 131.042 394.534 130.671 390.414H138.427V398.171ZM139.911 408.413V390.414H157.911C149.449 393.272 142.769 399.952 139.911 408.413ZM158.43 388.93C158.022 378.65 149.561 370.374 139.169 370.374C138.761 370.374 138.427 370.708 138.427 371.116C138.427 371.524 138.761 371.858 139.169 371.858C148.744 371.858 156.575 379.466 156.946 388.93H149.152C148.781 383.734 144.439 379.652 139.169 379.652C138.761 379.652 138.427 379.986 138.427 380.394C138.427 380.802 138.761 381.136 139.169 381.136C143.623 381.136 147.297 384.588 147.668 388.93H139.169C124.213 388.93 112.078 376.794 112.078 361.838V343.06C115.863 354.379 126.588 362.543 139.169 362.58C153.866 362.58 165.853 374.345 166.224 388.93H158.43ZM139.169 361.096C124.213 361.096 112.041 348.923 112.041 334.004C112.041 318.232 99.237 305.428 83.4644 305.428H64.6859C74.0009 302.311 81.2006 294.48 83.4644 284.794C86.3963 297.449 97.7525 306.913 111.298 306.913H139.132H147.631C147.26 311.255 143.586 314.706 139.132 314.706C138.724 314.706 138.39 315.04 138.39 315.448C138.39 315.857 138.724 316.191 139.132 316.191C144.402 316.191 148.744 312.108 149.115 306.913H156.909C156.5 316.376 148.67 323.984 139.132 323.984C138.724 323.984 138.39 324.318 138.39 324.726C138.39 325.135 138.724 325.469 139.132 325.469C149.523 325.469 158.022 317.193 158.393 306.913H166.187C165.778 321.498 153.828 333.262 139.132 333.262H139.169C138.761 333.262 138.427 333.596 138.427 334.004C138.427 334.413 138.761 334.747 139.169 334.747C154.088 334.747 166.261 346.919 166.261 361.838C166.261 361.875 166.261 361.949 166.261 361.987C166.335 362.321 166.632 362.58 167.003 362.58H194.058C193.687 376.943 182.071 388.522 167.708 388.893C167.337 373.528 154.682 361.096 139.169 361.096ZM194.095 370.931V388.93H176.096C184.557 386.072 191.237 379.392 194.095 370.931ZM194.095 416.764C179.732 416.392 168.154 404.776 167.745 390.414H194.095V416.764ZM194.095 361.096H167.745C168.116 346.734 179.732 335.155 194.095 334.747V361.096ZM194.837 333.262C182.256 333.262 171.531 341.427 167.745 352.783V334.747C182.924 334.375 195.171 322.091 195.542 306.95C209.904 307.321 221.52 318.937 221.891 333.299H214.098C213.69 323.019 205.228 314.743 194.837 314.743C194.429 314.743 194.095 315.077 194.095 315.485C194.095 315.894 194.429 316.228 194.837 316.228C204.412 316.228 212.242 323.836 212.614 333.299H204.82C204.449 328.103 200.107 324.021 194.837 324.021C194.429 324.021 194.095 324.355 194.095 324.763C194.095 325.172 194.429 325.506 194.837 325.506C199.29 325.506 202.964 328.957 203.336 333.299H194.837V333.262ZM221.929 334.747C221.557 349.109 209.941 360.688 195.579 361.096V334.747H221.929ZM195.579 408.451V389.672V370.893C198.697 380.208 206.527 387.408 216.213 389.672C206.527 391.936 198.697 399.098 195.579 408.451ZM221.929 361.838V370.337C217.587 369.966 214.135 366.292 214.135 361.838C214.135 361.43 213.801 361.096 213.393 361.096C212.985 361.096 212.651 361.43 212.651 361.838C212.651 367.108 216.733 371.45 221.929 371.821V379.615C212.465 379.206 204.857 371.376 204.857 361.838C204.857 361.43 204.523 361.096 204.115 361.096C203.707 361.096 203.373 361.43 203.373 361.838C203.373 372.229 211.649 380.728 221.929 381.099V388.893C207.566 388.522 195.987 376.906 195.579 362.543C210.981 362.135 223.413 349.48 223.413 334.004C223.413 321.423 215.248 310.698 203.892 306.913H221.929C222.263 320.124 231.615 331.11 244.047 334.004C231.392 336.936 221.929 348.292 221.929 361.838ZM223.413 380.58V362.58H231.949H241.227H241.412C232.951 365.438 226.271 372.118 223.413 380.58ZM249.762 361.096H242.006C242.377 356.976 245.643 353.711 249.762 353.34V361.096ZM249.762 351.855C244.827 352.226 240.893 356.16 240.522 361.096H232.728C233.099 351.855 240.559 344.433 249.762 344.062V351.855ZM249.762 342.577C239.705 342.948 231.615 351.076 231.244 361.096H223.45C223.821 346.734 235.437 335.155 249.762 334.784V342.577ZM223.413 306.17C223.413 291.474 235.178 279.487 249.762 279.079V306.17C249.762 306.579 250.096 306.913 250.505 306.913H269.283C258.187 310.624 250.134 320.978 249.8 333.262C235.177 332.854 223.413 320.867 223.413 306.17ZM251.247 305.428V287.429C254.105 295.89 260.785 302.571 269.246 305.428H251.247ZM251.247 343.097C254.105 351.558 260.785 358.238 269.246 361.096H251.247V343.097ZM251.247 362.58H277.596V388.93C263.234 388.522 251.655 376.943 251.247 362.58ZM305.43 416.764H287.431C295.892 413.906 302.573 407.226 305.43 398.764V416.764ZM306.172 388.93C305.875 388.93 305.616 389.115 305.504 389.375C305.467 389.449 305.43 389.561 305.43 389.672C305.43 404.628 293.295 416.764 278.339 416.764H269.84C270.211 412.422 273.885 408.97 278.339 408.97C278.747 408.97 279.081 408.636 279.081 408.228C279.081 407.82 278.747 407.486 278.339 407.486C273.069 407.486 268.727 411.568 268.355 416.764H260.562C260.97 407.3 268.801 399.692 278.339 399.692C278.747 399.692 279.081 399.358 279.081 398.95C279.081 398.542 278.747 398.208 278.339 398.208C267.947 398.208 259.449 406.484 259.077 416.764H251.284C251.692 402.179 263.679 390.414 278.339 390.414C278.747 390.414 279.081 390.08 279.081 389.672V361.838C279.081 361.43 278.747 361.096 278.339 361.096C263.382 361.096 251.247 348.96 251.247 334.004C251.247 319.048 263.382 306.913 278.339 306.913C278.747 306.913 279.081 306.579 279.081 306.17C279.081 305.762 278.747 305.428 278.339 305.428C263.382 305.428 251.247 293.293 251.247 278.337C251.247 277.928 250.913 277.594 250.505 277.594H242.006C242.377 273.252 246.051 269.801 250.505 269.801C250.913 269.801 251.247 269.467 251.247 269.059C251.247 268.65 250.913 268.316 250.505 268.316C245.235 268.316 240.893 272.399 240.522 277.594H232.728C233.136 268.131 240.967 260.523 250.505 260.523C250.913 260.523 251.247 260.189 251.247 259.781C251.247 259.372 250.913 259.038 250.505 259.038C240.113 259.038 231.615 267.314 231.244 277.594H223.45C223.858 263.009 235.846 251.245 250.505 251.245C265.424 251.245 277.596 263.418 277.596 278.337C277.596 291.882 287.06 303.239 299.715 306.17C287.06 309.102 277.596 320.458 277.596 334.004C277.596 349.777 290.4 362.58 306.172 362.58C306.581 362.58 306.915 362.246 306.915 361.838V334.784C321.5 335.192 333.264 347.179 333.264 361.838C333.264 376.794 321.128 388.93 306.172 388.93ZM279.081 334.747H305.43V361.096C291.068 360.688 279.489 349.109 279.081 334.747ZM333.264 352.746C330.406 344.284 323.726 337.604 315.265 334.747H333.264V352.746ZM333.264 333.262H306.172H297.674C298.045 328.92 301.719 325.469 306.172 325.469C306.581 325.469 306.915 325.135 306.915 324.726C306.915 324.318 306.581 323.984 306.172 323.984C300.902 323.984 296.56 328.066 296.189 333.262H288.396C288.804 323.799 296.635 316.191 306.172 316.191C306.581 316.191 306.915 315.857 306.915 315.448C306.915 315.04 306.581 314.706 306.172 314.706C295.781 314.706 287.282 322.982 286.911 333.262H279.118C279.526 318.677 291.513 306.913 306.172 306.913H333.264V333.262ZM306.915 305.428V287.429C309.772 295.89 316.452 302.571 324.914 305.428H306.915ZM334.006 305.428C319.05 305.428 306.915 293.293 306.915 278.337C306.915 277.928 306.581 277.594 306.172 277.594C305.764 277.594 305.43 277.928 305.43 278.337V286.835C301.088 286.464 297.637 282.79 297.637 278.337C297.637 277.928 297.303 277.594 296.894 277.594C296.486 277.594 296.152 277.928 296.152 278.337C296.152 283.606 300.234 287.949 305.43 288.32V296.113C295.967 295.705 288.359 287.874 288.359 278.337C288.359 277.928 288.025 277.594 287.616 277.594C287.208 277.594 286.874 277.928 286.874 278.337C286.874 288.728 295.15 297.227 305.43 297.598V305.391C291.068 305.02 279.489 293.404 279.081 279.042C292.293 278.708 303.278 269.355 306.172 256.923C309.067 269.355 320.052 278.708 333.264 279.042C333.561 291.326 341.651 301.68 352.748 305.391H334.006V305.428ZM361.098 306.913C360.727 321.275 349.111 332.854 334.748 333.262V306.913H361.098ZM334.748 343.06C337.606 351.521 344.286 358.238 352.785 361.096H334.748V343.06ZM361.098 416.764C346.736 416.392 335.157 404.776 334.748 390.414H361.098V416.764ZM361.098 380.58C358.24 372.118 351.56 365.438 343.099 362.58H361.098V380.58ZM361.135 361.096C346.773 360.725 335.157 349.109 334.786 334.747C349.927 334.338 362.174 322.091 362.582 306.95C376.945 307.321 388.561 318.937 388.932 333.299C373.753 333.67 361.506 345.917 361.135 361.096ZM388.932 334.747V361.096H362.582C362.991 346.734 374.569 335.155 388.932 334.747ZM362.582 362.58H388.895C388.523 376.943 376.907 388.522 362.582 388.893V362.58ZM388.932 370.931V388.93H370.932C379.394 386.072 386.074 379.392 388.932 370.931ZM389.674 416.764C374.978 416.764 362.991 404.999 362.619 390.414H370.413C370.821 400.694 379.283 408.97 389.674 408.97C400.325 408.97 408.972 400.323 408.972 389.672C408.972 389.264 408.638 388.93 408.23 388.93C407.822 388.93 407.488 389.264 407.488 389.672C407.488 399.507 399.509 407.486 389.674 407.486C380.099 407.486 372.268 399.878 371.897 390.414H379.691C380.062 395.61 384.404 399.692 389.674 399.692C395.204 399.692 399.694 395.202 399.694 389.672C399.694 389.264 399.36 388.93 398.952 388.93C398.544 388.93 398.21 389.264 398.21 389.672C398.21 394.385 394.387 398.208 389.674 398.208C385.221 398.208 381.546 394.756 381.175 390.414H389.674C390.082 390.414 390.416 390.08 390.416 389.672V370.893C394.127 381.99 404.482 390.043 416.766 390.377C416.357 404.999 404.37 416.764 389.674 416.764ZM416.766 388.93C402.403 388.559 390.824 376.943 390.416 362.58H398.952H408.23H416.766V388.93ZM416.803 361.096H409.009C409.38 356.754 413.054 353.302 417.508 353.302C417.916 353.302 418.25 352.968 418.25 352.56C418.25 352.152 417.916 351.818 417.508 351.818C412.238 351.818 407.896 355.9 407.525 361.096H399.731C400.139 351.632 407.97 344.024 417.508 344.024C417.916 344.024 418.25 343.69 418.25 343.282C418.25 342.874 417.916 342.54 417.508 342.54C407.116 342.54 398.618 350.816 398.247 361.096H390.453C390.862 346.511 402.849 334.747 417.508 334.747H436.286C425.19 338.458 417.1 348.849 416.803 361.096ZM444.599 334.747V361.096H418.25C418.658 346.734 430.237 335.155 444.599 334.747ZM418.25 370.893C421.108 379.355 427.788 386.072 436.286 388.93H418.25V370.893ZM444.599 416.764C430.237 416.392 418.658 404.776 418.25 390.414H444.599V416.764ZM444.599 388.93C430.237 388.559 418.658 376.943 418.287 362.617H426.081C426.452 372.675 434.579 380.765 444.599 381.136V388.93ZM444.599 379.652C435.359 379.281 427.936 371.821 427.565 362.617H435.359C435.73 367.553 439.664 371.487 444.599 371.858V379.652ZM444.599 370.337C440.48 369.966 437.214 366.7 436.843 362.58H444.599V370.337ZM445.342 333.262C430.645 333.262 418.658 321.498 418.287 306.913H445.342C445.75 306.913 446.084 306.579 446.084 306.17V287.392C449.795 298.488 460.149 306.542 472.433 306.876C472.025 321.498 460.038 333.262 445.342 333.262ZM472.433 408.451C469.576 399.989 462.896 393.272 454.397 390.414H472.433V408.451ZM446.084 388.93V362.58C460.446 362.951 472.025 374.567 472.433 388.93H446.084ZM473.918 408.413V390.414H491.917C483.455 393.272 476.775 399.952 473.918 408.413ZM473.918 388.93C473.547 373.751 461.263 361.504 446.121 361.133C446.492 346.771 458.108 335.155 472.47 334.784V342.577C462.19 342.985 453.914 351.447 453.914 361.838C453.914 362.246 454.248 362.58 454.657 362.58C455.065 362.58 455.399 362.246 455.399 361.838C455.399 352.263 463.007 344.433 472.47 344.062V351.855C467.275 352.226 463.192 356.568 463.192 361.838C463.192 362.246 463.526 362.58 463.935 362.58C464.343 362.58 464.677 362.246 464.677 361.838C464.677 357.385 468.128 353.711 472.47 353.34V361.838C472.47 374.419 480.672 385.144 491.991 388.93H473.918ZM500.267 388.93C485.905 388.559 474.326 376.943 473.918 362.58H500.267V388.93ZM473.918 361.096V334.747C488.28 335.118 499.859 346.734 500.267 361.096H473.918ZM528.101 380.58C525.243 372.118 518.563 365.438 510.102 362.58H528.101V380.58ZM547.585 416.764H529.585V398.764C532.443 407.226 539.123 413.906 547.585 416.764ZM529.585 388.93V362.58H555.935C555.527 376.943 543.948 388.522 529.585 388.93ZM547.622 361.096H528.843H510.065C519.38 357.979 526.579 350.148 528.843 340.462C531.107 350.148 538.27 357.979 547.622 361.096ZM528.101 334.747C527.73 349.109 516.114 360.688 501.752 361.096C501.343 345.694 488.688 333.262 473.213 333.262C460.632 333.262 449.906 341.464 446.121 352.783V334.747C459.333 334.413 470.318 325.06 473.213 312.628C476.144 325.283 487.501 334.747 501.046 334.747H509.545C509.174 339.089 505.5 342.54 501.046 342.54C500.638 342.54 500.304 342.874 500.304 343.282C500.304 343.69 500.638 344.024 501.046 344.024C506.316 344.024 510.658 339.942 511.03 334.747H518.823C518.415 344.21 510.584 351.818 501.046 351.818C500.638 351.818 500.304 352.152 500.304 352.56C500.304 352.968 500.638 353.302 501.046 353.302C511.438 353.302 519.936 345.026 520.307 334.747H528.101ZM519.751 333.262H501.752V324.726V315.448V315.263C504.609 323.724 511.289 330.404 519.751 333.262ZM528.101 279.079C527.73 293.441 516.114 305.02 501.752 305.428V279.079H528.101ZM501.752 277.594V251.245H528.101C527.693 265.607 516.114 277.186 501.752 277.594ZM519.751 249.76H501.752V231.761C504.609 240.223 511.289 246.903 519.751 249.76ZM501.752 221.927V195.577C516.114 195.948 527.693 207.564 528.101 221.927H501.752ZM528.101 213.614C524.316 202.294 513.59 194.093 501.009 194.093H492.511C492.882 189.751 496.556 186.299 501.009 186.299C501.418 186.299 501.752 185.965 501.752 185.557C501.752 185.149 501.418 184.815 501.009 184.815C495.739 184.815 491.397 188.897 491.026 194.093H483.233C483.641 184.629 491.472 177.021 501.009 177.021C501.418 177.021 501.752 176.687 501.752 176.279C501.752 175.871 501.418 175.537 501.009 175.537C490.618 175.537 482.119 183.813 481.748 194.093H473.955C474.326 179.73 485.942 168.152 500.304 167.743C500.712 182.885 512.959 195.169 528.101 195.54V213.614ZM528.101 157.946C525.243 149.484 518.563 142.767 510.065 139.91H528.101V157.946ZM529.585 213.576V195.577H547.585C539.123 198.435 532.443 205.115 529.585 213.576ZM547.622 194.093H529.585V176.056C532.443 184.555 539.123 191.235 547.622 194.093ZM555.935 166.259H529.585V139.91C543.948 140.318 555.527 151.897 555.935 166.259ZM529.585 56.408C543.948 56.7791 555.527 68.3951 555.935 82.7574H529.585V56.408ZM528.843 112.076C529.251 112.076 529.585 111.742 529.585 111.333V102.835C533.928 103.206 537.379 106.88 537.379 111.333C537.379 116.047 533.556 119.869 528.843 119.869C528.435 119.869 528.101 120.203 528.101 120.611C528.101 121.02 528.435 121.354 528.843 121.354C534.373 121.354 538.863 116.863 538.863 111.333C538.863 106.064 534.781 101.722 529.585 101.35V93.5569C539.049 93.9651 546.657 101.796 546.657 111.333C546.657 121.168 538.678 129.147 528.843 129.147C528.435 129.147 528.101 129.481 528.101 129.889C528.101 130.298 528.435 130.632 528.843 130.632C539.494 130.632 548.141 121.985 548.141 111.333C548.141 100.942 539.865 92.4436 529.585 92.0724V84.279C544.17 84.6872 555.935 96.6743 555.935 111.333C555.935 126.03 544.17 138.017 529.548 138.425C529.214 126.178 521.161 115.824 510.065 112.076H528.843ZM528.101 110.591H510.102C518.563 107.734 525.243 101.053 528.101 92.592V110.591ZM501.752 110.554V84.2418H528.064C527.693 98.6041 516.114 110.183 501.752 110.554ZM519.751 82.7574H501.752V64.7581C504.609 73.2196 511.289 79.8998 519.751 82.7574ZM555.935 27.0897H537.936C546.397 24.2321 553.077 17.5519 555.935 9.09044V27.0897Z" fill="white"/>
</svg>
