<svg width="21" height="20" viewBox="0 0 21 20" fill="none" xmlns="http://www.w3.org/2000/svg">
<path fill-rule="evenodd" clip-rule="evenodd" d="M10.2818 17.9126C11.9461 17.9255 13.5644 17.4135 14.9118 16.4608C14.9946 16.4022 15.0764 16.3419 15.1572 16.28C15.1747 16.2666 15.1928 16.2542 15.2114 16.243C15.4451 16.1014 15.7525 16.1339 15.9364 16.3425C16.135 16.5676 16.1144 16.9126 15.8776 17.0972C15.858 17.1125 15.8383 17.1277 15.8186 17.1428C15.7232 17.2159 15.6266 17.287 15.5286 17.3561C13.9983 18.4348 12.1618 19.0144 10.2734 18.9998C8.05734 18.9826 5.92556 18.1484 4.28639 16.657C2.64722 15.1656 1.61592 13.1219 1.39003 10.9174C1.16415 8.71283 1.75957 6.50244 3.06224 4.70964C4.3649 2.91684 6.28322 1.66768 8.44971 1.20145C10.6162 0.73522 12.8786 1.0847 14.8034 2.18295C16.7282 3.2812 18.1801 5.051 18.8811 7.15332C19.4784 8.94488 19.4946 10.8706 18.9413 12.6593C18.9059 12.7738 18.8682 12.8877 18.8281 13.001C18.8198 13.0244 18.8114 13.0478 18.803 13.0712C18.7005 13.3534 18.3788 13.4796 18.1033 13.3603C17.8481 13.2498 17.7223 12.9675 17.7847 12.7015C17.7897 12.6803 17.7958 12.6593 17.8032 12.6384C17.8371 12.5425 17.8691 12.4461 17.8993 12.3492C18.3892 10.7734 18.3762 9.07606 17.8497 7.49718C17.2335 5.64882 15.9569 4.0928 14.2646 3.12722C12.5723 2.16163 10.5832 1.85436 8.67843 2.26427C6.77364 2.67418 5.08705 3.77245 3.94174 5.34869C2.79643 6.92493 2.27293 8.86831 2.47153 10.8066C2.67013 12.7448 3.57686 14.5417 5.01802 15.8529C6.45918 17.1641 8.33346 17.8975 10.2818 17.9126ZM8.79037 7.77641C8.66688 7.52942 8.36654 7.42931 8.11955 7.55281C7.87256 7.6763 7.77245 7.97664 7.89595 8.22363L9.8065 12.0447C10.0276 12.487 10.6587 12.487 10.8798 12.0447L12.7904 8.22363C12.9139 7.97664 12.8138 7.6763 12.5668 7.55281C12.3198 7.42931 12.0194 7.52942 11.8959 7.77641L10.3432 10.882L8.79037 7.77641Z" fill="#50325A"/>
</svg>
