<svg width="21" height="20" viewBox="0 0 21 20" fill="none" xmlns="http://www.w3.org/2000/svg">
<path fill-rule="evenodd" clip-rule="evenodd" d="M8.49938 0.0703125C7.60467 0.0703125 6.87937 0.795616 6.87937 1.69032C6.87937 2.01731 6.76808 2.33457 6.56381 2.5899L5.96948 3.33282C5.93935 3.37048 5.9145 3.41065 5.89482 3.45245C4.85424 3.79215 4.10239 4.77057 4.10239 5.92459V14.0739C4.10239 15.2275 4.8537 16.2056 5.89371 16.5457L6.22236 17.3673C6.31242 17.5924 6.35868 17.8327 6.35868 18.0752C6.35868 19.0985 7.1883 19.9282 8.21169 19.9282H12.1869C13.0816 19.9282 13.8069 19.2029 13.8069 18.3081C13.8069 17.9812 13.9182 17.6639 14.1224 17.4086L14.7168 16.6657C14.7469 16.628 14.7718 16.5878 14.7914 16.546C15.832 16.2063 16.5839 15.2279 16.5839 14.0739V13.0366V9.99924C16.5839 9.66787 16.3152 9.39924 15.9839 9.39924C15.6525 9.39924 15.3839 9.66787 15.3839 9.99924V13.0366V14.0739C15.3839 14.8471 14.7571 15.4739 13.9839 15.4739H6.70239C5.92919 15.4739 5.30239 14.8471 5.30239 14.0739V5.92459C5.30239 5.15139 5.92919 4.52459 6.70239 4.52459H13.9839C14.7571 4.52459 15.3839 5.15139 15.3839 5.92459V6.66749C15.3839 6.99886 15.6525 7.26749 15.9839 7.26749C16.3152 7.26749 16.5839 6.99886 16.5839 6.66749V5.92459C16.5839 4.77098 15.8326 3.79284 14.7926 3.45281L14.4639 2.63119C14.3738 2.40605 14.3276 2.1658 14.3276 1.92331C14.3276 0.89993 13.498 0.0703125 12.4746 0.0703125H8.49938ZM7.33653 16.9216L7.23744 16.6739H13.1735C12.8066 17.1394 12.6069 17.715 12.6069 18.3081C12.6069 18.5401 12.4188 18.7282 12.1869 18.7282H8.21169C7.85104 18.7282 7.55868 18.4358 7.55868 18.0752C7.55868 17.68 7.48329 17.2885 7.33653 16.9216ZM13.4488 3.32459L13.3497 3.07685C13.203 2.70997 13.1276 2.31846 13.1276 1.92331C13.1276 1.56267 12.8352 1.27031 12.4746 1.27031H8.49938C8.26741 1.27031 8.07937 1.45836 8.07937 1.69032C8.07937 2.28344 7.87965 2.85907 7.51273 3.32459H13.4488ZM9.15114 10.0424L9.64982 9.2113L10.1369 11.4033C10.2742 12.0208 11.0951 12.154 11.4205 11.6116L12.4185 9.94838H13.3805C13.7118 9.94838 13.9805 9.67975 13.9805 9.34838C13.9805 9.01701 13.7118 8.74838 13.3805 8.74838H12.1354C11.8895 8.74838 11.6616 8.87739 11.5351 9.08823L11.0364 9.91936L10.5493 7.72734C10.4121 7.10985 9.59119 6.97664 9.26575 7.51904L8.2678 9.18229H7.30581C6.97444 9.18229 6.70581 9.45091 6.70581 9.78229C6.70581 10.1137 6.97444 10.3823 7.30581 10.3823H8.5509C8.79678 10.3823 9.02464 10.2533 9.15114 10.0424Z" fill="#50325A"/>
</svg>
